<mxfile modified="2024-01-18T14:36:03.683Z" host="Electron" agent="Mozilla/5.0 (Windows NT 10.0; Win64; x64) AppleWebKit/537.36 (KHTML, like Gecko) draw.io/22.1.16 Chrome/120.0.6099.109 Electron/28.1.0 Safari/537.36" etag="KRWXPsGXdBJboNgAZgK7" version="22.1.16" type="device">
  <diagram id="Ht1M8jgEwFfnCIfOTk4-" name="Page-1">
    <mxGraphModel dx="2856" dy="1820" grid="1" gridSize="10" guides="1" tooltips="1" connect="1" arrows="1" fold="1" page="1" pageScale="1" pageWidth="1169" pageHeight="827" math="0" shadow="0">
      <root>
        <mxCell id="0" />
        <mxCell id="1" parent="0" />
        <mxCell id="yl-EDWdLTb7qI4WnAejd-96" value="Availability Zone 2" style="fillColor=none;strokeColor=#147EBA;dashed=1;verticalAlign=top;fontStyle=0;fontColor=#147EBA;whiteSpace=wrap;html=1;shadow=0;movable=1;resizable=1;rotatable=1;deletable=1;editable=1;locked=0;connectable=1;" parent="1" vertex="1">
          <mxGeometry x="-803.5" y="-90" width="573.5" height="840" as="geometry" />
        </mxCell>
        <mxCell id="yl-EDWdLTb7qI4WnAejd-89" value="" style="whiteSpace=wrap;html=1;fillColor=none;strokeColor=#ed7100;movable=1;resizable=1;rotatable=1;deletable=1;editable=1;locked=0;connectable=1;labelPosition=center;verticalLabelPosition=top;align=center;verticalAlign=top;" parent="1" vertex="1">
          <mxGeometry x="-1100" y="222" width="850" height="510" as="geometry" />
        </mxCell>
        <mxCell id="RvDOAOYHqPrXsHDZ0j0p-33" value="Private subnet" style="points=[[0,0],[0.25,0],[0.5,0],[0.75,0],[1,0],[1,0.25],[1,0.5],[1,0.75],[1,1],[0.75,1],[0.5,1],[0.25,1],[0,1],[0,0.75],[0,0.5],[0,0.25]];outlineConnect=0;gradientColor=none;html=1;whiteSpace=wrap;fontSize=12;fontStyle=0;container=0;pointerEvents=0;collapsible=0;recursiveResize=0;shape=mxgraph.aws4.group;grIcon=mxgraph.aws4.group_security_group;grStroke=0;strokeColor=#00A4A6;fillColor=#E6F6F7;verticalAlign=top;align=left;spacingLeft=30;fontColor=#147EBA;dashed=0;movable=1;resizable=1;rotatable=1;deletable=1;editable=1;locked=0;connectable=1;" parent="1" vertex="1">
          <mxGeometry x="-795.6" y="506" width="525.6" height="214" as="geometry" />
        </mxCell>
        <mxCell id="RvDOAOYHqPrXsHDZ0j0p-6" value="Private subnet" style="points=[[0,0],[0.25,0],[0.5,0],[0.75,0],[1,0],[1,0.25],[1,0.5],[1,0.75],[1,1],[0.75,1],[0.5,1],[0.25,1],[0,1],[0,0.75],[0,0.5],[0,0.25]];outlineConnect=0;gradientColor=none;html=1;whiteSpace=wrap;fontSize=12;fontStyle=0;container=0;pointerEvents=0;collapsible=0;recursiveResize=0;shape=mxgraph.aws4.group;grIcon=mxgraph.aws4.group_security_group;grStroke=0;strokeColor=#00A4A6;fillColor=#E6F6F7;verticalAlign=top;align=left;spacingLeft=30;fontColor=#147EBA;dashed=0;movable=1;resizable=1;rotatable=1;deletable=1;editable=1;locked=0;connectable=1;" parent="1" vertex="1">
          <mxGeometry x="-1064.8" y="502" width="217.6" height="214" as="geometry" />
        </mxCell>
        <mxCell id="yl-EDWdLTb7qI4WnAejd-16" value="Availability Zone 1" style="fillColor=none;strokeColor=#147EBA;dashed=1;verticalAlign=top;fontStyle=0;fontColor=#147EBA;whiteSpace=wrap;html=1;shadow=0;movable=1;resizable=1;rotatable=1;deletable=1;editable=1;locked=0;connectable=1;" parent="1" vertex="1">
          <mxGeometry x="-1075" y="-90" width="230" height="840" as="geometry" />
        </mxCell>
        <mxCell id="yl-EDWdLTb7qI4WnAejd-27" value="Private subnet" style="points=[[0,0],[0.25,0],[0.5,0],[0.75,0],[1,0],[1,0.25],[1,0.5],[1,0.75],[1,1],[0.75,1],[0.5,1],[0.25,1],[0,1],[0,0.75],[0,0.5],[0,0.25]];outlineConnect=0;gradientColor=none;html=1;whiteSpace=wrap;fontSize=12;fontStyle=0;container=0;pointerEvents=0;collapsible=0;recursiveResize=0;shape=mxgraph.aws4.group;grIcon=mxgraph.aws4.group_security_group;grStroke=0;strokeColor=#00A4A6;fillColor=#E6F6F7;verticalAlign=top;align=left;spacingLeft=30;fontColor=#147EBA;dashed=0;movable=1;resizable=1;rotatable=1;deletable=1;editable=1;locked=0;connectable=1;" parent="1" vertex="1">
          <mxGeometry x="-1063.6" y="259" width="217.6" height="224" as="geometry" />
        </mxCell>
        <mxCell id="yl-EDWdLTb7qI4WnAejd-1" value="AWS Cloud" style="points=[[0,0],[0.25,0],[0.5,0],[0.75,0],[1,0],[1,0.25],[1,0.5],[1,0.75],[1,1],[0.75,1],[0.5,1],[0.25,1],[0,1],[0,0.75],[0,0.5],[0,0.25]];outlineConnect=0;gradientColor=none;html=1;whiteSpace=wrap;fontSize=12;fontStyle=0;container=0;pointerEvents=0;collapsible=0;recursiveResize=0;shape=mxgraph.aws4.group;grIcon=mxgraph.aws4.group_aws_cloud_alt;strokeColor=#232F3E;fillColor=none;verticalAlign=top;align=left;spacingLeft=30;fontColor=#232F3E;dashed=0;" parent="1" vertex="1">
          <mxGeometry x="-1130" y="-170" width="950" height="1000" as="geometry" />
        </mxCell>
        <mxCell id="yl-EDWdLTb7qI4WnAejd-2" value="VPC" style="points=[[0,0],[0.25,0],[0.5,0],[0.75,0],[1,0],[1,0.25],[1,0.5],[1,0.75],[1,1],[0.75,1],[0.5,1],[0.25,1],[0,1],[0,0.75],[0,0.5],[0,0.25]];outlineConnect=0;gradientColor=none;html=1;whiteSpace=wrap;fontSize=12;fontStyle=0;container=0;pointerEvents=0;collapsible=0;recursiveResize=0;shape=mxgraph.aws4.group;grIcon=mxgraph.aws4.group_vpc2;strokeColor=#8C4FFF;fillColor=none;verticalAlign=top;align=left;spacingLeft=30;fontColor=#AAB7B8;dashed=0;" parent="1" vertex="1">
          <mxGeometry x="-1110" y="-130" width="910" height="950" as="geometry" />
        </mxCell>
        <mxCell id="yl-EDWdLTb7qI4WnAejd-26" value="Public subnet" style="points=[[0,0],[0.25,0],[0.5,0],[0.75,0],[1,0],[1,0.25],[1,0.5],[1,0.75],[1,1],[0.75,1],[0.5,1],[0.25,1],[0,1],[0,0.75],[0,0.5],[0,0.25]];outlineConnect=0;gradientColor=none;html=1;whiteSpace=wrap;fontSize=12;fontStyle=0;container=1;pointerEvents=0;collapsible=0;recursiveResize=0;shape=mxgraph.aws4.group;grIcon=mxgraph.aws4.group_security_group;grStroke=0;strokeColor=#7AA116;fillColor=#F2F6E8;verticalAlign=top;align=left;spacingLeft=30;fontColor=#248814;dashed=0;" parent="1" vertex="1">
          <mxGeometry x="-1062.8" y="-60" width="203.6" height="170" as="geometry" />
        </mxCell>
        <mxCell id="HAtJTmiLCUxBZ5le2n7W-1" value="NAT Instance" style="text;strokeColor=none;align=center;fillColor=none;html=1;verticalAlign=middle;whiteSpace=wrap;rounded=0;" parent="yl-EDWdLTb7qI4WnAejd-26" vertex="1">
          <mxGeometry x="57.799999999999955" y="114" width="90" height="30" as="geometry" />
        </mxCell>
        <mxCell id="yl-EDWdLTb7qI4WnAejd-91" value="AWS EKS" style="sketch=0;points=[[0,0,0],[0.25,0,0],[0.5,0,0],[0.75,0,0],[1,0,0],[0,1,0],[0.25,1,0],[0.5,1,0],[0.75,1,0],[1,1,0],[0,0.25,0],[0,0.5,0],[0,0.75,0],[1,0.25,0],[1,0.5,0],[1,0.75,0]];outlineConnect=0;fontColor=#232F3E;fillColor=#ED7100;strokeColor=#ffffff;dashed=0;verticalLabelPosition=middle;verticalAlign=middle;align=left;html=1;fontSize=12;fontStyle=0;aspect=fixed;shape=mxgraph.aws4.resourceIcon;resIcon=mxgraph.aws4.eks;labelPosition=right;" parent="1" vertex="1">
          <mxGeometry x="-1100" y="222" width="30" height="30" as="geometry" />
        </mxCell>
        <mxCell id="yl-EDWdLTb7qI4WnAejd-93" value="Public subnet" style="points=[[0,0],[0.25,0],[0.5,0],[0.75,0],[1,0],[1,0.25],[1,0.5],[1,0.75],[1,1],[0.75,1],[0.5,1],[0.25,1],[0,1],[0,0.75],[0,0.5],[0,0.25]];outlineConnect=0;gradientColor=none;html=1;whiteSpace=wrap;fontSize=12;fontStyle=0;container=1;pointerEvents=0;collapsible=0;recursiveResize=0;shape=mxgraph.aws4.group;grIcon=mxgraph.aws4.group_security_group;grStroke=0;strokeColor=#7AA116;fillColor=#F2F6E8;verticalAlign=top;align=left;spacingLeft=30;fontColor=#248814;dashed=0;" parent="1" vertex="1">
          <mxGeometry x="-792.23" y="-60" width="522.23" height="170" as="geometry" />
        </mxCell>
        <mxCell id="yl-EDWdLTb7qI4WnAejd-129" value="" style="sketch=0;outlineConnect=0;fontColor=#232F3E;gradientColor=none;fillColor=#8C4FFF;strokeColor=none;dashed=0;verticalLabelPosition=bottom;verticalAlign=top;align=center;html=1;fontSize=12;fontStyle=0;aspect=fixed;pointerEvents=1;shape=mxgraph.aws4.nat_gateway;" parent="yl-EDWdLTb7qI4WnAejd-93" vertex="1">
          <mxGeometry x="237.23" y="54" width="50" height="50" as="geometry" />
        </mxCell>
        <mxCell id="HAtJTmiLCUxBZ5le2n7W-2" value="NAT Instance" style="text;strokeColor=none;align=center;fillColor=none;html=1;verticalAlign=middle;whiteSpace=wrap;rounded=0;" parent="yl-EDWdLTb7qI4WnAejd-93" vertex="1">
          <mxGeometry x="219.23000000000008" y="108" width="90" height="30" as="geometry" />
        </mxCell>
        <mxCell id="yl-EDWdLTb7qI4WnAejd-94" value="Private subnet" style="points=[[0,0],[0.25,0],[0.5,0],[0.75,0],[1,0],[1,0.25],[1,0.5],[1,0.75],[1,1],[0.75,1],[0.5,1],[0.25,1],[0,1],[0,0.75],[0,0.5],[0,0.25]];outlineConnect=0;gradientColor=none;html=1;whiteSpace=wrap;fontSize=12;fontStyle=0;container=0;pointerEvents=0;collapsible=0;recursiveResize=0;shape=mxgraph.aws4.group;grIcon=mxgraph.aws4.group_security_group;grStroke=0;strokeColor=#00A4A6;fillColor=#E6F6F7;verticalAlign=top;align=left;spacingLeft=30;fontColor=#147EBA;dashed=0;movable=1;resizable=1;rotatable=1;deletable=1;editable=1;locked=0;connectable=1;" parent="1" vertex="1">
          <mxGeometry x="-792.6" y="259" width="522.6" height="224" as="geometry" />
        </mxCell>
        <mxCell id="yl-EDWdLTb7qI4WnAejd-95" value="&lt;font style=&quot;font-size: 10px;&quot;&gt;&lt;font style=&quot;font-size: 10px;&quot;&gt;EC2 instance contents (&lt;/font&gt;&lt;font style=&quot;font-size: 10px;&quot;&gt;worker2&lt;/font&gt;&lt;font style=&quot;font-size: 10px;&quot;&gt;)&lt;/font&gt;&lt;/font&gt;" style="points=[[0,0],[0.25,0],[0.5,0],[0.75,0],[1,0],[1,0.25],[1,0.5],[1,0.75],[1,1],[0.75,1],[0.5,1],[0.25,1],[0,1],[0,0.75],[0,0.5],[0,0.25]];outlineConnect=0;gradientColor=none;html=1;whiteSpace=wrap;fontSize=12;fontStyle=0;container=0;pointerEvents=0;collapsible=0;recursiveResize=0;shape=mxgraph.aws4.group;grIcon=mxgraph.aws4.group_ec2_instance_contents;strokeColor=#D86613;fillColor=none;verticalAlign=top;align=left;spacingLeft=30;fontColor=#D86613;dashed=0;" parent="1" vertex="1">
          <mxGeometry x="-780" y="289" width="184" height="183" as="geometry" />
        </mxCell>
        <mxCell id="yl-EDWdLTb7qI4WnAejd-97" value="" style="group" parent="1" vertex="1" connectable="0">
          <mxGeometry x="-950" y="639" width="70" height="94" as="geometry" />
        </mxCell>
        <mxCell id="yl-EDWdLTb7qI4WnAejd-131" value="Route 53" style="sketch=0;points=[[0,0,0],[0.25,0,0],[0.5,0,0],[0.75,0,0],[1,0,0],[0,1,0],[0.25,1,0],[0.5,1,0],[0.75,1,0],[1,1,0],[0,0.25,0],[0,0.5,0],[0,0.75,0],[1,0.25,0],[1,0.5,0],[1,0.75,0]];outlineConnect=0;fontColor=#232F3E;fillColor=#8C4FFF;strokeColor=#ffffff;dashed=0;verticalLabelPosition=middle;verticalAlign=middle;align=left;html=1;fontSize=12;fontStyle=0;aspect=fixed;shape=mxgraph.aws4.resourceIcon;resIcon=mxgraph.aws4.route_53;labelPosition=right;spacingLeft=4;" parent="1" vertex="1">
          <mxGeometry x="-653" y="-255" width="55" height="55" as="geometry" />
        </mxCell>
        <mxCell id="yl-EDWdLTb7qI4WnAejd-132" value="users" style="sketch=0;outlineConnect=0;gradientColor=none;fontColor=#545B64;strokeColor=none;fillColor=#879196;dashed=0;verticalLabelPosition=top;verticalAlign=bottom;align=center;html=1;fontSize=12;fontStyle=0;aspect=fixed;shape=mxgraph.aws4.illustration_users;pointerEvents=1;labelPosition=center;" parent="1" vertex="1">
          <mxGeometry x="-670" y="-405" width="90" height="90" as="geometry" />
        </mxCell>
        <mxCell id="yl-EDWdLTb7qI4WnAejd-136" value="" style="edgeStyle=orthogonalEdgeStyle;html=1;endArrow=none;elbow=vertical;startArrow=block;startFill=1;strokeColor=#545B64;rounded=0;exitX=0.5;exitY=0;exitDx=0;exitDy=0;exitPerimeter=0;" parent="1" source="yl-EDWdLTb7qI4WnAejd-131" target="yl-EDWdLTb7qI4WnAejd-132" edge="1">
          <mxGeometry width="100" relative="1" as="geometry">
            <mxPoint x="-310" y="-285" as="sourcePoint" />
            <mxPoint x="-550" y="-195" as="targetPoint" />
          </mxGeometry>
        </mxCell>
        <mxCell id="yl-EDWdLTb7qI4WnAejd-137" value="" style="edgeStyle=orthogonalEdgeStyle;html=1;endArrow=none;elbow=vertical;startArrow=block;startFill=1;strokeColor=#545B64;rounded=0;exitX=0.5;exitY=0;exitDx=0;exitDy=0;exitPerimeter=0;entryX=0.5;entryY=1;entryDx=0;entryDy=0;entryPerimeter=0;" parent="1" target="yl-EDWdLTb7qI4WnAejd-131" edge="1" source="DPr1eYjGlx0VMEfDLy8i-9">
          <mxGeometry width="100" relative="1" as="geometry">
            <mxPoint x="-626" y="-80" as="sourcePoint" />
            <mxPoint x="-630" y="-130" as="targetPoint" />
          </mxGeometry>
        </mxCell>
        <mxCell id="yl-EDWdLTb7qI4WnAejd-139" value="Administrator" style="sketch=0;outlineConnect=0;fontColor=#232F3E;gradientColor=none;fillColor=#232F3D;strokeColor=none;dashed=0;verticalLabelPosition=bottom;verticalAlign=top;align=center;html=1;fontSize=12;fontStyle=0;aspect=fixed;pointerEvents=1;shape=mxgraph.aws4.authenticated_user;" parent="1" vertex="1">
          <mxGeometry x="-1041.8" y="912" width="50" height="50" as="geometry" />
        </mxCell>
        <mxCell id="HAtJTmiLCUxBZ5le2n7W-44" style="edgeStyle=orthogonalEdgeStyle;rounded=0;orthogonalLoop=1;jettySize=auto;html=1;exitX=0.5;exitY=0;exitDx=0;exitDy=0;exitPerimeter=0;entryX=0.25;entryY=1;entryDx=0;entryDy=0;" parent="1" source="yl-EDWdLTb7qI4WnAejd-141" target="yl-EDWdLTb7qI4WnAejd-89" edge="1">
          <mxGeometry relative="1" as="geometry" />
        </mxCell>
        <mxCell id="yl-EDWdLTb7qI4WnAejd-141" value="kubectl" style="sketch=0;points=[[0,0,0],[0.25,0,0],[0.5,0,0],[0.75,0,0],[1,0,0],[0,1,0],[0.25,1,0],[0.5,1,0],[0.75,1,0],[1,1,0],[0,0.25,0],[0,0.5,0],[0,0.75,0],[1,0.25,0],[1,0.5,0],[1,0.75,0]];outlineConnect=0;fontColor=#232F3E;fillColor=#ED7100;strokeColor=#ffffff;dashed=0;verticalLabelPosition=bottom;verticalAlign=top;align=center;html=1;fontSize=12;fontStyle=0;aspect=fixed;shape=mxgraph.aws4.resourceIcon;resIcon=mxgraph.aws4.eks_distro;" parent="1" vertex="1">
          <mxGeometry x="-914" y="910.5" width="53" height="53" as="geometry" />
        </mxCell>
        <mxCell id="yl-EDWdLTb7qI4WnAejd-142" value="Controll" style="edgeStyle=orthogonalEdgeStyle;html=1;endArrow=block;elbow=vertical;startArrow=none;endFill=1;strokeColor=#000000;rounded=0;entryX=0;entryY=0.5;entryDx=0;entryDy=0;entryPerimeter=0;labelPosition=center;verticalLabelPosition=top;align=center;verticalAlign=bottom;" parent="1" source="yl-EDWdLTb7qI4WnAejd-139" target="yl-EDWdLTb7qI4WnAejd-141" edge="1">
          <mxGeometry width="100" relative="1" as="geometry">
            <mxPoint x="-900" y="865" as="sourcePoint" />
            <mxPoint x="-800" y="865" as="targetPoint" />
          </mxGeometry>
        </mxCell>
        <mxCell id="yl-EDWdLTb7qI4WnAejd-144" value="" style="sketch=0;outlineConnect=0;fillColor=#000000;strokeColor=#000000;dashed=0;verticalLabelPosition=bottom;verticalAlign=top;align=center;html=1;fontSize=12;fontStyle=0;aspect=fixed;pointerEvents=1;shape=mxgraph.aws4.source_code;fontColor=#ffffff;" parent="1" vertex="1">
          <mxGeometry x="-340" y="966" width="23.49" height="32.14" as="geometry" />
        </mxCell>
        <mxCell id="yl-EDWdLTb7qI4WnAejd-148" value="" style="shape=image;verticalLabelPosition=bottom;labelBackgroundColor=default;verticalAlign=top;aspect=fixed;imageAspect=0;image=data:image/png,iVBORw0KGgoAAAANSUhEUgAAArsAAAFlCAYAAADrvyBAAAAAAXNSR0IArs4c6QAAIABJREFUeF7s3QeYVsXZN/D/zJzytO2dXhRBBUREpSgKKBITVCTG/hqNGmNLYqom0USjppnEmF5MjMbeRcXeC01BRQSkl91l+z7tlJn5rjmr+RKj8iwgLsv9XBfhfcN5zpn5ncP7/ne4zz0M9CEBEiABEiABEiABEiCBXirAeum8aFokQAIkQAIkQAIkQAIkAAq79BCQAAmQAAmQAAmQAAn0WgEKu7321tLESIAESIAESIAESIAEKOzSM0ACJEACJEACJEACJNBrBSjs9tpbSxMjARIgARIgARIgARKgsEvPAAmQAAmQAAmQAAmQQK8VoLDba28tTYwESIAESIAESIAESIDCLj0DJEACJEACJEACJEACvVaAwm6vvbU0MRIgARIgARIgARIgAQq79AyQAAmQAAmQAAmQAAn0WgEKu7321tLESIAESIAESIAESIAEKOzSM0ACJEACJEACJEACJNBrBSjs9tpbSxMjARIgARIgARIgARKgsEvPAAmQAAmQAAmQAAmQQK8VoLDba28tTYwESIAESIAESIAESIDCLj0DJEACJEACJEACJEACvVaAwm6vvbU0MRIgARIgARIgARIgAQq79AyQAAmQAAmQAAmQAAn0WgEKu7321tLESIAESIAESIAESIAEKOzSM0ACJEACJEACJEACJNBrBSjs9tpbSxMjARIgARIgARIgARKgsEvPAAmQAAmQAAmQAAmQQK8VoLDba28tTYwESIAESIAESIAESIDCLj0DJEACJEACJEACJEACvVaAwm6vvbU0MRIgARIgARIgARIgAQq79AyQQC8R0FqzFqCoqROOFnC0D8cP4WZ9JJUFlzHkBUPGtuDFHPgsAb8MyNcyluklBDQNEiABEiABEvgfAQq79FCQwC4qYMLtmxlUb+zAsE2bsG9jU35MJp/rk8uFJTk/LMoHMuEHMhEqZQVSWgBCIXjourGsG3NM6O1MumiuKHbW9q8uXtinAm/3SWHNsCK0MsbkLspCwyYBEiABEiCB/xKgsEsPBAnsQgJaa+ulNuy7eB0OWFOPA9c2+gc0dXqD29o6StP5AGAcwopBcwGlOaTW0IyDMRb94tBds2UKTIfgLITNQsQsC6Vxq7lPaWz1oKqihXvV4tWaUsw/rD/epuC7Cz0gNFQSIAESIAFa2aVngAR2RYH1WpfPX4EJ899pOX3Jmo4pDRlRkecpZH0GxR2AWwATABeQGlDvZVr1gR9nBdAVd5WChgLX6r3gCwgpYSNEEQtQ4ngo45mmUYNLHz9gePUt+4zAi4MZa9sV7WjMJEACJEACu7cArezu3vefZt/DBRa26z0WrcBnXl3afsryzekDm3IMHmxoKw7uOO+t3JpJcEgVZVgoMDBhQfCuyZngq6L/kBAM4BzRn5mVXq1M/DXf0dBmFVi/dxzCKPjGZA7lsQAj6hLPjxte/q9xe+CxUaVsVQ9no+GRAAmQAAmQwL8FKOzSw0ACPVDg+QY9ZMkanPnUgo2nbG7ng5pzFqRTAuY4CDQgIaG5BtNBNHrGBBhE9LvqWriFya3s33/Dzf9i1nQVuIm2WkJrBgsWoDk0Y5AM0e/a/G7OaSJ0oJFgIdywDUWqHUNrxPoJ+9TdNGHv2B9GV7ANPZCOhkQCJEACJEAC/yVAYZceCBLoQQILtLZXrcVnH3gxfdkb67JjszIOrd0oxHIhokAaQCPkeWimYXERhVqtGJhi4NwC1yz670zgjRIrA0w5gwmxiikovPfumZZICQss7Do2jL4vTNlvFJgDpeE4DNqka99D0goRUxk4SGOfoTUvzBifumb2IPZwD+KjoZAACZAACZDA/whQ2KWHggR6iMBb7XqPB+bnvvb0ksZTVueSJVmrLAq5JnkKaQoVzEfBVB6EIkSoTc0th2Cm0QKgQwkmTQDmUQg2ZQpSdq38RhW6TAHc1DGYl9ZMqNUIsnnYwoJlxWBeXwuj4KvAOI/KgHN+CMcxAdqcP4SDAFAe4kKjNu43Hblvzd+Pn4QbhsTZ2h7CSMMgARIgARIgAVrZpWeABHqawD1v688+/mrmJwvXZPZuQxx+3IIHDeYkEPqAJQHXQlRz64cBAmbBEgwqACzelWFN7QGTAQQCMJWHVgEsk22j5V3zMXGZQUUrvyw6h4rF4JklXwBCmFII1lUCYXIxByzbhFxAyjxYtJJsRwFchxpCZlBpdWJErVhw3CE1l39uKK3y9rTnisZDAiRAAiTQ9Y+c9CEBEviUBN7SOvXKovC8B1/ccunyelEauNVQMSCEDyUU0qZ8IFESrayGGQnIAImYAyY4lK9g+bko3NpcIuYyv7zI3lJWbG9KxFnOFTrrcJa1mM5xLnyuhKMClggClcgHOpHTPLE54/dvyuZLO7IZJ4QARAyKu1Bwo5VeE3yl8sFFCMuyopAMZUclEcKMyWtFMU9jcMLPHT956KXT98ef+jCW/ZQ46bIkQAIkQAIk8D8CFHbpoSCBT0ngHa373v08vv34gobzVrcIyymuhK+AIJBwbVOZ64PHLOQDH0pyOCyGmHIAaZZa04irVgyvFBvrSsTK/n0rF/Xv586rqcLSijI0CiAjAH8PIPzPPrlaa7EGsFUrXM9FoqEZfTe0YeSq+tzYtY2dYza05/bckhVVnUEMAUsi1BYs14YQJmcH8L0QQtjgzIIvNVLFDJn2VhQhj76u7x0zbuBPjp6MX+zJWMenxEqXJQESIAESIIH/EqCwSw8ECXwKAs+36AGPvBL+au6CTce1oxy+lYI0gRKAYwGO2e7My0CbYgYt4Vgu4pYAz+QRRy4YMaR80bhhiYfHDsbDJcA7w6tY5/ZO412tS5Y3Yu+lazHjteXNx66qT+/bIeMsG5pga4FZMViWE9X/di3tAjkVRuUOtpQoUjn0s3KYNqr69184SFw2sJS1bu+Y6PskQAIkQAIksL0CFHa3V5C+TwLdFHilUe9573z9u4fmr57mW2Ww4iXIeD48xeGmHAQhkM8ppFwO12z0EHpwwgCVCb951B6puRNHx+/cayheHslYQzcvXfDhi7boPhuzGPvYvIZTVzRgxuomFIVWCaxEDDlPwfPTcOMOfFPQywUcHoff2YES5FDn5jB2SGzu6Z+r/dLoBLUnKxidDiQBEiABEvhEBCjsfiKsdFIS+HCBt1v1oL8+uvmOOW+lx8nigQhCFrUFMy9/SSHgK4EQXS+dJTSQyLWjhOUxZkj1k0cewi4/ZiB7cWfaaq35vRtwyNzncz96bWXLoRmWRGDH4Jl+vTEnaoWWz3tweQwuF0DgQWWbURUPsP+g+IsXnFg9ex/G6nfmmOlaJEACJEACJPCfAhR26XkggZ0ksDSj625+ovP6J99omt3Mq+DzVFSuIKWCtjg8HUIKBmExiHyIIpnGXkVq87QxlX8+fH/8fp/Upxca30rr2leW4Iy5i5sueqfJr+uwipG3EghMWzQolJmcm8tCCRfCdZHP+ijlbZg9vuKPJx4uvjmcbX+ZxU66TXQZEiABEiCBXiZAYbeX3VCaTs8U2KR14q7nvOtuf7n+3GZeg4yMde105vlIJp2oVjcXBnBcQHvtqGQKBw4pf3LWROsn0/uyx3vKrObW64PmvBh+4+V3Ns9OW2XI2amundrSbYi7Mfgshg4PsGOAK4EB1mZ96tS6b39pP/ySMbN9BX1IgARIgARIYOcKUNjdud50td1U4G/z9ddufm71T5enS6wwVh617XJE15a+Gd+DcB04po9tthPVvANT9in513GHF39/XClb1dPI3u7QFU8uwA/veGLx+RvEQIjSUvi5XLSJhbBiyPmmDgOwAcRyHdijPJM+9ci6r5y0N/tnT5sLjYcESIAESKD3C1DY7f33mGb4KQvcvUzPvvGJtX9+s8kqVSV94QUAD4G4DSgNSCajGl3Z0YiBcZk/9uB+1x+xH64d1YO7GdTX6+T9b+Ly2+dv/ua6XAwsadqU2ZAhg2WZ9mmAbeqOXSC7ZR3GDgjrzz1uyAnT+rDnP+XbQZcnARIgARLYzQQo7O5mN5ymu3MFHtusJ//m9hV3LE8nqv14LTK+QCwGwOvaftds1CCkBzvsxOCysPXYCbVXnT0Wv2LM7O3bsz8rtHafeRVfu+OZNVes84tdnSxHJufD4hbi721IETDAFT7iYTtG9uNvnX90xayDqtjynj0zGh0JkAAJkEBvEqCw25vuJs2lRwks0brsL/d03PH4m43T0nYtRDKFznYPru0g6TLksyHitoXslrUY1S/WfuLUmgtPH7nr/VP/jYv0l296esP1a9KWjXgpwpDDZTaU0vBkGNUkc1/ByW3AaVMH3HD4ofj6AYwFPepm0WBIgARIgAR6rQCF3V57a2lin7bAX9/QZ/3+wXf/ko/Xoc3j0NyFpTSCIEA87kJL8zJaFoNLQ3ny5OJLvjSa/frTHvO2Xv/XLwbfemDemh9vUpVWh0ohUAxMcyQ4gzaNgzVDSmQxIJluP+uzdacfP4Q9sK3Xou+RAAmQAAmQQHcEKOx2R4uOJYECBZ7v0MP+eF/7nYs2haPapQsrloLnh7DB4Toc2UwWJWbTiKANxxxUe8MZ0/DNwYzlCzz9vw8zfXAbgHgAuDbg1QD5/9weuLvn29bj39LaeeDpzM9uf2XzRU2sEsothZQAlxIxLqIX8hBk4OhOHDo8+ey3ZxedOJj6724rN32PBEiABEigGwIUdruBRYeSQCECJoBe+Tyuue/lLd/KoQQdgYISAsK1EfqmhhWAn0GZbsNR+9Y8MGuade6B3eyhu1jrfi8sxMwlK7cc7SNRk80KR8kw6Fee2jh2L9w9qh8e2NkvuK3Quur6B9v/9PQbrcemdQ10PA5PAyoMkFIhhNbwOUOFaMFZh9Z94/yDxS8K8aRjSIAESIAESGB7BCjsbo8efZcEPkTghU36gJ/NaXzojXq7RrIErJiLXBiCWRb8ACgyPbk6N2PC4PjSM6eVnjylH1tcKKTW2rrzHRz78Cv131mxxRvbKWNIe2ZbhyQsLsCDTpTZGX3Q8ORzk0ZV/HrcMDyyLSvGhY7ng8c92ab3/+XNq+/cmK4c0hQm4TkclgAS0ovKGcJYElauCRP6Yu150yuPmtCHLdvWa9H3SIAESIAESKAQAQq7hSjRMSTQDYHrnm399V+e3HhRLj4YvrTgJh34vobWGoxxxGQWdaJenX7EkAvO3p/9vtBTv9uiSx58I/zOEwvWXbCmRaaQqADcImR9BWgbtsOhoRD6bYhbaVQngtzBe5bfN3VU2e93ZsuvGxbor9/62IZfNMpy5JxEtP1xHAGYKVK2bKhsOyqQxqmHDrjma4exSwudPx1HAiRAAiRAAtsiQGF3W9ToOyTwEQKv5fWe1/5j9aPzN6khrHQQvFBAScAxfXRDiZgFOPnN+Myo0sfOOSb1+T0Z6ygE82mtrbfm4/J7nlr1vfqMA7e0DulQI+crCMcBM/16pYZmCpbNoFQW8FpRafnYs8JdP22ffrdMGIa/7lPNVhZyve055i2ty3/zr5Y7560OpmScGrR5ZgMNH47LEXg+bLP5hC+xXy3beNns5MGjK9iG7bkefZcESIAESIAEPk6Awi49HySwAwX+9Jq++IYHV/wq7VYjx5Ng3IrqdJPcvKwVgoetGF4ZbLngqD6zpw9hzxV66bvX6KP/PGfDLes64yV5XQTNbOSDADpmA5yBK0S/IDUENByLRwHbz3twdQgRdGJ4v/gbxx5e8usD9sCdhYbsQsf3weMeW68n//r21Q+sztcWZ604pAphOxqB78G2YpDSQlHYgq99tvyLZ41hf9/W69D3SIAESIAESGBrAhR2tyZEf04CBQqs1brs8luyjzy7KnsQisvQmVMQ3IYtABEACfiw82tx4rSh1156iPhugac15Q/2D57CTbc89+6JKjkAmdACzEtfxQ5y0YouIJRCDByW+Rstu3YwCyQAhmhHM8cGmJdBOavH+L2KHvvsQdVXTRvwye1mprVm185N//KWl9ovNrvGpb18tOoshIDSNvKKIyFzOGoYnr3k8/GZn3T4LtSajiMBEiABEuh9AhR2e989pRl9SgIPvqOPveaB+ns3qSpoWyBvilV1V/cF7gPF6MTQsuZNX/38oGmTK9nbhQ5zSYMectVD9Y8sbHKGhXY5zAIuDzUkNHKSwXYY4lIBgR8FXW65MKlXCkTHhhJgEkjYgKMyUOnN6Ffu5CaO7PPHKQdafz60iC0tdCzdOe7VLfqAH/6rce6qTHF5HhKSMTA7hkAzSM2QZCEGOE3q3Bm1R508jD3enXPTsSRAAiRAAiRQqACF3UKl6DgS+BgBrbVz1SNtf7tlXuaUdLwvQhWCm62AzUJrHohbQLFqwGfG2P+4akb5FxkzVbaFfeZt1uOuuK/+4RW58srWDODEHLhSQ+kQyrahlUI8yMKJsrWFnLbgcQuSR1k7Wtk1JQ4y7Gr/5XANByFish3D6/jqySNrfjt5H/xr7yTbXNiICjtqtdax3z4ob3lwQcMsFS+CdOPI+QyKi64xBTkkghacPLHvH39wGC5ijPmFnZmOIgESIAESIIHCBSjsFm5FR5LARwrMb9NDfnn3xkcWbnaHpa1KcA4wZZrMsmhlV4cBqqz6/Dc/3//0WUPYnd2hfHadPvTK++ofWtlZWhRasSi4WhoQWkHxEMrLoE9ZLKdlYLV0eLaMl8ATTtTjVodAzAFYCChlygg4lKnvDTViQsIKW1Fs5TBqcNnzU8cV/WrwEDy4I7fyvX25Pun6u9b9o14lbN8tg68FGANs5cGBhCM0hhdnlv/itOojh8TZ2u640LEkQAIkQAIkUIgAhd1ClOgYEtiKwH3r9Wd+/+Cm21e2xVM+K4GwOBAqWJqDmXYMSGP8nvYrF81MfOGAOFvXHdCn1uvJV9/T9NDKdHFKia7OC2ZHMrNKq5WHEjfEEeNSN1SW4pXFS71L3li9aUxTEIdIVSAMFCzLrPmalV2TckUUxLkpsVASnIdwWAARplHp5HLjR1TcfdRBxb87rIa93J0xftSxrzfpvr98YMujr2zW+3ZaFdBcwDZhV3pgkFCaY2Ainb9qduX0iX0Kf2FvR4yNzkECJEACJLB7CFDY3T3uM83yExa4fpH+3o2Pb7iyXRUjRByWEIBUcLQFFWTgWp046Yjaqy49kH2/u0N5L+w+uDJdXKSFDQ0WBV7zl9eUScT8BpxzZM23Lx7Pfro4q/s9tTB34dNvNZ/1TmNYAbcGvo5F3zFZV5oaYlO7y8w7bjmEptDBdHPgFoQMEQ+zGFIuGqaNLr3+yDH4+/Ak29Td8X7w+J885v/6lkWtFzXq8qi0w9GAFQQwXYFzjKPaasE3jqr+4kmjqCvD9lrT90mABEiABP5XgMIuPRUksJ0CZnvgbz6KO+9fUD9LOaXRC1iCcTCpIJQFF1mUuG3+l4/v//nThrAHunu5/w67HJqZYlwWhV3l6Sgsnn9E5eVnHsh+ZM5tOiE8vBmHPPVa+msLlzZPa807KY8lEdop5DQ334rakYXSh4gl4cmuzS4EA1gA2GEafZMKg8r9edMOqPzFqH0xZzRjme6O+/3j735dn/bzp5puXJcrFdy2gACwQh+2bcNjDEWqEacfXPLrb05xv84YM+/U0YcESIAESIAEdpgAhd0dRkkn2l0FVmtd+4Nb/MeeW5EdyZPFCEw/XSZhmRXYkCOp0xhakW06//h+U6fVsCXddYpqdu9tfGh5prgIFocyeVBzCMVRLCzw1rU4e3rf718w2b7qP8+9WuvS15fi2KdeXfGV+Wtz4zJuHXKxSmR8U0Yg4TgW2nJAzAViAgjDEEGQAzgghAnpPqpd7R+8Z+n9U/fBb2cMwguMmb4O3fu8tF4feNVDbXPeanYrLScetUozS8zMYtELdLGwCUcM40+e+fny2WMYa+ve2eloEiABEiABEvh4AQq79ISQwHYKzG/SB/7w1raH32yOVyDhwlMSFvMhzAqvWdn1GzF1hPPC2SdUzhzFWGt3L/fiOn3o5fc2zVmeLk3BVlE7MfMxYVf4GqWqHufN6P+9sw9iP/6wc7/TpPs+s0Kd8cjCtee82YgBMl4Fx4kjnVOwEzZ833RGCOBYGsJiCDmHB9FVGxwoJLxWDC8Nm6eMrLx18lhx3ehStro7c1jZqauvuC/9+Asr/VGxRBn8qFoXCM35FRAPmzCqKrvp4hMGHDmpgr3VnXPTsSRAAiRAAiSwNQEKu1sToj8nga0IzF2uP3vNXZsfXBfUwY8DgdnIAT4s0/2AOXAzG/HFyX1+/83DxfndaTn2/mVfXKUPveL+1jnvZMpSzDJbAv9317KiYD3On1532VfGuVd/3FBfbNT7Pbw4+Ppjr284uaHTErHSvsjkAziOaxZzEfoSXGlwYUVB1PN9WI4Ni0skdCdK0ILRfZ1Fx03q/7Xu7P5myiq+85C+8/55DccjXoY8s+E5DFJKuCFDke5Av1hr/vzZQ2YeM5D67dJfOBIgARIggR0rQGF3x3rS2XZDgTvfDE//xd0b/tFsDUTaMo1tTeGsWdlVsFQMxd4mfGNmn/NO34/9YVt4XlinD/nh3e0Pv5MpSUXnjl436+qhq7hGqdyI8w+r+d55490PXdn9z2ua+uJb1uKYJ+flvvX6u/UH5xFHHjbM/m6Mx6NDTbsyk6e5hWhjinxgtvq14ARtiGcacNDQorUnTu5z2rQhhe/Adt2L+nu3PlV/ZYaXogMCKi5MbTFsX6FE+ChlTfrcmQOPP3Uvdu+2GNF3SIAESIAESOCjBCjs0rNBAtsp8Pf58mu/e2zDdVtYHUJhIy8BN6ahpQRTFvqiGVccXzFrxh7bFuSeWacPueqe1oeXZ4pTyjIvqAGW6gqkpqihXNbjK5Mrvn/OIfH/qtn9uGkt2qL7LFyP0x98afk59fnE4FY/BZ8XQ3FuOpJFvXxNQ4nQrPS6DF4AOFqhWAdIyS3Yt696+aITB5wwOsE2FMJ3yzJ9yi9vffdmP9kXzT6HiFnRym7cdJfIt6HEyeD84/qeetae7JZCzkfHkAAJkAAJkEChAhR2C5Wi40jgIwRueC539d9eaPhuC6+DZk5XLaqjo00clC8wyGkLrp5VevRhQ7btn+ijsHtvy5zl6eIiaZuCAxN2u9qPKWiUywacd1jFD86d5F7Z3Zs0P6PHPPKy/MoTi9bNasg65UGyEoF2u7Yd5oDSEhAcvjQL1gyuAhyvHX1K0jh1St+vn7kf+2Uh17xjpT7qF7cufyTj9EFbaEe9f5UKu1q0+R0osn186TPV5104cttWvwsZAx1DAiRAAiSwewpQ2N097zvNegcJmHrUnz7a8oebF6bP6bT7QioRNb/VXEb/TK8CC3slOtLXnFg8bXwte3VbLvvRYZdF9cFlqh7nTin/wYUHdz/smvFs0jqxZAUOf+i19q+8tLp1eotKCdjlkIyD68C0TojmwpgFFthRP94YmjB1WOzxr51QesLgAjoozKnXB13z93dfaVblyLBU1NfXBHWmFbjKIcWyOH1KzXe+eRD7ybYY0XdIgARIgARI4KMEKOzSs0EC2yGgtbYvu2vzv+57R81Ou32hTJ9aG8grH4yxKBzuU5Zv/ukXYpP328ZOAx8Vdk09g8eBEl2P8w8rvfyig+NRn91t/SzQOvHy6zjjiUXN33p7kxqYZ3Fwx45KJcAUmFnblS4sE+b9Toyuzm+6+vNVk4YX0J3hqQ6919U3bnhzfWfMylul0XYYpuZYQ8FBHjHZgRPH113z/Sns0m0dP32PBEiABEiABD5MgMIuPRcksB0CK7R2/3DbuocfWOlMycdqoXwF1+HIy66wy5WNURX+xp9/3pk0ooyt2ZZLfVTYNWExaymUqU24eFLF5RdMSG5X2H1/bM826RGPzMPlT7+Z+UJDYCMnbDAegkOBSxH1580FIUYUt7f+/AsVk/avYEu3Nq9Xc3rwFTdunLeq1a6Mwq5yon6+ptTD4T4crxVfGF/3myuOYBdt7Vz05yRAAiRAAiTQHQEKu93RomNJ4AMC67WO//q2jY/cs8KenE9Ug3ldYTeQAXhU9Mqxb7m34aezYxP3KWfrtgXwI8Mu08iLAGVqM756SPUV541P/nBbzv/B7yzQ2p6/GGfe+XR43do0Ejmz65ll9icOo75qQgjkgjz2Le1M/+bE6okjy7e+UcbLOT3oR3/b+MrKdlHji3Jo7UTtJEw3CRce7NwWnDy5/w0/OJxduCPmQOcgARIgARIggfcFKOzSs0AC2yEQlTHct+W2298Ss3KxcghTxmAyrqlzZYCWDHuX5pquPiE5uZAV0A8bynth9+Hl6eLUf7+gpiF5gFK1GRccWnvFuRPj2x12X2vXez66EGe/8Eb6ovVtlusJB6HgkHaIEAwqFOBMQ4fNOKDWb7x6dp+J+5SwlVsjfLpDD7/ybysXr88mHBN2GYvBNy3OLHSVMWS24Iwj+l/z7UlUxrA1S/pzEiABEiCB7glQ2O2eFx1NAv8lYF5Qu2pO+x//uUSenXG7wi5HGNWjmo9SwPDibPrq44unjqtj87aF76PCrtAaWsuuHdQOq7v8nEn2NpcxLM3pgU/O77zguTc3nbCxzRqQURXIywS02Z6YM3hMQTIBpjhsFiImG3DwQL34B8f2mz4kxRq2Nq9Hm/SBV/5t2asNshgBLwdDLGpnxm3A1Tkkcg04e8agSy8+mF2ztXPRn5MACZAACZBAdwQo7HZHi44lgQ8RuP754No/vND57WaUIS7MW1cSSkpwIaKwO9BtCa6YWXXU1D3YU9sC+JFhVwE2Y0j4G3HO1JofnDfJ7nbrsUatU48sxrFzlzR/Z1lDsE9zDmAigbgVg1IakgEBBKRtwfOAYgYkVQ6OtxZnzBh+1QXj2fcLmdPt6/T06/61/NFmlCCnU3BE8t8ru3aQQRVacNaR/S84dxz7bSHno2NIgARIgARIoFABCrvGt/1KAAAgAElEQVSFStFxJPARAn96VX79hiebf9EsqmCb0gUVQputgk3Y1Qx1ognf+1z1MZ8dzh7YFsSPC7smTJfITTjvyJrvf3m8XfCmEmZF+qUtOOTeJ9dfvLQ+mLkyXWRl3QoowaP+vXYYQvoeuGtHYTdkAi4DEnmNRH4T9huIdV8+pu/Mg2rY4kLmdONKfeJv71p9aysrgqdTEDBhOippRhJZVOl6nHXUkDPOHMP+Ucj56BgSIAESIAESKFSAwm6hUnQcCXyEwG2L9ek/m7PxH82iD5Rg0KEE1woCLOpVW6a34JIZNWeeth+7cVsQP7pmF1AMKGcNOP+w8u+dfdDWtws211/Sokc+/ibOnLuo/vSW0ClvygI+YrDdRHQ+bbYK5l2/TMeEtNkSjgkUOUC8M4tBsXZ1xpS6c04Yx/5a6Hx+OU9/4x9Prf9ZJy9CXsfBpRt91ZR7FIs0arFJnzNz2OwTR7B7Cj0nHUcCJEACJEAChQhQ2C1EiY4hgY8ReHiV/tyP71j7wGbUIBAulNSwTfMCLaOwW6ya8cUJ1T+55HD2nW2BfC/sPrI8XZz84A5qIQdK1QZcOKXqsnMPil/9cedfmtF1C97GyU+/1vKlJY3B8FYdR2gnoLgFx/xfAgUEgYY0XRIYizbHkEoiGROwICEyLehrhZkZY6puOGW69aM+jGULnc+3H9a3zFm0+eS0nULA42CBBYuZHdrMym4rBtmbvYtP3PvYo/qzRws9Jx1HAiRAAiRAAoUIUNgtRImOIYGPEXhlkx575V3rH1/WUVTmOcWQ4IhrU7obRB0MitCGI/eIz73k88nj+jOW6y7ms+v0oVfe22K6MfxP2NVMI+mtxcVH9r3s3PHuh4bdp7W22ldjxpMLcOnCd5oPbpU2vEQMAWOQQQDHssG1DSlV1C6NC0RbHpvQCynh6FaUoQXjBpY9csLkqp8c3g8vMmb6kBX2eVfrkqtuyT7+8urcuIypBbZc8NCCxbtWkWNeI0ZVtjVccvKw6QeVFVYWUdiV6SgSIAESIAESACjs0lNAAtspsLJTV197X/vjz672RmXdMkhuI6EAhAECwZHQHdivJLfp4lP6TJ5QQJuuDw7n48Ku2XK3wnRjmFp76TkHi//pZPBKix716Dz/288sbj2hMRe3lFUMTwAeVwh1gBQXsJgFT2qEUsJ2LFO5AO0rCJlFRTyP2mR+7cxJ/X42cSRuGs5YZ3e5XqzX+/7irtY5b7c7AzoFgxQx2JJH1+EMcLKbMW1v9tyFM2qP36uYNXX3/HQ8CZAACZAACXycAIVdej5IYDsFtNb8B4/jzrtfrZ/V4VYigIW4VBBaIbQEnLAdg0Rz/oLjhs48Zhh7vLuX++iwyxCEGjViC84/rPK7Z00Q175/7nnNuv+StTj5/pc2fm19J69pC+LQdhKWZlH/XyUkGBOQWQUuHASmZMEyP/0qsHwrKlmAwcVhy/g93JtmTqn63d4xtqK7437/+LsW6+P/OLfx5vVhWayDS2jhwNUcOkRUyhAP6nHqIRW//fZh9sWMMbmt16HvkQAJkAAJkMCHCVDYpeeCBHaAwG9e0d+/8Yn6HzU7NcgphpiWsJmCsmywfAcqVSvOPnrgZWePZR9bV/thQzFh96p76+esSJemAjsWvdVlaQ3TZ1dwjlhuM86ZWvfdCw9h1y7TumjZEhz3+OttFy1a2z62XRQjK0zQjXWd2vfAmAYTFmTI4JrCXPNfm//gedi6HeV2Jpy4Z/WcI8ekfjWjP3tme3l+82zumn8+3/qdJlGDNJPglkBCcUjPtE4DylgDzvtszdlnjmZ/2d5r0fdJgARIgARI4IMCFHbpmSCBHSBwz7v6szfc23TnmrAyljYvpykPqRhHqADLtCHLZTF1WOqJS0+yv9CfsZbuXPLZTfrQK29bNmdFZ1VKFFUglwdiFiBUHshnUeYqHD2x8roRg/DYksW44JUlGz7TImO8Q7tQ8SR8LaERwDb1uKZDhGYIlA0GBksiejmNBa1IsWaMGhx7bfq4ftdN3AtzBjLW2p1xftixb6V17S/vWHPPy1uKx7da5fC0glm7LQeHygKWDfRLtHR++7jymUcM3v5gvb3jpe+TAAmQAAn0PgEKu73vntKMPgWBVzv0sJ/c1DD3jfbqQWnBYAkJ6JyJk1A+kGAOhsTbO75zbNnsw4Z0r5ThiU36kOvuXzNnRVtFkaeLoAWgpAdX+HDNKq+UKCspaXEsxhq2dJalvRBWqgRScHhSgQkTa0NAhWCaA8yGAocZohVkUYQMhtZa9RNHl/1l/F746/gytmZHEd69Qs/804Pv3rI8X57KOqXRJhUOGBJ5RLvNCeQxqm+w6psnFE0fuw31zDtqnHQeEiABEiCB3itAYbf33lua2U4U2KR14rr7Ou68b4n/GT9RCZsH8PJZcCsJLRlSTCCR2YRTDim5/uvTUxd3Z2jPbNbjrrq78ZFVmeoKs6rLXdMaLAvLCqF8DkvEo+4JQShhCQ7XEtEubjLwYbsxeL6C1BYssxpsXj4ztbLKRwnLola0+GOHlz8w4YDS62b0Yy93Z1xbO1ZrbV3xsPzz/Ys2ntFhlcO34wi0gsNMaQcQRwhXNmHmgbW3nXsUztyWThVbGwP9OQmQAAmQAAlQ2KVngAR2kMAtS/VpP79v3U2tvBoW11EA1SwGbnrW5oFU2IaxfbxV3zy95vB94mxdoZdd0qaHXHpb86NvtxbtKeFE9bUiHiII84C2wZhr1m2jDRrsqLwB4L4X/R6aPxAOmM2ioKvyeTiqA32LgMGlcv6MsXW/2asW94yuZZlCx1PocUua9PAf3t746FstYqDvFkEKG36Qjbo/CLiIqSxqrMb8l48bdPJJe7B7Cz0vHUcCJEACJEAC3RGgsNsdLTqWBD5GwNSnXnVvy3PzVuX35E4JtB1H3tewbYEgBxRziTKxBSdPrT3//APZ7wrFNCuklz2Gf94/r/7EnFUN6XAE2gRZD3HXhu/7UYcDZupgfR9CA3FmgTEOZgGeH+0XAYd5KMIWDC7Nrz98ZOVfJ4ws/ee4Uraq0HF097g/Pae/+5en1lzdHq9DRjFw24IIPEBzMNuF7Tdi4iC15OKTa48YzVhjd89Px5MACZAACZBAIQIUdgtRomNIoECB38zXV/zlwRWXZ51a+FYKUikwS4Cb1VbzMphswsg6terimdWzDqkpfAOFhzbqmb+6dcXNK1pjRVZJf3R6HpyYCwmFMAyj0CsYQ5D3YQsHppIhl9FgWkcvs7m6ExVuNjt+eOrOIw8u+s2UKrawwClt02HPNehRv72z4eE3m1XfIFmFdk/CsizEjQMUfLMzm9qEL08f8N0LD7T/3TJtmy5GXyIBEiABEiCBjxGgsEuPBwnsQIEXW/V+v/rn+sffaCuu7BQlEEJHW+9qC9ABYMs0KnkLjtuv9h+XHeWcyRgzi65b/SzQ2n766ZafP7Kg46IGrxRZ7UAlEjDbsZlSBVPIYDGJQEowOwZucUgfSOk8iv1GHNhXzJ85qe/lI4bh6cHMVMx+cp8FWifuegQ3z3l1/XEqXowMc5A3S8zaRkwCLgOCXBP2rgu2fPekuvETS9m7n9xo6MwkQAIkQAK7uwCF3d39CaD571CB6KWsu5tvfODt4NRWqwaas6jkIDCls2bThjCDMqRRJ9vDr58wbPbRe7L7Cx3A21pX3HJ/yw1PL244wXcqeauMIaqFVaZON4AjtKkQgO/nobVEkaMwqFiumz62+vrpY/H3EYw1F3qt7TnunpX6xF/ctf6f9UGJJWIOOjwv6g4R+IDlASU2YOfW4nMH1/z1yqNiX+7O1sPbMy76LgmQAAmQwO4pQGF397zvNOtPUODJlXrGj+9Zc9/6oNIJRAoei8pUoxfIuMoiyXykMhlM2KPspfM+lzh9ZDdWNt/p0JXPvJk975kljee/2yBrfFaOrLLAuIjCtPTSsNGBvWrd1pFDSm49+sDiv4wrY699gtP9r1O/0q73/P0DzbctXBvun+GlkBxQZpWZWZCSwQaQ8hX2iq9p/NpJQ44/vA97YWeNja5DAiRAAiSwewpQ2N097zvN+hMUeEtr584n5W/vn7f5S22oQ14ICNMNzJQcqCwSnCHuMRSFWzDz4PK/TT8yeeEBjGULHZLWmj22AQcuXY0T3ly55XNtWVWXzQeu69j56rLk+mH9Uw+NHYwHDxuAl3fm9rsrOnXV9Y91/Py1DcHp9R02lFOMwGxoITh8s7mGYBAhUJxvwtmTS39y8WHWpYWWcRRqQ8eRAAmQAAmQwAcFKOzSM0ECn4DAC1v0Ab+8c909b7WU98/wFJjZVc0CAiuACnykWBIs3YRat12eevTQ7547hv2su8MwdbyuhwHZPMpkBo4D5CsSaBm8AzeFKHRMWmtx7ZPBT+5f2HhJU1AMxuOQENGKtgSQVSxqi5YK8zigNlz6ndmpWaOL2TuFnp+OIwESIAESIIFtFaCwu61y9D0S2IrA717wfvyPZ1subUU1NFjUgUClLOQ8H0nmIMlMP9x2VDut3lkzB512ynB2566K+ufX9an/fHTV35tYrUiHbrSxRRgqMOhoZVeaXdy8HPrHO/NfmlF97hl7s5t21bnSuEmABEiABHYtAQq7u9b9otHuQgLLMrrPz+5oePj19Xp0IErQoSyEMTva7lf4AFMKrumO623BnpVo+OLx1bNn7YI1rHe9qz/z5zkbblqfSVVkwySUMJW5XRtcwM9H5QsaHDHZjCP3du4997jyM/ZkrGMXupU0VBIgARIggV1YgMLuLnzzaOg9X+Cet/Wsvz64/Oa16WTci9UgzUXXbmY+oFUIBgtFMcBv2oiRA+Pv/N/nyi84ti97oufPrGuEt6/Qn7v/+Y2/en2jGJITVdBmnzbT4zf0kIhZEDKEymUQC/PYp05sOWd6zawjhtJLabvK/aVxkgAJkEBvEKCw2xvuIs2hxwporfkvn8r8+IElue+syxcjBycKg9yTSMQFFAMy6RzKHAERtGFguVh38rSKb/T0kgZTL7x6Kc68+flNP3q3hVdLuwJtGY2iIgeBAjyVBXgIx4pDpFuxb7HKHH9w7cWnH8T+2mNvFg2MBEiABEigVwpQ2O2Vt5Um1ZMEVmtdesOjwfWPLqw/zeMVYLEEMh0SblwgKyViUdBViAkFP9OMwcV+2xlH9P/+ySPx+53ZTaFQs7e0Tj33Ki6744mll2xUpbaMVyGfU0jEXeTyADOLu/EQftAJISWqrRxOPqD/9y45nP240GvQcSRAAiRAAiSwowQo7O4oSToPCXyMwDKt+/zpvpYbn1pUf2SYHIJOFYOnu/rvxl2z2QTgZzuRiDuwwg5UiA45edSAm2ZPsa8ZE2Mregru0+16jznPZb//0hvtp7eECXgxG1JY0J5pu2BFvX7NlnDKbFNsZ2FlNuLEqcP+ecokXEB1uj3lLtI4SIAESGD3EqCwu3vdb5rtpyjwQrPe57YnWm556vWG0bJoGKQtkA0BrUMwrSBMH1rGIbSCgxBO0Iq9+zqvzzio8mfT9sZ9fbrRi3dHT3OT1olHXvePe2bxlh8u26SGNgcV0LEE8mEGdsyGUA5kCHDTYYIhqtWNqUYctm/pi7MPTpw2uZat3tFjovORAAmQAAmQQCECFHYLUaJjSGAHCdy/UU+89/H6m+cvbxukY1XQsTg8JuCHDE7MgecBYV6hKMERZPJI2HnUFYfB+L3Lbpw6VvxuShlbvIOGUvBpHtug93vudfmNRe+2fn5tq3byPAXpxiGVAlc5xBIJZEIGPwBcsyVyNkQFb8M+tXLpWcfV/N/hVWxBwRejA0mABEiABEhgBwtQ2N3BoHQ6EtiawH2b9CEPP7Hxd6+vat83Y1UgcMqQCUJo7sISpj8tYL+/QgrToqwDMdaCQRXs7Yl797130r7WvRNL8Dpjpvjhk/ms0Nqtb8B+i1aozy1c3jbr7Y1yRBrF8IWLvNkC2HQX0xpFgiHd3gGfuygqcsE8hUS+EYePKF1w/OTYVw6rY/M/mRHSWUmABEiABEigMAEKu4U50VEksEMFXmrXe9z1VMtvH3vLOzLDK2FZFgJptlnj0QtegQcIS0PoAFLlwWyNuJCwwxwqHdl24NC6uRNH2HeN2QNP92OseUcNbnGnrl7ciEkL3/RPXbqm5YimDp7KBg60XQTtCGQ04JuaXMeEcCDFAJnLI+bGYAV5JIIGTNuv+qGTDo1fOOZT2MltRznQeUiABEiABHqPAIXd3nMvaSa7mMBLWd337hfw86dfbz2xMwcwJwUvNH14uWnCCy4UHIshH/gIlQ1mCdhagwedSKpOlPAOvXed++aQ2qIXhw6qfqZ/Dd6MCWwaWYKOQro4aK2tlWmUNebQd00DRi7b0D7pnc35Q9a3yuGteZf5KmHaKiA0b5yZIVmAZIg2xTC/y0DDVRIlZry5DpSiA9NGVd19zNT4hQck2eZd7HbQcEmABEiABHqpAIXdXnpjaVq7hsAiravueCRz7TOL285s8UsR8CRgAYKH8MNOMMYgeAxMx6CkKR0woVOD2XmzATHcIIAIPdhMoazY7RhQXbGorlK8W+Si3RJIJ2ykBdBh2fC1gutLFGU9pHI5VZQLeMWa+syI5rQ/uiWddnJSI+AJhMyFggm6ApwDobmmygMwAwCkBJh24No2mAphBS3oF8uoGWP7XnfSFOfaHbnSvGvcRRolCZAACZBATxagsNuT7w6NbbcQMH1473sF5z/7esf5q5p0XafisGIOQiahJANjNixlRUHXLLKGDAhsBc0UuLRgymdNBwSEAbj0YLEAFkIISLgWA9cqCs1a63//CrVCqB2EVhlyIYeCguU40aqtH5r/jUXdIXzfRzLhgOkQYZCHDQ4LDMrUFZsOEjqNAaV606wJtT87eH/8bh/GTJUDfUiABEiABEigxwhQ2O0xt4IGsrsLPLlRT3jw5dbvvbSybcaWoBQqXhat5irVVR8rTCmB+RtrwitkFGAZs6I/ty3A9zVszqC0hC04Qj8PxjQs80VTZ6tUFHY552DvBWcgFgXbqDyBmSBtQrSpHTaxGlChhiMsWNJsbAwIFoCHeUDnUWzlMHnffndP3k/8ZMYAehFtd39+af4kQAIk0FMFKOz21DtD49otBd5q1+XPrsC5jyxpv2jxmnStm6qFr3gUUhkDmHmBzfzPWkc+nqkxMKutFkMQKNg2j8oMHLsrJAtTXyv/f8jVjEWh1+xmYTIw7zpNtGJs6nLle4HabGPMlEYixuClo51/kRQa3GsCD1swfEj55sljqq6cNga30GYRu+WjSpMmARIggV1GgMLuLnOraKC7k8DDa/XEp95oufT5pVuOSOsy21dxQLvQmkGaX9yKXhgznRtM7jWLsTpUcB2zoqugZQBoCWaKbk2YNeGVW9EvE2jNirH5nm3CrjZh2Kzovhd8zbnfC8D5NFCaMuu/AM9tQb9kZzB2r5L7Jx9Y8bOj6ti83eme0FxJgARIgAR2TQEKu7vmfaNR7wYCy7Quem01Dn9zDWa9+U7TlPWNmf6edKCcODwrFm1GYdKuNNE0lNGKbUzY0Sqw6dPrOBbyQT5qa6ag4QWhqcyFZdtRsA2Crn6+wpQnRJlYQ6swCtRM8qgOWOXzKEsA/Ur56n0Gx56YsBfuGzsQz3yau7ntBreepkgCJEACJLADBSjs7kBMOhUJfBICb2ntdGzAmCUbMG3B6vaZyzZ3HNiQ1/C4iwAOmHBhKmqFsKMX2kzY7SphYAhlEHVUMIUK0tQ3gEfH2UxEq71mxzYuul5wY9oHC/NwmY9irlBs+eHowWULh9a6D40eYs05tA/e+CQ3svgk7OicJEACJEACJEBhl54BEtiFBF5J65pV9Rj/znpMXt+SPmB9Q8eItpyuSOckQpaAr1xY8SIEDMj6Gq7LTJUCbAG4UfeGEEEuHa0EC8ZhOXb0spuFAHFLoTxpbx5UXbxsWJ09r18ZnttrABaOTLGGXYiIhkoCJEACJEAC/yVAYZceCBLYRQXWax1vS2PQuiYMXL4BY5euzx21cGXzpLQoReCkkFaA2ZTNLOyanddcnUEJl6iI8c4iS2kXuWwiGdTXlsVXDO1XO39InbV4YAlWDS3GOkYtxHbRp4KGTQIkQAIk8EEBCrv0TJBALxG4b62eduOc9nuWbdFFeacUvtnxTAExF+CehOO3YmT/kpVHHmh/9eBBWFwcR9oF/Dogz9h7vcZ2EQutNWsCUm1ALN2GZBCg1M+jyAzfjSHtOGhLCmRECn4WyFL/3/+9sfVaJ9uBeJhHIteOkkCiWGo4MQtZx0K7iKEtlYSngNxgxsyuIvQhARIggV1SgMLuLnnbaNAk8L8CjzfqST+9tf7RNZnypM+crt65AMxfcocBPN+A0f0Say44pmjG4ZVs2a5kaMLtyhz6rm3C4HVbsPe6JjV6c0duRH2nV+OFujj0ZVxL6TLNmRAib9nxnGXzzmTCaa6uEKsGVWLxgAosGVCCVSUl2LAnY96uNP8dMda3O3TFlk4M3NiOPTc2Yv/1LflRm1q9Pr5ipYHnx6UfxLRmFrOEx+1YTgiWjqfizVVlYkO/crzRvyzye3dADdYPZqxtR4yJzkECJEACO0OAwu7OUKZrkMBOEHi2QU+48rbGuaszlamQ8ajjgnnxLDR9d81LaPkmDC2VzZfMrjnmyL7sxZ0wpO2+xGqtY6vWYsJryzOnvr2udfKmdlnV4omijLKR1zZC81IeRNR3OOpFrLnZ+63rrTvz0QGEyqPI9lEVC7M1cb9lcKW94IC9+90+bgSe6MPMAnHv/ZgfEl7cjLGvrfCPX74uc+TG1mBQcx6lnb7iGS0gWQySiainsvEzRS+aCejo+WEwe+sJeCiyApTHQ69S5Nr6lfH1o4f2vWvUYH7PmGq2ovfq0cxIgAR6iwCF3d5yJ2keu72ACbtX3do0d1W2IhWa7YFNhwULCP0AMcsG9zKoYu36/OP7nHnKCPb3ngxmSjHeasP0x15r/+LKlmDS+uZ8cU66sOwkNHejzZAtM79QgjMZ7Y5hdoYzn2jTDKWjABePxeDlcmDShy00pMxBaQ8lZUlvSGVy8bhByVumjcE9oxNsQ0/26O7YtNbWQ6sw+dm32s5YvkVOXdsY1mVCF0wkIjvzfET95gIv6tZhfnXtyPf/t5XmikW75/m5LLhScExZTJiDDLMoLkliQFV8xX4Dk/dN3IffPK2GLenuGOl4EiABEthZAhR2d5Y0XYcEPmGBaGX3X62Prs6WFYVmNzRh9kULo/Dn8hicUCLlt2HWpIpfXzoVlzBmUmLP+zy/Vk96cnH7ZU+/ueGoJl6GNqTgsTiEa0flGNF+GT4gtNm+2KxFSqio5Lhri2OzKxyDin7nJryZHmucgZkexDZDaFquSbMbXAf68iz2ruVLpx1Uc+WEEbivN9SmvlSvRz77ZufXn35j3SktutRu9mLIqhSE40Yr/aa/slnDNbvrmRAb7UgS2anoZcZot2itIl+b29DRDnwi2qBEi66tpc2Lj0xmUWl3ojbe2TJ1bL/rph8c+9vejG3ueU8UjYgESGB3F6Cwu7s/ATT/XiMQrez+q33uqmxJqivshtDIg3MLXJqwC6RkHmMH6Oe+/X/x2XsytqUnTX5xmx786jKc/djC+rPe2JStDuOl8LkDaQkobke9g1moYGuGBJMQQiDP7Ch8vZ91zf9BMwUMJtRFvYW1AjPf112bakjNYdtm6zmABYAIOhDX7agtUd644eW3Td2/6PfTa9mrPcml0LEszei6V1fihAfnb/nqkrXNg5AsQ2C2y4N5QzEOxroMzcYhNg+itnNZs6NetIueCb6A+fmIQUehVzDTrzmMNiUxbr4fQisBYbEoEIfSbF7SgTjLoAQhRg8sfvHo8aU/328o5vZnLFfouOk4EiABEvikBSjsftLCdH4S2EkCHxp2uRdtIiE9B1YAlDCgX7K17RsnlR01pQeFuqfX66PueWrDDxas9sa383IEsTJIG/B8CW7CVRS8THkCg601nDBEqBQ88V7N6fsruqZuN/LuWuWNUhs3JR0c5l/uTVmq6Tscrf6aXeYs8y/5ebiWRAKtGJjKrD9mwl6/mL4f/rwr7RK3sEWPuvXxlqufW5k+uo2XwLfj0bbSTIZwuABnTjRvs5Rv6puh8wig4PFYV82zCbcm7EZ+XXbGJ5B+VB5iniFuDN/zi1Z/zQ9UphpC+YgHEna+Gf3L89608UP+MGU0v4b6M++kv/h0GRIgga0KUNjdKhEdQAK7hsBLG/WEK25vn7s6W5LyLA0pZLR8aV4zYsoFPCABjSqrBcdOKPvuNyaLaz/tmWmtxV/nBV964NX1V67vTFRleRlyyoEpOBaWiaxmdTbsWro1oStKrBxSd72A9n5oNZUK5o/+I+ZGL1xZnCEMTcjVsDmLyh7MRnK6azM5hNKD47pRCDb1q0ndirqkj6mj+l3/2an8ilGMtX7aRlu7/v3L9MQH57f/5rVN4ZjGMAUpXAhTgxB6cAWHkqaO2fxu6j6sqPYjfO/9PbOa+76hjmoYuqwiR/NDhcOjsgcVSjAmolVzLd97GZCxaFU45jDYoYYtPWiZRYplcMjofnNmHc6+OqGErdza+OnPSYAESOCTFqCw+0kL0/lJYCcJRGH3jta5q7OlXWGXm1pLCa3Ni0ZOVOdqhSHK7SxG9Q3mXXxaxZTRjGV20vD+5zKmU8BvXgi/Nff1DT9c2cRclahDVjlRPWncAnxPdYUtKaGZiv753CS30KRXcLiCgQc5iGi90gRiGQU3E3zN+qRkFqS0u7ZT5m600vlejovWMqU52DL9BoAwC5jqhpgNhOlG1KYCHDKy4qYzp8cu2asHd2x4cK2eetvjG/8yb403SKX6I8ftKIC65gcF34fNRVd4NT8cmJ8GDKGS0DyExTRc34dQ5gciY9xlqKCj6l3TpSFUAjta8hoAACAASURBVMxKQJt6ZyWg0PUSm6np7erYYH6QMj9TqShYm/+HEng5VCY8jKgNXrl4VtVZ+xexpZ/WM0bXJQESIAEjQGGXngMS6CUCXWG3ae7qXGnKE0DATf2qhSCQSMYFgryCxTViQTvqYnmcflSfk8/Yl936aUx/hdbunBfwvVtf2fS9zRkHsVgCTDhIexrcbGHMAT/ftc2xeZFKKQ1l2oixEC6yKBU+SmNoqU7ENiTjvLmiyGpJxdlGobXKe/matoxf1pFHaWMGA5pyvE+HbyOvHITarGxa0T/NhxoImEDcBng2Dx1KWIkkPAn4YTuq4p04dLD78Nmzqs4dzXpet4bb3tWf/eOcjf+ozyXLs1kFZsejX2b8phOH4wBePkAsZpvmFAiil/oCJHgWSd6JYuZn+pYVryl1rZbylN2eSojNlvDaPM+r6swFlW2BLmnIiOqGjN6jOW8J4ydhg1t2FHj9MIQdjyOb9ZFiTvRCmzHlpiRa5+EGTdi/j7Xo/ONqz5hQzt74NJ4zuiYJkAAJUNilZ4AEepHAyxv1xB/e0fTou7nilGdqUZkFm3GEZkXXrFj6PlyHQwRZxINOTBpW9tJXT0wc82msXP7xJf3VO1/c9PM1skJ4wgUPA6jAhxNPRCuwnb5pG8YQVWKEebg6h/I4Q12ZWDugOvbSPgPsZ4b1x/xKG5uLk2j/4AtRC7S2y4BESydq396EUcs2YNraRn/S+i3ZvZo68iKEBWUXwVzbLBSXMC+qR80EZnlXwFR9qEwTBllpTNu37MbTZpR8dU/GOnrK42JWdP/+WP2Ni5rs/r4oR8IMTGlIs6xtMQQMyORDFKcsyJwP5mdRbCv0LbNbhlS580YOdZ7ZdxBeqIlhjY6jYy8g+5/dOUx5yRIg5uVQvmYLhi/fjEPXNOhDVqxv27++LVsk4YC7SXSa8gjYSDoCygfyecAy78MJwJIZFOsOjB8Uf/G8GaWnjyplq3qKH42DBEhg9xKgld3d637TbHuxQFfYbXzk3VxxkWfxKOxy1fVSkflnZ7MyasU4hFQQ6Qz6uBl8+XP9zzppJPvbzmS5d5k+4ca5W/7wdhMrk/EKBIzBEkAYeFG5gmW78DQ3FQYIMxnUOD5GVqm3J+5V8ZdD9sajiXKs6m6LMFMysSSHvotWYNK8ZW1nv7O+Y0p9xkXWrYGnzQ5zISzTh1cDfiChuEDcYhDpZvRxO/H5Qwb9+KhJ1pU9Yee15xv06L/Obb3plVXpUVm3HIF2EbP+H3vnAWZVdbX/d596+71TmaF3KSIWNCAqgi1iparYYos1MWpiEo3mS0wxlqjxS9QkmtgLYEEEKyh2RBGlSa/D9Jk7t5629/9Z5+L3NwR0KAMD7OszjzBzzj57//YB3rPOWu/SCg4JluOHw5WAAtsT8KwsYsjggCivP/qAsudG9FOf7hvFl8XFLLm9e75aiMRnqzBk7qL8RYtWNY5d3eAG7EgFMjBgcwcKVER1xS+Ey+YyiAQVOPkWlCoZnNS/7MWrTohe2jnGGrb3uvJ4SUASkAR2loAUuztLUJ4vCbQTApsju5vFLlXeaxCuUsjfpA5ZjHI1C7ZSAU9FyKnH4Mr859eM7zp+SIKt3B3LmL1WHPXvmZv+/ckmrRePloG0me16MA0VgvxyuQ1V1/y8XMXJoFuRUT3qwNjTJw/Cw0eUsEW7Yo5fCVE6ax7Ofnt+zVULNqK/GyqDwwRsnofuF8GRYNOgCvo1YNiN6GjUi0nHH3DDhYfiPsZ8o7M98vmkWfR8+o26B2ctcU7Imx1gK5TTzP2iMZq3Qs4TxBEOdMVClGWckYM6TRs9EP97fGe8uyu8lRcJYSz8EqPfW5j+yQcrkyNSagJOMAzboYRdDpOeUkQeQrjQAkG4LfXoqts45eBOD551pHJTt0T7L/rbI5srLyoJSAJtRkCK3TZDKweWBHYvAV/sPts0c2UuHrU0Ds+3ilKgk/ZwqaAIsKn4iHOEVR2G04KYUo/Tj+p5x5ijcctAxuy2nPFXWdHpr883PP/RqvwRTVoZ0sLwrb/IE1dQQilzEQwG4eRSULwWHNgpuuKSk+JXndKJvdEW85rbIAY+NTvzwLvLmo/eYJswEsUQXh6KyxFmIb95hd9pDGSt1YwDSuzmq87ocs7xXdirbTGf7xqTWic/+ELd4299UT8+G+iFZluDqpFjggrXLvQHMQIqXCsLlTehU9hpvmh0918fEsPDgyt2fSHiorSomPJe/tY352+6ssbqCERM5CwLiuogpDHkbRdMjyGXzaLUUFGCakw4qvT3Vx0VuYWRl5z8SAKSgCSwmwhIsbubQMvLSAJtTaAgdpObI7ui4IFK0T5qJOA4EKoKb3NhlgkBlYqIVAsdjFTy8pO6XDKpP5vaVnOkNIK/fYDb/vX68ptTZke4gTCSOY6groA7LgxKGRAOvHwKUSWPIX1LPzn9yOANZ3Zl77bVnGjcuWlRMe0d+87XF9WcV+cFwdUgXIdB5zp0TfdTHMjNIGQyoGkFTh8Sf+OHZ5aduycacjy1UJzzwPRlj9XYCc3Wy2CTj65woWvkuFCwFIaXA7PqMaibWXXaER1uubSNU1Qoyvvq2/atr3zYeN2GrBFSYhHYTMDK5mAGQ3CoCYWiwnM9BN0G9C9KVt04qc/44SXsw7bcVzm2JCAJSALfJCDFrrwfJIF9hIAvdp/JzFyZC0e/9tlVqYMYCSGPWgVQu9yCNRf3ODSVrMkEAvk6jOjCllw0unLS8HL2eVvgeGO9OPbuZ9e9uDIbiOfNOBg1iqDuXa6CfN5GJGTAdC1EnSYc3a94xvijjR8P77B7UiuWChF940N+6/Pvrvrx+lyxIcLFoECp7QKmsbl5AuU9W42oNFLi8tO6XXtJf3Z/W3Da1phfCtHl9w9XvfRFbeAQJ1CMdNpCNGrCssk3mNIWVOjwEGEt6F8mlo8dVvzjSQN3XwT66S/F+U/NWnnnsmS8gxUoRdYrFEWSWxwJcWKp2Fl0Drs4qldgyjVnGJf2YtufN7w7mctrSQKSwL5DQIrdfWcv5Ur2cwJbil2ueFC4A01RwRQDtiUgKAlVAfKuDcM04JATgeYg2vwVRvaNvnPZGd1+2D/Glu1KlCsbRfzBt7zHXltcd3oykEBe0cE2d+byYPqpDMy2EMzV4MSB5e9NOiFw/rAitmZXzuG7xqoSIvTkLOdPMz5PXbM6FYYdMP2+w1YeCAfhi98AWbnlkjioo1h201mJcYdH2cLvGndX/fxP74ubn/9w0+822UVwlQBMhcP1bH9ffa9bALqVxoHlzroLji+6ZFwv9uauunZrx3lykTj30Teq/7o6FYvboRAyNqD7nYg5FE1BQAPcVAa9wjl++fGlF509mD3W2rHlcZKAJCAJ7AwBKXZ3hp48VxJoRwRI7P6a0hjysSh57FJIl1HDAOqipWmwbRtR3fAjqRb5Q6mAZwExgwrWMojYtRg1oOSlSSNj1wwu2XW+si8tFGf/7dXqR1fmo0ZG18FV3e9m5noA1TRRG4li3oR+8fzSGyZ2nLinPFlXCFH+wPMt/3zti/rTsqGeoG4bjBg5QJhSQmyANLCWqcK5I6N33zgy9tPdsf2ft4i+tzxT9eKXDcH+0KOFhg92CoZhwPLdNjREFBVRp6H5F5NKLh3fve3SUb5rvY98Iq57+OXFd+aKB6gbkoXIOO0zcXPpyYoLFCnNOKgoPf+PV/Q4vgtjjd81pvy5JCAJSAI7S0CK3Z0lKM+XBNoJARK7t05unLEyF4u5ip/BCQNAOp+DHg8jb1mICReCK8goQejkh0rlVykPAUNFgOdRwppxzIHFk08fYtw4rHLno6tUVPXEtMYnX/jSHtuglcNSBBh19SL/XPrbh2xh880YWJxff9HoisvO6sFe25M4Z9eLfv+aXj/l02pzYL0XIU8yqAoQpqZt9EXdwvLNGNo3u/Yn4zseeWiYVbX1fJ9ZYF977+ymO9bmiw1q5qAqHIpngWq8uCikLyQUhY85Kvy7Xx3Jft3W8/m28YUQ2p1v8r889vbGK+1oF+Q8cgWBH73nwgKDClOk0NlM44ozupw6sRd7ZU/OV15bEpAE9g8CUuzuH/ssV7kfEPDF7pTqGSuzxb7Y5UyB5lFXKwGEVFh5FxHPhqmZsJiKrF1oy+u51Iq34I8qrAxKjDSOOTAy/azh4Z8dWcqW7gy6d2rEkfc8serFJZlYGeVyWp4FTTP85gcaOEzPRlzUYOywsj/cNCp8885cq7XnUlHVtzlPPLtEjLt3Ws3kTaKIWcKDEdAh7DwY18GECY3mrK/DVaf3vvSSAezh1l53R45b2yyK/jKjesqM1fqoFq0EHkVJNcoN8HzBqwkXQdGMg7sGZ193ftn5BzO2cUeusz3nCEGZ32RUsXVHhY+Sos8dT9a/8lVToE8KYQidQeHUhJg8gBmYm0XUy+O4AYlnrjkj8IP24F28PeuXx0oCksDeR0CK3b1vz+SMJYGtEiCxe8vUqhkrfLGrAUL1bbQ0U0WKCoYYUAQHPJ+Hq0f818tUtqZqKshzzBGAaQLIZ1HMGvC97tEPzhqW+NWx3dnsHUFOXbj+8i7+8OSsdTc2hjrAUkx4uRx0nSqXNKiOjbCbxMAyb/UNZ1WMO7yIzd+R67TmHMrJXbAKxy7Z0HxSSyZTXhkNrOzdJT7juO76B1uev0iIyP9OdZ9+Z1nzqWmmQwkasLMpaGoImhLx82O9XBVOHBT78OaRkVPa0jf27bXihDufWTt5qVUezwWCft6HSUWGHqDzHII8jU7BlHXBST0vnTSIPdEaFjt6zLtV4rB5K9OnJVtSfSvigfqOReG3ug0w3hzM/tvW7KHPxQ1/n7b6rma1FNyMgjsOODwwg8HzHOg20CeWtX99Tvnwo8rYvB2dkzxPEpAEJIHWEJBitzWU5DGSwF5AoCB2q/9P7AowaL4LA5AFRXEFekRZSs07fFNDczwQicNhClKOA88M+o0VFDgIKgx61oKRa0GfMmPDuJGlvzt2EB7bsiXvdyFZmhEd75yamvnBWnZQOhjxrdAMxwUjz1/DgOLmUM4bMXZYp7t+Ngq/ZIxRosAu/yxIifJXPsPNb3267oJcTiQs2/Oj3r0rAutPHVrxPxce/N8d5F7eKE67/YnVz9eKuOaZYbhWulAMpkbheIAiPHTTa/H7CZUjR3Zhb+/ySVPwVgj2lzm45/G36q9tCpQiw/zAqN9ZjmyJI5qNsF2NUQcWv37tmMikzqxtupPRPB79EpfNmJf82cq65t6ZnI0Q09ApobcMHVz26MQR5q+2bKU8Nyu63PvU2jc/rTH75tVSv0EHZxxCdWFz4hdAKW/EVaOKb718KLutLfjJMSUBSUAS+JqAFLvyXpAE9hECH2wUR/5qau3MQhqD6ifEGgKwHA9KWAXPpHDMAdG3D+mNl95+p+G362qaol64AjnVhGuosDnFdzl01YBmKTA5oHsplIWyziG9jRdPPLzkvtGd2PutxfVerTj6t0/VzliZLYs0CddPB0hQBDnrwlZUGDyFA6KZjTdfWHnq8KK2sTxbLkTZM2+k7pw2P3lhQz4CTQlDUXW4fsFZM/rGauuvP6vvmJEd2XvfXNdKIeJ3Pdf4/KwV7qisFkeAUbtlhjwzkXMZokEgkqrFz08p//kFh7E7Wstke45bL0Txrf9Ov/7RGvWwfDiIjAeQ3S9F6G1bIKHl0YHV5q4+s9vZ4/qxadszdmuPJaH72Ie4+sm5tb//qlHEeDAKVQsAFoPmNqFDJInzRvT4+ZWH/zeDv871bnlkVvVv65xiGFoAgnKMVQ82ZxBMRchqxhkHuLNumFB6WkfG6HlMfiQBSUASaBMCUuy2CVY5qCSw+wn4YncKdVBLxFxqSwb4Obuke4UBOMkqnH5Yx1cuPAWTPp2HS2bOWXXX6nSZYgei8JgNy7MBIwKPA67tIh7WIHIUiaU2uja6Fqt1wwfG/z1qEJ48KoGF39V69uklLT+478X0w9WsUmnhHLrBEPUoZ5MjywUirBkn9Qu+ft240Bk9GMvvamLkn/v0m94d0+etvyJpRxAuKkVjsmAjFo6Sb66LYHYdzju2632/OF7/yZbXf3yB+OldM5vurHeKEFcp99lFitwZmOpHv+P5Jkw4SHnmljMS5+zqudN4lDZw69Mb3lpjVcYdTYXLCwWH1BBYCI6wl8T3KtniG84qGjUowmraYg5PzReXTn6/9s+L6uyoiFUi6ylwBEOY/IcdDmRqMaKnNv+OC0pHlDGW+uYc6GHnD1Nbpi+uMWOaQfkxhYJESpfxFCDgtGBISeP6n5/T/ZhDdrPVXFuwkmNKApJA+yUgxW773Rs5M0lguwi8s1Ec+T9TUjNXZaMxEhPkcEo5u6GAimS+BVEljZP7FU2/b0zoNIrY/eNTXPfCu803rU2ixDNUeJqBlKtAC+i+S0MubyOgGuDkQKCQ0PIQtDahVzTfMLJPyfOH9y2a1r0z5ncOomrLYiUa/+736u7/95vO1ZlgR9gGNT+gfIo84sEAco6LBGpw+ahO1189jN2zXQttxcHLG0Rs2hf8D89+tPHqpFIKi1r/Cg0aWZ8pgCfoQcBD3EuS4J523fjgOVtGF99aJ4757Uv5aaubA/EoAywukDNdKIYOt5mjA2vBkZ2avrz20h6jDmCsvhXT2q5Dpi52z//9tPWP1mvdfV1JBhsq5VAID5qmwcxsxLlHdPjXr04xL96ugVt58LMLxYX/eHXdXzdmg+E8I3+6sM+QHoaEAjDPQ8jL4/AKZ80fxiVG9thCsK5Kiw6/mZaf/v4Kd4jQwn5knEraqG017YHhpdArUOdef27P40+sZO+0clryMElAEpAEtpuAFLvbjUyeIAm0TwL/KXYp/1ZAJ4HJXHiKg4BdjdP6J14ePa5k7EjGXKqqf/ILTHrpg9rfLarhnXmkA1KugMVdhCinlhcicL6+onxbalzgWjDsFsT0PEoDrtUtEVg8sFfl7I4VmNOpBEuKS7G2N+B+CkQemdI4/Z3F6lEZLe6LXVLQiiugg8PNp9E72ow/nN/tsGFl7LNdSbRWiMjfZ+G26XM3/KTBi8JWQ1BVFY6Vga4x6IaBVJ4jqAhErQZMGNb5oZtOxJVbCvZFaVHxx+l49Z0lYnBAZeDUZEK3oSgKTEtD3GlC/+Lqpisn9h9xZAX7cleugcb644z6B/49v/mKTKhLoYUxo64Mlt8C2nEcdDGa8ZuxnSac1IdN2dXXfnKJ+ME/Z9bcsy5vJGwlAtWj9tLc50eJ1XmuQVOBsJ3C4LLs0r9e3nFYEWPN35wHFSje9i7ufea92msyPAqmBaHQmwZWuK80N4kypREXntjjqsuHsAd29RrkeJKAJCAJfE1Ail15L0gC+wgBEru3Tk3OXJONxkicMsGhUUSQ6uB9sbsJZ/QPTf/h+I4Tvpk28NJq8f2pc1L3zFuR7GcHiyGMkN+AgsyiVEP3XzuTdKbma+Q5xcjOzM1BcTKIeg6KAgwxg7tlUXNDWcxYqgXNpBcyxLzF1adVpeNhSwv6bg8kcGgMg7nQ6RV2B/eL2y4uP+bb2sY2CBFbsR6DNzWjSzSE6p4l+KxH0X+Kqm9uH7kuPPZ68jczFuVu2JSLMK6G/YvmbBuRsAHh5JHLphGMJoB0I7oZLfyaCb1PO7MXm7HlbUAPAz99DX9/Zb77A4drcEn4qxY0CJiWgTDPoUSrxtjv97r+gB54y1CgBcVmhy3KTd48oP9/Arf5o2/+AWNg9O0cvdx3/Pa6gg6xBURLFokp72fvfmNd8pB8sARwGAzaA8/zr08tgvtEU8m/XtrhwD6hbTcAoQj7/GYctLIKB6rcSx7SWV24ZQR2y3U/sUhMevythntXp0NlaSPoR8GDgtwfCi1/BTUE0YPQvAxiziacP7L3n689ht2wtT9G/1gszvrnm1X/rs5GAq4SheIw/62B/6ZA0P3TiLNHdrn3p8NxA2OMainlRxKQBCSBXU5Ait1djlQOKAnsGQLkaXvrc/Uz12RjMZoBvTLWPerFS2LXRcjahDP7h2ZcNaHDhC1f2b+xQQx9eU7jHXOXO0cnWQxuUIMFGw7f7IsrwnCcQtczVSvYX+kKwB2A5wVMN4WAYiOsOeDChgiGkMpRRDgBoenIU3MBUjl0HrcRcxtx4sCiyZecbp63Lc/bz9aJIf+eU/PHlUllaEPWixhw0wdXhj+ZeEzRjUd1/W+7quVCmNM/xM1T31tzc10+pgitCIIxv/rfVQuvzv1eGy6H6VjoGEiL8cNKbrt2uPKbbQmtP88Vv3pyTvK2OjcAR/UTVX3RpzkaDKHAdix0rjQzCrcdlacVkzmMuVwYWois35jtcXBGr/3pkcH1820VwQTz/Da/wtUEcp4nVM2EpjChuZZgQmNMifHl9enSxnAQjq76Vl0Bas7gur63rio8DKj0lv76otiRBzHWtLU7bk1GVD77If/FrMVV57SIQFncNJxSt3H1yUO6/O7codrjWztnylfizH+/Ufv31WmzrNENQOimn/NNKSjMAUJUIOf31+AI8xqcfmjs2bNHhK/dVs7wyw1i2D0vrnhpRWO0zEIpVFeh9fv7oMNByKnHuO9VPnrhCbiiLfK298yfRHlVSUASaG8EpNhtbzsi5yMJ7CCBgtit/YbYVaDyQkjRUzxf7I7pH5h+9YSys7ZW/f5lWnSY8R5unP1FzaUbsnYsb5gQlOPKDLigfM1CKgL1qGBCwCUvMVI+AEL0I5eitjk/tGkJhYzPoHg6NJWcHgCbRJ9B0cEcitx6TBza5d5bT2DXbW25i9aL3k/MqXtq9gb78A12AFqgBJqwYTRtxCHdA6snHVd51Sm92atfnyuEMP/xTvNNj31Yd8smr4QxrdhvkkFRaBLZngHkXYAsfg0nh3Ili1MOLbn3nOPxi29ravDwl+KSf76+4R/rnAjjRgKaoO5lAowGFcy3U6MopZ1zoTEbAb/dAocKDXmbwzRNCLLcIle1zT0YGOWucq2Qu6oK2FyAUQEXeSJbaWjEzojA1YGmzSKdxC6VeFFkVyefWrg4vJf58U3n6Cf026IwjJisXy+CL32Z/etz82sv2igSyLCwL5DjVj36lLr50Ud1+OXlh4Xu/Sb7V5eJUx56veqRRXVKOY9W+N3PBBdQdYaszWEwBVEdcFJpJPQchvQJvnH1aZGLDg5tu5HFOynR/09TFs/8sjbWzVEroAlaUCEVwhQcEZHESYOiL914inZuxVb8enfwj4I8TRKQBCSB/yAgxa68ISSBfYQAid3/ea565upsPEa6lFFTCW74PrsU2QxZ1RjbT3/56gklZ23LM5favb60Aie/82ny+s/XpI+tc2NIIQCXqWD0nt5Xzi4YdTXQTDRRTrBa8H+lyiUVFjSdwXI4ArrhRyRVpsERwk9lEAYDs7Io92px6Yndb7zme+zOreF/6GNx46Ovr/nTOh6CY8TAuIqwqUN3ASu5AYN6GWvOPb786rO6sxmUuvDCXPzsubcW/c8mKw4v3BktWSASBBTKzQ0paLE9aIYC4SWREA0463tdHzrtMP2mgXHW+G3bP3WNOOVvL65+5qtcOMLNUmhcKQhoMmmjWO1mAU0thXVyvaDkD+LANHguuSbQk4G/A764LXwUX+xSeokhXLjcA1dCENxDWFj+w0FLXoGnG+Ckgcn/mHJmwfyGForrwRQOjj0w+NrNZ2LM1vZy9mox9P7n1771eZ0eMio6Im0DrueiKKAi17QOFXEvN/6YnjffMAT3k7/x5JXi1KffXP3QwiqvoxvsBI8V0hf86L1n+eF8Q1fh5poQcmpxfP/YnLOOqbzmu3KV5wlRefujS9/8bFNkgKVVgEofXc5gMwbK2oi4aRx/gDHn+rHm6d+WzrKP/BGVy5AEJIE9RECK3T0EXl5WEtjVBApit3bm6kzMz9n1RZVn+K/RHRUI2rUY0894+ZpxiYnf9cqYGkLM/hSXzPq88eINWaV7ve3B1QxoqglO9gweh8cUsFCAckz99AYSvb4CpNiuayFkBGDaZB5A2b+skLdrKtDcPDqLelx5aufzL9xK1y9KR3jiLfz9+bkNFyTNCDTTBE9xcMeDFtHhUddZ3ogeCXfFhKPL72iq531mfF59w/oWVTEjHfyUCbIXIwS6x6GQ2FQEuNWIYi2F0UM6P3HesMB1B8S+20HhtRpx5H3PrX3xq1S4zDFKwWxai+JHXQkDiXxGEVpOkW7HX6eiMKhM9SO5CoWX6fN1OqrfXKEQFVaFgObloCqa799Lgd+Ql4NpaEi5lNCrwfXD6YWPf2VF2XxeHicPDj53zyk4d2vNOJ5bLX5w31Mr/9XAOqHZMaEaDEYAsMnWwcshaqgoVZO5cUd0+GNRMTa8+GHTrQvWJLsb8QpYnkGrgGtTozsP3LFhmBq4lYTm1GHEwOJPf3Bsh8uOLP/ujnfUje72x9fNmrfePDyrFPuC3WEMlqL6hWpU4Daql7bg12cFj2urphi7+s+ZHE8SkAT2PgJS7O59eyZnLAlslYDvxjC1fubq7GaxS/5QZBVFtlm+2K3DuH76y9ePTWwzsrvlwEvrxAEfrcIZby1uvGBRVXZg0gtC6FEoiuEXwHGH0hYUZIUBPaj6qQ6Uj+lxDzpTYLgMggSWRiJHwNYU6F4WnVGPK0/puk2x+/Q7ePCp96t+kKaIJzTEhQLBDDR5hfVEdCDAcohptpfPO2q9ZUILRv2IKyWYBoMq0tkUYEZh5XMoC6oo4Q04rk/oqYuOj1/fs5W+tK9vFMP/MnnDi6tawqWOXgTuCnCFwaaIK12H8jo4xXMLVVeaSVKfRCWpU055uD6nwof8MVghh9c/HlA4h2oqSFOWAz0vZMnT2IWtqTCNINQ8uSAw2kZYnuu7SmjUdtfJ4JRD4s/eMxrnbU3sPrlKnP+3qQsea/A6w+IJcE+FJwQ8wwNFoU3KnbUzKI4L5D0nuFAl0wAAIABJREFUn/HiAXKoMIIGDBXIp5MIBAJwuA7GGBSRR4w1Y2h3bd7Eo8suP65T6xw0SOze+0hy1mcbcHiGRUE1aLYKpA3NT4UJuRkc10td8OsJUuzKv9YkAUmg7QhIsdt2bOXIksBuJUBi9zeTG2esykfiJEALCbbK/4ndkF2Hsf2Ul68fu+00hm1NeF5GVH68DBM/WZI7Z9mGhu/l8g4YhXI5g2JG0ezoEHoYluvACOoFm66c67eVdSwOPaQU0hh8J7Q0ynkDLj6x28+uPoLdtbVrPrZQXPeXl5b8uUkpgdATUC3Xjx57wZCfI8vzlE/qQaXOZkyDFmTIWoW0WMOgphgpaKaBHHQEFRexbBVGD66cfMkx5lWtieh+PaeX1ohT7p+y9pn1maIIM2KUweEXurkBIOc4CFBesi9TC969vtD3BFzXRjBkwiPfNv/jV6kV8nS/8bcuRcmZriBpAdEwFaAV3DNydAwHwi5lPjM/Mp8nsUsPC8IBs5I4ZXDJzOtPV8duLUr/Wp047IHnP5u9uDoeFcHu8FzVd9VQgpSWIKBlANNgyAoPzFSRo5xgsocTgJOzEA0y3/GBsyA06qpn1WBI9+Dii05KTBrVgS1o7Y1N9m13PZmc9Xm11p/yhjVF+K4WaYNK9WxEXRuj+upz/jDGPL2YsWRrx5XHSQKSgCSwPQSk2N0eWvJYSaAdE6AOardOrp+xIh+LUzTUf6XOmJ9ZQNHQkFWLMf3VaVeOLznru9IYtrXM5ULE6jag3/JV9aNXV7cMX9HI+25KK12bnCAcNQDL9mBxFZ4RBVM16ALI5x0YYd3Pb2Wug5DqQM8345wRHe+5eRS7fmvXWp0T3f/y0urHXlsujk4FusAWOgwdEDYJXQcxs5DOwDVfE/rdxfz6OaPwut/yPCgq2XVxxHk9Tjko/tK4EaEfHRFi67dnC/+5VFz84MvLH25wO8MVQb8Qz/UEPN2BS8pW05DNFPKDVY/cKRw/fqtSCgOlIXhUxEbCjhWiv4VHkIL8JfHJCuORT4PvckGd2rhACzkfBBh0SpvwPDibLeAUSnUg8+RMA47rF/zojxOiJ27ZuYzGJtu0u96u/vOTHzRdkw/2RYulkDmEfw2WdxGhUDGle+iARc9ENB+qN6RJskKuMX1Rnq6XXI9jD4guOn9k4vJR29EumubxUYMYcPdzVa9+3hjrklUivqMEjZtXLJgGFeRlcMahZVNvPBE/KGcsvT17I4+VBCQBSaC1BKTYbS0peZwk0M4JFMRu7YxV+VjchelHECkqyKlICswvUBvTX5/2wwk7Lna/iYAKw1ZVo8eGNAasr8fAxhb0bkzm+qcspbTRM5Vl65s6Mz3iuyCQV5nwKNfWQ0B1wew0Tjmk5Jm7TsEFjJGp1X9/3lknjvnbG1V//6xWPyCJEtiugogCREx6zW75TgdU+OaRUKTiML8V7WYFqQKqm0EoX4sTD+44a+xQ84oR5Wz59m7hnz8Xv3r0jbW3NfNK2NxAkAK0DglZFx795wkYGoPmWb7vcEAVCLBC/q7temB6AB5UP/pckLncl73UoIFe41P0lLqhkWgmGzOK9AqmgZsJWBSBVVQ/jcNWqcgPUMnzVgNEvhlDu4qlvz+/aFiPLZo5fL3GeY2i6+PvpB54c1Hz6GaUwdMDULhAkBKNs46fEmGR4taUgnPFZgFOc2JMRTjA4DStxYgDy1edMSR42em92azt5fdWjTjyninrpy1MFpfk1DAClD5NAp9Z0BTLbxl8xhGdH7n8OFy9ow9g2zsnebwkIAnsfwSk2N3/9lyueB8lsLvF7pYYSfy6WSQaXISXN6HL46/VTl7WqBWnlSg8RffbzGrUmELhUJ0sjujMP/vdebGRfRhr2daWvLFeHPvwa1UPzV0b6qsXJWBZVHzmIRBRYeXS0KBCV1VfJDpcgdANP0KpOklE7U04eVD8jXFHV17zvTK2bHu3nZwpbnkDf3/h04aLskoCea76XcMoIkrrMHgSMa8aRx3S69XisPaV6jpqUHWFJjxw14FLFWyaCaGoflSX06OHcKlEDapv4MYpvViQka1iGLBsG7qmwYXK0kILfbK0cfT6JtHJUyJwBCUT0MULDgnCzaN3NNl836UdBvYLs6ptrW1es+j1xGtN97y9Sj0tq8eQz9NVOYJRBelMM/SA7hegmRTpFTpsN+A/OFBGg5rdiGHdlVUTRlb+8ORe7K3t5UfHP/OVOPvvM6seX5uKa5YepjpB37eXlq95KYTQhHNHdLv7xiNxo2wqsSOE5TmSgCTQGgJS7LaGkjxGEtgLCOxpsbtl1Pf2Z+pee32VfVTGqIBLmaibmwlQdFHz8ugZqOf3XNrloIOjbNG34Z25Uhz3z5lNjyyuU7rycBzNtguhU2SSIqoMhmrCsiwwVUHA1JFvSaJEbcTQHsaHl57U6eIhpWzpjmxfVYsovfWl3Mz31npDXD2EHMnUzTkIhkf5tLUYGK+tu+bcA88cUcI+EIIqAikdYOc7gc0TIjT9Ldw/9aOqiy3fM7iQg/214CVxX6bU4Pfndfz+CV3Za9+2vi+aRc+HXvP+MXtx8yjPLEaW2jWrDgQ9dDCKGzMoNhWuGWCaCZ4jV+UUesWztVee2un8E3uy13eEH3Vvu/1d3P38B5uua7QT8KgbG0V2KepOq7FbUK414uLTu19x6UD20I5cQ54jCUgCkkBrCEix2xpK8hhJYC8g8OFGMfyWybWv7K40hu9Cctcb+T//66OG65r1CjCqKtucF8o8DlPYKPI24NpTul167qHGw9811lsrxMkPvLLyn/Obwh1ZUQXSFodCtgLUuphewSuF1/tqNouwXY3jB8Y/OXdkyaTDytmK7xp7Wz//dIMY+pspNa8ubonEYYaRp3xdv9ctpUgACacKIzo1zL963KDjv8uvd0fm8NRCcc6fX9n4VB0v9p0tVJCjguo3ZOCMIebW4LzDjft/cVLxj79r/Hk1ote/3mh8as5q74h8sAw5aoxBbZSzHPGoAjtXiLZS6gJPrsegCqX2/NGdLjqz+3+3Uf6ua3398yVClNz9XHr6B8uyQx0Wh6ebvtilHHKKTutWM7pFGnPXndPzxJM7svdaO648ThKQBCSB7SUgxe72EpPHSwLtlEB7E7tPfy7O+vOrm57Z5BWD2uF+bcVLubsG8xB2NuD0AwMvnDGmw1lDtpG3+03U01aJif98q/bPC2vQiWlFftGapwIOdW4zqYGEhUhuA0YNKFlw3ojExcNaaY+1re187nNxzX0z1t1f7ZUAegBUemar5BdGrXMFyrwqnDcET/zsxE4X7opo7pbz+KhRHHTz0/XvLGkyErpK/dNI8FL3MQWeoiDkNmB4efLLX17ac9QB7Ls9gz+sE4c+PCv34Psr0ofbIgzOqKUxQJbAlN9tWxYCXh0Gd1FrJw6v/PE5A9izO3Orv5UUR/zp8eqZK5rMYuhBP40Dm5ttqIwh7DXj0IrMqqvGdzpuWBFbszPXkudKApKAJPBtBKTYlfeHJLCPEGiN2B3bX3/psgklZ++OYqBP68Rhv5q86e0lTWbENYr8zlmkFakmil5jB5wGDCrOVl01rsvo1tpZTVkrJj728pr/XbVJLePBjsgx1fegVbnt+8AO66x9evaI4quO6cLm7sy2zhci8diLDc/OWtRyYpoVw1NNuAp5/JLSVaC4HJWsBj85ofjH5x0auH9nrrWtc1cLkbh1cv71OSvyhztqFJyTu4TwfW9tMIR5Bj2NRuuHZ3SdML4Pe7k1c3i3WRz2r2l1D89flhvMjUoomo402bgFKDKeQY9osm78iI4/vmAAe6Y1433bMfd97Nz4+Ns1t9d7CSZ0FbbnIkgPPeSiwXUkRBNOH6S/dunpkTN3x/24s+uR50sCksDeS0CK3b137+TMJYH/INDexO6SFlFyx/MbZs6twuGpQCUyrgqTIomiYHVl8CyKnWqcP7LnHT85GjdvrTnC1rb4+ZVi7PRZdb9ZVpU9MEMutxqD4qRwSPeizyZ9v+LqkRXso529NV6oEmf+6fHlzza7YYOEpst0v/OXYHohz9V10FWtz99+QefjjuzAPtjZ623r/FveEHe+9HndT5uVMr8zHFmf0fWpHXOIuYjaDRjeJ/zmj86JT+rDWF1r5vFunThs2uzcXZ8sqTnWcnRwTUXey6N7pdk0/tjKn5w/gD3WmnG+7Zh5OdH17qc3zPhykzEwpSVgqxyOYyMeDMC1OISro1jU4Ypjy2+64ij1jzt7PXm+JCAJSAIysivvAUlgPyDgi90ptTNW5WKxbVmP7c7ILiH/18fezx98feHt1YEDkGEmIgzw7EKrYYO8f+16DCjPV117WufTj+7IPm3tNi1qFF0/34DTV29oGMgUrnUpiywf0CP4zJBitq61Y3xrRPXp3NSPVmdHKVoIWbJM0MkeTIftCJjCQ9TNYkTv0KzfTjTP3JrP7c7O4evzX10njn5g+qZpcxuiCW5GfH7ccje3DeYwnBzKA4246NTOF55/oNZqkbpIiOKvvsJxKzamhtmWnUgkAtUH9gi/cGwl+2RXzP0vc8WvHp1ZdVtKiyGvBeAZGvJ2FpGgCS+XRcBT0SOUTd5+aekxh0XYF7vimnIMSUASkAS2RUBGduW9IQnsIwTao9idu0EcfPfzS2bOy3epaBYRBMk2TC907DI0QPdyiItqnDm06J4zRyV+MZAxarS2Rz9PfiUu+PNL9Y828lLfxszlDqijhc2pMxpHsc7RwanHZadWXnDBIPZ4W06Wmnjc/+T6qa+ujx2f1uNQ8hxBze/HDIVC5I6HsNqEw/ry9394euUFhwfYqu2dD7kmMEaD7ZrPp2lx0O//nXphaZ3W09YNIKSixRHwBIeuK35EP+akcOqhFY9dchJ+2Icxa9dcWY4iCUgCksDWCUixK+8MSWAfIdAexa4QwrztxbrHnlokJibVcujcRUBh8FzfXtZvO8bzdehTpjdOHNXh8ov7sSl7cjteqRJD/vnyun8taSw+MMMjfo4xtQF2N3dqo99H8s0Y3iG35OZJlcf2jrLatp7vE3MzV90/p+V/q9wyRs0fNFUFc2w/uut/eBpxowXfH1L518tG6j/dk/mvvjifkn549pfZ8bZZ7j8gMLPQypmKCRUqJMy2oF+kxrlhXJ/TTv0O27S2ZivHlwQkgf2DgBS7+8c+y1XuBwTao9gl7NMWiTPueX3j42ut4qimmsjnbYR1amBgwVUZdBXQhYXeCW/lj08r+cEJe8iG6uOc6PHvV5OPvDm/9lg11hsZi9otF/KL88JvAocAA8KptbjiuMrfXTHCvGV33FbL86LX/zzT8MIH691BargcOVtAFZ7fCpq6x5mGAjtZjy5h17vkxMqrLz54z3jWUoviO9/Hr154r/qmpFekZbgOVVVgu4CyuYEcFROyVA3GHsTfuWFs5dgujDXuDobyGpKAJLB/E5Bid//ef7n6fYhAa8TumP76i1dNKJnUhTFyVt0tn/VCBB98Lf/wtPnV5ySVUngshIAKeI6NHKU1BEJAzkXES2NIz8S8K8exMUNDbMNumdzmi6wWIvD317J3vfJZ3dW2WYlk2kEoGAaFUj2hwOKADiDiJDG0Oxb8aHR84sE70JVtR9f00Dxxw8NvLr+rBh2QU0IwyWOYC7+FsA7VL1zjyQZ0LRGNV4wvPWdC1x1rBLGj86PznvhSnPePV+v/VuMmolwHcpYDXQvCdfx0Z78wkecFeiWaMz8eXXTh6X3Z1J25njxXEpAEJIHWEpBit7Wk5HGSQDsn0Bo3hj0hdgnbWxvFofc+v+yVeQ2RCq24I9xMDrrK4DFqU6tCcRkCgsN0m3Dc4JIXzz8BVw0Js027A/lsIbS5H+Jn095ff8vGXDSIcAKO5UBTBXQhILgKW9HALAvd1CrrmnE9Lj+rP3t0d8zt62ssSInyB6bVvDhjuTMsH+gAQ1MgaG5M9Qv+4qoKYXOoIoU+5dmV14ypvOCkNnSJ2HLt09aIkx+Ztvbvi1vKOidFCLppQ1MEhKNAp8I+G1C4i7BVi7OP6fjwJSfgxx0Zy+5OhvJakoAksP8SkGJ3/917ufJ9jEB7FruE+m/vZ69/6BPr7lqeAM/lENBUaKqBvOVCC2gQLofptSBk1WD0Ed1fHz3EvPHoDmxBW27TykYRf3UJfvbsnKpf1LhRlQejaMrZiCYM5FJZRMDBmAqLBRBBI8YMZC9cfGrxRb0YS7blvLY29otfijH3vJN7ZkVSNyi9gnJ2OQQUTUU6mUdFWQB2JgUlX4UhPWPLxx1defXYnuyNtpwntUh+fiHO/ddr6+5ZnQ2UpANl4CZDLpNDUAWYJ6BpAeQ9hqDXhKEdc6uuOrnT2cN3ketDW65Nji0JSAL7DgEpdvedvZQr2c8JtHexu0KI8t9Ozj45+6vU8aaeAJjpt77NWDbCEQMeVYI5GSR0F6K5Bof3LVsw8bjiG77fCbPbokPZ4kZx4HPvpm9587P1E5u0TmjhIQTjmt9kwREOQia1tM3AUBkcz0W3WG71LRM6/2BEOZuzJ241IYT289fx1xnzGn9o8QCgh2CD+wzJ5SCfsRAOMSh2GpqXRZ9SZcOk4R1vPawTpvYpYS27es7rMqLjG/Nx9RNvLLq+We8YSGtxNHEXiq6BcY6wTm2VHbhWHoFAAGGvll92XKdfXH64fueunoscTxKQBCSBbyMgxa68PySBfYRAexe7hHnmBjHs8ddrH124Tu1j6SVwTCCZcWAaGkIBBitH0o3DoKo1K4m+ZfqGo/pFnz2+Hx7/3i6K8n6eFZ0+XoCJHyxsvGhpXXZQMw/CUeNgmua3HvY8QNU5VMWBwjMIiTTiak6cd9wBV11xKHtwT94uH7eIvo+/nv7HnE/rjxHxrkgrCjKOjYCqQ9MZHJsi0QyqysDzaXQJevkjD4i/dPxAPNKnB+bsCqeGWiEi732BU+cssq74eEPjiAYvAA9heIoBLgS4IqDRvyzcArMyiOkcWr4epw3v99BFJyi/7MZY055kKK8tCUgC+x8BKXb3vz2XK95HCewNYpfQP75AnPP4zI0Pr8+EgykjDC2kQ6WgruNRM1y4ZPVFLgM6g2a3ICqa0SfhbRjat/ypow4OPzOsDAt2JNL7WU50+2QxTp27JHnpig25g6uzQE4LIRCPIZflyGZtRMIBkKOXZZGAdGGIJkS9epw9atC9Y4crv9wVYnFnbz/Kf57yjv347AWbBlixMohgCMJ24TkcqmHA5oDtAcEAoFk2IqIJPaP5zGG9E9OG94s/0rknPu7HWGp750GNKBYswTHzFlpXLFqXPH59kqv1zEC4uBiOVWAWDRkQArDyOYQMgZhiw2tegzHHDHjh5GHGZd+LsYbtva48XhKQBCSBnSUgxe7OEpTnSwLthMDeInapicG9c/DraR+s+nUNL0FOi8B1XT8iqRsGOKfoqudX8IM54HYGOrMR1wQqg0pN77LoJ4N7hZ8f2AvvJOKo1wC7O6ibL/NoK2j8xQXzBMMCYovX4dD5X2XHL92YOnp9g9uzJUf+VxFowTAscggg71rOfZsscjdwXYCcsmKqi0huLUYNLnn+vDMTlw1sRzZZk1eIk59+bePTi+qUOA+XgrvC9y7WAqb/sGDRGjRAhQO4eWjIIaQ6KNKcbLfSwBdDD6iYdmBfvNKlCNRxLr81fiWAngSCyzaiz2dL3TFLNzafuLbJHdCU0/Q8+T+oIYABDifmHCDbX3pSoF96QJjlYOY34vDu4c8uP7NywuGJ7W940U7+aMlpSAKSwF5OQIrdvXwD5fQlga8J7C1il+ZLdmTPve3++pW5VddW54yAowXB9YDfWU0zdJgaQzaXgqbrfr6sYBp0VYXu5KDZKZToNkoiSkPHTpElYR31MUNLmrqW0rkrHIeHU46XaHGVxMYWt/uGZL5nTcaDq0agGnFAGOC2AMWRdUOFZbswGIOmqb5w08ARYuQcUCdG9Uu8cvYJ4WsOLWJr29ud9uxyMfHJmdUPrm4URbZiQgslkHIELNuBoStQNQYhPLhcQKgaDE2F7tlQrWYUKTmUBESmW0VsYVD36sMhI6kbaouqwLI8N5azRCznqomGNC+vqs8M2NTsqpYSBDOj8FQDtsfAOYPBVL/LHD1a2B6HZVOuroqo4kJNb8TQXqHPzv9++aUjytn89sZPzkcSkAT2HwJS7O4/ey1Xuo8T2JvELm3FPCH0hZ/g0hkfbfzt4lqn1I1VIKcFkHNd6HCgei5MxQSDDk9hFDD0X8+DOwgoQMjUkGqph8I4dAZQx1tFKODU4hcKPKHCVQxANcA0cqMldwCywPJgkJuBxpC2qG9xwI/wUlBSoShlshYHFFv2CYPLHzhzsHlHvzJW1V5vnelLxEkvz225/cM1zQen9CK4ZhieYDCF7a9TgQqPU3xX87lQm2HBXaiKhyC1g7MyRAqC+CqUb0sd4wQ8/2ANitChKDp0ZkJRGAQ4PGplwSgSriGbzUM1wsgTO+qQRk04WpLoEkrhqD7RF8eMiN96ZDH7sr3yk/OSBCSB/YOAFLv7xz7LVe4HBDY3lZi+KhdLuDB9caOB+UVD9L45ZFVjT/nsfht+6rA25aPq2xdszPVL6gk4WhjCg190JSjUyulVuQLq3SsMgPkNKQpf1NWMVkepCFwAnm/JVfiiiCN9n4QwjQeX+wJQV4TfLIJ7DgxDh6sw5KCDCReml0a3SD5z2pCKP40frty1O5tv7Ogt+sF6MeiZj3P3vb24amQTpWeEiiG8AhCNaRCCweHkAwZstjWG4xX4hdUCI5vwkBamVITNDCmVg75p0IOAKNiIUTychK6A4zMMh8PI5h3kPB2apsDgGRSrzRh9cMkj448K3DQowmp2dF3yPElAEpAEdhUBKXZ3FUk5jiSwhwm0Vuz+cELJOe2h0OqbuD6oF0c8+fr63324wjohq3eEo4WQdQBGGpe+/FxcgPtZuf8/iqiQwiWxqzC4FJXc/DcaFbzRz3g+7/v5qkyB8CO+6v8dq1IRl5MD4zYskLjOYFAXZemY4RW/mtgTL+xIEdyeugU+rxN9X5zbcvOcr1Lnrm0x1CxL+IV/bt71UxpIiBIq/9nBAzQFBccET/gPRX5kl4QvaV0Su4BfNOiRB7L/nFFoYkGFg4L8femBggGqk4Zv+it0MKsFnWJWavTQTvedMRR37Qkv4j3FX15XEpAE2jcBKXbb9/7I2UkCrSawN4tdWuRXQpTOfB8/mvnxhms3pEJxxyiGrYBKrMC48EWvQpFq/2U6939Ngow+JHIpKukW4rz+9zXKyRXMj+b6IlmhtAb6ImHMYHCOaD6JkMghGuH8sAGlT48+KvC7kTG2tNXQ29GBy4Uw58zHea9/2nTTklreM+WZ0AJh2C4HFy6YooBRaLdQxOfzo6LAQie2QoScfk19fSlqS/84kIWZcD1wpvjne0z1i/hIOBsKh5GvR0xxEFQ4+neJzT/1qPhNY3uwV9sRFjkVSUASkAT8v8/kRxKQBPYBAnu72P16C15fK45769Pmn7+7uP64pFem5JWIL1T99AXm+A0fuKJDVXQw19dmEJRsS3FJ+sbXH6FBZRpcUmegAjQSvNQwgsMTNoLcRpGbweDOga+OP6zoT6MG4bkKxjJ7+63wYb3o//a89PVvL6wdX20nEmke8h8NNI3kv+MX/DmqCdWgrnV+1oL/MAFf4H6DH6MouAbXgx/9VcnEwk/75X7TiBAsxHka3WJOw5EDoo8cd0j8r+2xkG9v3085f0lAEth5AlLs7jxDOYIk0C4ItEbsju2vv3DZhJJJ7S2NYUuAS1pEyfIGnPj+QkxYsjZ9/OpN9VFbUaGHg/BUHTmugQsN4KZ/KlNItdFL9kKeA6dQJRgUFoBKTRZIy7k5ePlmmJqLDmVh0ak4+OHwA4NTB3XA9KPL2LJ2sYm7aBIU5V1fjaFvLsDZK6rzp63b1NAplfegGjo8zUSWG8h79AAR9FNEVEVAYVTQ5hUivWTBxqm5RsDP6fW/5+WhummYqo2SsIHymL7m8L6JqYf2wNTvd8JHjCoE5UcSkAQkgXZIQIrddrgpckqSwI4Q2JfE7tfrrxMi+sVaDFq8umX00o3NI9fVuYOqW9xoWgTAtTC4EvXzSCEcUEYpRXdJczHfEkuFk7VhMBcxHSgLeFbnhLK8b6fQnIN6Rl7p2gmfDYyw6h1hvbecI4TQP25En2WrnWO+WFV72vKq3JC6LCvPeEE4ShgOC8OjxGhBySLkyrA5siuUgpODb8vmIcI8JHQHHSLOxp6VobkH9iyZ1rszPhxSimVS5O4td4OcpySw/xKQYnf/3Xu58n2MwL4odr+5RV80i6KGLHqtqUX/tdUYub4xfXhNY7aDxVmR69maR/YCEFDJj1fTPE1RG8uKEg0lYXNJ93K83aczvuhRjGX9wu3XSqwtb8kqIUJrG9BtbT36rt2Io9c12MOqGrI98h5K8k7GcF0bHuU7qypMzYCuaqmoGagvj4WW9arQ3u9Zgc+6FWF5vBTr2vubgbbkKMeWBCSBvY+AFLt7357JGUsCWyWwr4vdLRe9tE5EhQlDqDCyDkJcIErH6Aoypoa0GoJjAG53IM3YN5N55Q1EBKixBwNCTRlojopAPoeY4sEQAWQjKtJBD5YegZMGMgMZI3cy+ZEEJAFJYK8kIMXuXrltctKSwH8T2N/ErrwHJAFJQBKQBCSB1hCQYrc1lOQxksBeQECK3b1gk+QUJQFJQBKQBHY7ASl2dztyeUFJoG0IzNkohv92Sm2hgxozqFQLKjUB2NxBLZyvxhkD9RcuH9/+3RjahpAcVRKQBCQBSWB/JCDF7v6463LN+ySBWRvF8N9Prpu+JhdNOKoCT6jQoPo2UtSKIWRV4fQBkReuGJ9o99Zj++QGyUVJApKAJCAJ7BECUuzuEezyopLAridAkd3bJte/vDofLbKpS5iGnFPuAAAgAElEQVRQoUuxu+tByxElAUlAEpAE9ioCUuzuVdslJysJbJsAid3fTWl6eWUuUuQo4j/ELhhHOF+FMwaEXrh8fLGM7MobSRKQBCQBSWC/ISDF7n6z1XKh+zqBQs5u48urspEiWyXHWQ2aUPw0BvpdyN6Isf2CL1w5oeTcLozl9nUecn2SgCQgCUgCkgARkGJX3geSwD5CwHdjmNzw8vJcrMhVqIWuBpVTgRrAmUDEkmJ3H9lquQxJQBKQBCSB7SAgxe52wJKHSgLtmQCJ3VsnN778VS5e5Cn8P8Sup8BPYxjXz3zxqgklk2Rktz3vpJybJCAJSAKSwK4kIMXurqQpx5IE9iCB+RvFkb98vmna0mysxGVkwaBC4wxcACR2Q1Y1xh6gv3jNPiJ2lwoR1dII2hqClg3D8hBkDpgZRE7VkKMOYCKCfG8gwxjz9uDWtLtLCyHo7369CQjaaZhcQ4A7CDiAonI40JFjIeRVIF8JWJJfu9tCOSFJQBLYDgJS7G4HLHmoJNCeCXy+URxy80tNk5eko72ot6uAAp1ydjlAaQ0hqxZj+hvTrx+fOLuCsUx7XsuWcxNCKGuz6FDXiC4bW9B7Q03u4JqW3ID6tFeesVCUzebj+bxVzARY0DCbQiGzJWwoTfGgUleaCKzsVBb6tGMJlpWUYmX/EBrYftj+VgihrcyhMpnCgMYMBuVzTjc7xytsxy2zLKvIdpwo51zVNM0yDbVF1Vm1aWp1YVOriQe1tYmY/nlIxdKucTQzRk9T8iMJSAKSwN5BQIrdvWOf5Cwlge8ksLRZ9Lh9Bp88e2X2MM80/AI11QM0VYHDADVTjTP7B2fdMDE+oQtjjd85YDs4QAihzq7BkA8X46wlVfbI6pTbO5m1I7aVh+MBDjMhmLJ5ptz/P8kwlTGonEPzOHTuIqwLJIIsVxxTVnWpjM07aEDgucE98V4fxlrawTLbdApVOdF1fT0Oq2/iR9el7aOa0na3jCMSApohNse7GWMAfQHg8EDuHYJ+KFyhqZ4XUJA3DDTFAuqS0uL4xxVlxntlxfikG2NNbTp5ObgkIAlIAruAgBS7uwCiHEISaA8EqlpE6W9mei/MXpU9Kq8H4ZHocxVf/HmqAiNfj+N7aZ/+ZEzitAFhtqk9zHlbc1gvRPDTVRj59ifrLljfrJ24tlktanKCsJQgPFXzT1MU5ketfZ3m610BQd8THhgvrFvnDJTAoAkPurCg8AwM1UZxXLc7xdgH3z+o7F+DemH6wPjeIf63Z89WtYgDlq5uuqApzc9IZtAxbWtFea7B5jq4akAzUHDq2PyvAN0vPsVv/KvA4EGBC8Y5GM9DJY4aeMDQ6kO6WHVAl6InK4rxdP8Ya9ieucljJQFJQBLYnQSk2N2dtOW1JIE2JLBWiKK7prqT3/gqeVzOiMARCkzocG0XqqFBd1swpJQvvmFi4vQhCbayDaeyU0PPqhGDZ85P/3LessYzmrKBQNYzIFwGQSKXabAV+lKhKIDuCZAgI4HL4fpCTSgCgpppKCqYp4IxBZpgUOhn3Aa4AwYXQVhIsCwO61v+yYiDQrf1743XBu4D6Q2rhOiwdj3GrFrXcFVjyu5vuarmcB1CMcFZEJwxnxNTAY+TU4f/nPB/IpdyvOlD3/YfJPxIOaDS94UDJjgEPF/4Gqqd6Voemde3o/m/vSrwWhljqZ3afHmyJCAJSAJtQECK3TaAKoeUBPYEgVohIne9ZD8+/Yu6M9NmHB4LwWQKHKsgdg03g56R3PrrJpZOOKmCfbwn5vht11yaER3fXYILZs5df+WiWrerpZdAqBGQnDXgQiMRKwRsD7AVHYqiQOMkwoT/6p3Tq3fG/WI80mWcKeB+mFKBUpBufjRYI9FL9XueB004cFo2oE9CyZ98RM9HRg7CQ4cVsy/aG5vWzKdaiPDqjThl1cb8jzY1W4cn856pGiG4/tLp4UADp0cDF+AkcgGo5MesCFAaAwlbX89+HeElAUycSOxuFr50gELf94/z4PEcdJFHQveae5ZH3xzcNfRgzxK8LQvaWrNj8hhJQBLYXQSk2N1dpOV1JIE2JkD5rX94nd//7EfrrkyaxeBazM/Z9RwXqq5BdVMo17LWNeM6/ODc3uyZNp7Odg0/e5M49qV3m3753tLsiSm1BEoggKwNuJ4Dprigeig/ykiii5N8VcGgg1MBXkHH+h8/sgtQ1ikE86CSsgUH5xye50FwFSqFNKHAo6iwriBoAFo+AzNfh0M6B5eceUyH34ztiyl7k2Cryolui9fhRwtXZs5ryisdYARhk9eyBjicIt1OIR2BxCtTQf/Rw4LnWVvsE+WD0NPC13nQyv8XwuTXTGMJevxQCocogKlx8FwLVCeFLkWhNQN6lNzfN4p/lpTs+/nQ23WTy4MlAUlgjxGQYnePoZcXlgR2PYGHPhE3/eO1Vb9v0IrhqHFf7Kq8oF1UnkNYZDBpRNmdNw7HL9uLmJuyTIx7/u1ldy/cyLrZod7IceYL3WCoEFEsKDTXF1m+unI5VE6d4RhURfVzk11a4+aIpKIWXtFTmoNHYUyFgfnhyII6+/ovPRLE9ubzDBJt3IGeq0aXSC5/6hHd7ht7jHlnZ9b+c1E/bxADv1qZvmdDrX1sygnp3AiAq0CO9l4riH96QqDUDVVwPzLrPywwSu0g8Vp4GCjw9Q8uCFyocDx60ChEhQsFbAV6fhoEAyzHgxlQoQNw7TxELo244aX7dS975sDuyi09Iqx619/lckRJQBKQBLaPgBS728dLHi0JtGsCU9eIU/4yed1z63k8lOWUxqBBB3ntchiqC9gtOLpX4N2bTotM3NNCZLkQ5pT38JM3FzTesqkxG1ZCCWRsHQ5MqCaQs3xp6wsyxY/V0ot3iuQqYIri5+Cq+RRJsoKg9aO/qi+C/fQFQYo3UPAZ3izgSKtxUM6p68teXdXhOJ7/cyNI6tiF21KNbnFgWO+ip845KXzToUG2tr1u+if14oglq+0HNlQnD3WZCU+LwOEKyHqOBD+lK6j0oOPL1M1RWeqq5xXErcK8guhV6OGA0j0K6Ql+JBwCummA09sBUfg97YQfFRcMTHgI6hryOdunGQjp0OhZJGcjZjhe9xJzxkG9tBsGxNny9spPzksSkAT2DwJS7O4f+yxXuZ8QmNcouv7h8XUfL7XiFQ1OAJqqQ6eCJCcP09BgZXPok8gk/3he5YmHl7K5ewpLdbUIT/nK+s2jHzbeUONGfcGl6qZfMGVThFHVfYcF+qVGrgqeC43noXmWH61khgJTcd2KoGiKh7SNsXi4+v+xdx7QdRXX+v/m1Fulq25JtlxkG/deMJhiuum9JhCK6b0lQIAQkgDhkfAgoSSE9ug23diAwWDABdx7r5JlWV23nzr/NUeQfx4PjISKJXtrLRYLNGfOnt8cSd/Zd8+3/QG9Uiw1leY50fpkt0TaKmqIWbkpk/lStgQLTYfbhA2bKw64ySocy4WuK7BMIC3u4VMgcQ7VrEc24jioX/as844OXT4hi23bW6x+7L4b6/nhs5Y2PFOXVkoNAU7RvEN5jqhVFgf0vJKFpoNlklekKw6V2VAlDpXBkiUeD/iUelWVa/0+pUJVUS0xxB0bYcvi+ZbtdIumUjmm5WSnbSfDEm8Zig4mqZ7oFVMKdzJVPFccXi210MKqBCiOCdVpQGmeb+G4fhlTDshiyzsbP4qHCBCB/YcAid39Z69ppfsBga2c+558oXLWJ9vZxFo9D0nJhSJzhLgF0+Cw5CCy0YBfHx+54pfD2D/2FpKH5/JfT5u7+8FaS4EliXoFDabwxJWYJ0QNh0FRPX0GzQGCViPylAS6h9yynvn68tLSvPn9S/B57xC2WQEk0kDqOycF0TyhGvA1xuFvtNBt/XaM3rCjftKmGmPM9gY+aHdaRloKwVYDnvAVYlozm0ShKz7292pSU/AzBz44GN9HffHOM4M3diZP2VVRfvDsb2r/VZfSDnC1ICzL8PLVml+D7TpImy5URYciDue5LlTbgoa0G1Ss3fkheUVRQfCb3Ezti/ww1kp+xBsBoxdgMsZc0cADgFID6GYKkap6jKqoNg6tT1gTGlI4IJa2s01xClANgssyUhbgKICodHBt4XjhQpVt75MEyTGQH8bnR0/Iuqwf67wOIHvr54DuSwSIQMcQILHbMZzpLkSgwwg8+6n126fm7L6/Si9AwifspQxkuKKMwY+YLXrrJnH2MPP9B06NnCrETYcF9u2N3t/CT/rvmY3/s7nRlyl8ccVH5LLu81wCREmBqjZlJYXLAqw4MuUk+ufJmw4ZnPvsQQPwfnEWthQxlmxJ3EIAL02jeP46TFq8IX35+l2xCTujDgw9AkXzQU5zSEJg+wHTBpJWEn5dhWsAvcIpnDjE+uPtR+Tc3Rk6hwn/3C/Xmc/vqLcPtJkfScOFqsmes4JhmV45h6bKcCwTtpFGgAHZQb2mZ35wWp9ueL1HLpZHWtgMQrQX3hxHXk09JmyvNC7ZXRubFDVZ2FGykeYMXFgfi1pp8TQxYUzmwLVMiPrpLB/QO5O9PGGE/7rO9MLQkueHxhIBItC1CZDY7dr7R9ETgf9DYH4ZH//bl2oXbHEiMIMSTDsFnwv4pQDSBuCzLfQJ7ojdfn7p5COK2dyORDh3N5/w2Ftr/7WmLjIwyiPgsvhYvOnkv2FzKBKDLgpMU4DfqcbAImfHxKHZz44dqr1+UAZb1xaxCouzr9fguPnrqq/8ZnN6bEzOhqXqXpGrOMAlalPTsnB7ALS0g6ATR5E/5Vx2YuFF5w5mL7dFDD93jnLOc5Ysjz26Ykf8F6acCVtS4UKBojCvrCCdBnRdOCRYMBJVyApI0Z55WR/27eF7tjAbX7b0JeGH4hR+zuXlOGF7RcMVZdXp8QnHr9py2HO2cITXsZcZF0fWRCm1A2ZGEZEtc1T//D8fUYr798dWzT93v+k6IkAE2oYAid224UizEIFOQ2B7A8/6/fvO+19utw9O+VVYItNnO2C2DMWSEVQBKb0dJ47NmXr1iaFftYUAas7iN8V4/t8+qpk6e2Xtoaa/AKYoJRB1A6K5gSlssSQEfBLcuI2gU4fRffxrfnls+IpJReyr5szf0jGrG3nf5z+IPzFvc/TonY4EJZwD17BhMwWuXzTjAIIiYWmIcgYXfTKTVdeclHnO0b3Z5y29V1uMF+UFn2+yb1uybuc9ppYbiBqi5ANQ9QBs2ztbB00VHX5dqKhFTtCtHdqv4IH8Yjw9mLF4W8Twn3PsSPCixZvjd5RVpy6sjWsZrqzDkUVWVxwW9HmNKMSBNSOWQCSgICQ11kwYknPT6CLlpbaOheYjAkSACOyJAIldej6IwD5I4LH5/NfPfFL3YIMShqmo0MQpe8OC31Whq4DhxtHdX5/89ek9zjy2F5vZEQieXujc+Y8Pt/4xoRcjLbzCPHEkw7Jc+ERGV9hdpUwE7VqM768sOeOQvOuO7MXmtWdsK2t5j2lfpv88a23lubXIgC2y31zzGlKIKgofa2qiYJocOVIjjhuovHPh6aFLB7OOby+8pIYf+dXSqper4rwgkFGAWMqC7JNgCaFrydAUQFiocSOObtnWuqH9sv5wcD5ea0+LOdHWeeM268p122O31sXcIoP5ITx+XUhejbguCUdewdCFwuuQFzLWHndQ8Zk9dbamPfeV5iYCRIAI/CcBErv0PBCBfZDArJ185KNvVk9fHw8Wxbgfusa8bmOaa8OyLHC/H5pRiZMH+qZNOT1yaT/Wvg0APm/kY//64oZ310bzC5MsAk0DUpYFSVNhpQ1ENB1Soh5+qwGHD+/2+ZkH+W86uDtb1hFbs6KBZ733jf27D5ftuG5nOoPZaq7nCiFqYIXBgHB/EG4NmZKJbnIFLjmm15SLhrNnOiK27+5Ry3nGx0tS/7OmPH6yHMhBKulA86mwmeU1y1AlH5gDMDOGknx98fCB2i3jsticjohRZJznluO8ddtq/1hex3tacgiy5kPahPfM+XzwymcUKQk/Gt3hpZGHJx/gF/XPVkfER/cgAkSACJDYpWeACOyDBFZzrr3zifvXaUsTV1fbYe8jZc9vVTKRtkw4WgiqnUSpHk+df2T+ZZcNY6+0FwbRxvhP7zU8N3tN9Myo2w2mpHlOC7bodMZsyI6DkCUjy6nFhFI294Jj8i8dm8fWt1c8PzTvPM79sz6OPjJjhXnVbiMLiix7bXbTkgWmMsjiBJbosubWYUKJtva2yQWnDe/AGL+p5Od8saLmqTonHJF9OhKNNvx+BaZjQFXg2csxI47cDHf7uAG5F47LZ190JD9xr/nl9kVLN8T+XBmT81017HVvc4UFsvDe9c6tOQgoLjLRuPPocbmnDoiwRR0dI92PCBCB/ZMAid39c99p1fsBgU938EMfeLPq7Z1GTnbaYbDgQNaEH6uMhAnoTELAqsegPL7mtrNzL5rYTuJj6jr7rKdnVbywvj7g1wM5SFqihS2g+pp8dDUnjVAqjtHdtfWXTs4477BitnRvbI84uPbIB8kn5q5NnMLVPKQ5YGhJuKJ7haNBFrXPzEDE3InLJnS/75pJwd91RJy7OM+b/XX9S5vq3GNSahO/kAbYhgNZlaCInU3VIS/oNowZWHTLIcXs2Y6I6/v3EC9YZevMe1dsS9xUZ/r8ss/vWceJL9HlTtUAN2kjSzcwoFh6/KQh/psZY0IH0xcRIAJEoF0JkNhtV7w0ORHYewREh7LnZljPfLi07hf1bhgsEEBMlA4oEmThNuDYULkDOVaB44d1n33BEepFB+aw8raMWAigf07d9uKcbf5zGlAAy3ShaBIs0dVMCCBhVxWrx5Acq/7SE/IvPaMve7st79/SueZF+YDHXtv59rrq0IBGHoSrpZAWvrFqJiwLntjNZvUYHI5tu+/KfuP6MVbd0nu0dPzXm+IXzd1U92iMZUca3CAkFVCFJ7BpeR3j/IoN1aoyxgzMf/iY3tpedTvYynlk6Wr7ha/XR0/2RbJh2C64KwqfmVf7LFK8AclAppKoOmpc9uRBEbakpTxoPBEgAkSgpQRI7LaUGI0nAl2IwCflfMLfpu14Z0M0nB+TI3A05pn/24bhlTY4DkOOX4UWrcCxI/JfvewI9ca+YVbVVkv8tJqPeuqd7e8trwwWm3ouHNuBJEoERFcvUVphAblaFKeOCf3l4EnSryd1gkzfq2v4L598t/zFGp4NU3ZhCncG2QfbAnycw+fWI0epwyUn9r340sHs+bZi9UPzVHMeXrC07rXVFcnjE2ouYtzntQHWRGc50cHBZVDdOHoXyPOG9Q1dMLITdHpbXssPnLMq+dauOC8UnyI4Xj2DAkV0cBa10K4FH09jZN/wY8cfAJHd/Tb/254kaW4iQAT2ZwIkdvfn3ae17xcEnppr3f/c7Irf1sjdYTEJovmV5AjDfxcMOlzbgeYYiEj1OG1i0cNnHybd3Y8xoy3gPLyA3z1tbtnvqxv9kEO5MF0XrsjwQbT7BZBoxJhe8parTgydeVj+3ilf+P46KzkP3v9S/bT5W8zjYlIIlhaEIZKTDhAWg20DLq/FIQPCX958Vvj49rD1+i6m9TV83BfLy96qSGrFppoJQ/JBGFnosOATxbCmDT9LJw4amXnToUXsn22xZ62dQzSgmL4FDy5Ys/N2aBFwKei9KIiacc9S2XYAy0FxGDtOOVCbWBxgZa29J11PBIgAEdgTARK79HwQgX2cwPokL/7rO4lXvtyQOtRUcyFUrKw44NyBxDRPe4ij/H6WQFEw0Xjc6MKHjpuAx4YzlmgNmi1xXnDv9Ib3F2x1xjqGCj2QgaRrQ0hscAY/NxDhdThzYvGDtx2Ku/ZGN7cfW9/bm/jkJ6Ztm1GWzoTpz/Lqd+ECGeI3pgOkWRq9M6K494z8Qw8vYl+2htOerv1yG79m/sodjxlKREqzAGxJ8ZwiJG7CL4kGISaKs/XPJg5Vz+sTYrvbK46Wzrs6zfvOXlj5UXXM18dRIjAtF7IseY06xAJkSAjyJI4bFzhhZD6b0dL5aTwRIAJEoCUESOy2hBaNJQJdlMDHO/nBj79eNnVHMrPQkDOQdk149QxcEroTaTcBny6aT5goUI3UcWMK/37cSDw0JoPV/NwlL6rk42+ZVjNrWyIjrDkuJElCSrT5El5ekOCzqjE8N152w1mlkyfmsNU/9z7tcV0F54G/TK15c9Z687iY3g0WJDgOvOYSokOYy2RE3GrcclzezReOZn9tjxiEh+03K+wXVm2vP4v7Ikg7ChhjEIrRcW34XBMRlkgfPDjvivE92YvtEUNr5pyxKfH7xetSdxui05vXS1i85HCvlEHTGFQzhQP7KH85ZqB2S2vuQ9cSASJABH6KAIndnyJE3ycC+wiBZxbza//nk7K/VKT8qqUEAbXptLw4KCb7LVhmCipUaFYKuSyBScO7TzvjEPabMRG2+ecgeHMFP//371e/VKPkMRUczDEh+msJke1IGoJWBU4eaE+fclrJmW1VNvFz4vyxa15Yyq9+4sPNf6+08+HqYS+jKspLRYWpLMkIGtW4YBR/5a6TCi5oy/t+N9emNO/78TeJjysaeW+mhWCKdsoiCS+zplIGnkQPPb7t2In5R/fwsU3tEUNr5lxRzw/79OuaabWWP5frQc9+TGy/cOBQVdGZLoYBudaiwwdlTy5qxUtVa2Kka4kAEdg/CJDY3T/2mVZJBLCR84xnPjIf/XRV7cWNTg7STINpAcEQYKbS0FUZruvCSqURVn2QYrswcWD+VyeNC9x54gEt+6heNBp4dJb18L/mR2+u9+V4B9IU5njZSJEZNdUAIu5u3HJ09vUXj9Ie74zbM3s3P/gvU7fOWlOj+c1AnsdL2I8JVwE/Zwgbu3Boj9pVV58+5PCBGay2rdfwTQU/fdaKhueSPCPDdiXvgJe4t0iQGhwIsTRGFJjvnTgq42zWRjXWbbmGXTGe98maxo827rZGuv5cGKJcRrxYieS0dzixAT398drxI7qfNCyHzW/Le9NcRIAIEIH/JEBil54HIrAfEViU4iVPT298avm2xOR6KwBHjSBludAkcXDM9g4QCTsr15IQUhiU+E4ML9G2HzYo68mDB2mvD2zmaX/RSOIvrzVOn7mBHVavZSDFXKgKRwgubNOCLWsoYLvdp6cUjxqVxZZ3xi3YxHn+n16pmTVvmzksredA5L3FlxCcPi55md3BkV2JW34xbOK4rLbv9jZrM//NvDX1D7i+LCTTgF8DmAuISpC0C2SpSffoA3xXj+0tP90Z+XHO5RlrrUcWba66wfIVIyUaTLAmuzlRiqFYUWTJUfPQod0vGV3EXu6Ma6CYiAAR2DcIkNjdN/aRVkEEmk1gbgMvnfVV5dMz5m06MhkejnpTeLfyJksyx/TqQhXZBzg2ZNuE7iSQoxsYWOxfesjgnH8O6Y1XR2axhj3dcCPnefc9WrZ0Q7yguAoazIAFLj7/T3KEdR1msh6H9w8tuftc/YhSxhp/KniRlU7WYqDlIFP1Y/vwjOZ3WBPuCjtqMShlIS/Lj925mVhbxFjyp+7JOVd+9yWefP2r3ZeZUoZXeuFaaaiqDttVoPMUCrQK3HBG6fFn9WIzf2o+8X2R8W7Kb/7wF2OMizG7AN/iDXho2bq6a7ma7TXhELXVQiTKKpAwHOTrqeg5B4YO6hnuXPXO/7myBRX8l1+sqPpng5Oh27KvyY1BlG1zFypLQ3eiGD+g281HlLZP3XNz9oTGEAEisO8TILG77+8xrZAI/B8CK2t5j9e/2PHsRyudo1K+EhiQkBa2DIriCRLH4XAcB5qsgAlt5qSgWo3IU+MYXpLxzWEjCv46ejA+/bGmCiuTvMc9j5VtKUvnK/WSjlTQABcZvbSGsMwgJSsxeUTWtKtP1n/xU/W6i8utI1Zsqbk9ZvL+jitpDFZj9245Hw7s4394cIhV7ml7V9fzkcu2xu7Y2WCNBhSfbCWTxZn6ovF9sh7qnf/T2dj/WsjvfPHTqj8meBiuJNqWpSHJGgxXhcLTyNKqcP2pJRde3I/9z4/FsSnJe+wubzgyETeHOo4S5EzjXPMz7tpeLbNlG0xRfU3tiS0TUlBlJpf9uyoTh0cTWjGkgFejC0nY6rqQFQbTNFEUNLedOSo8tjPXu66o5od9tqL2zWrDn2PKAa8Uw3VEKYgLFRY0pDC6b9ZDx/bz3DjIb5d+VxEBItAuBEjstgtWmpQIdH4CoqThn9OjT6zYnjqhKg7IwQKYQnAZAJOaDhEJX1zORKGoBIk7UG0DQW4i36e43YJs+ajBoTm9u+GLPrlYkZmJ8u+E6yd1fNif/r5leZVdhKTmQ9pnif4HkEwVAQC6sQvnHFb42D2Hsxv2RGrpTn7w4vV1f6+MWf1cWddlicm2mTYlxhr7FmW+PWaMfls/xqI/NMfGBl76+Yqaf+2Ou2OihqP7dZ8SkFzXTUcTPfIyvxg3OPv6/hG2ZU/3f3Y1v/iZGZXPVlkhiEN9zG3qWmbaMnSWQgZ24cqT+tx25VD2Xz80z4IGPnr9Dv7QzoraUabFAozpmskk5og2aEyUjzCvrINJCpjEYbtCTAthq8C2GBQp2JQHFnZjksgMG5AlDm476J0lLTjtIP/kLLbnLPvefBLXxPiQz5Y0zqhMaj1MiMwuA3ebxK4EEz5mYlD38LOnDZGuZYyl9masdG8iQAT2XQIkdvfdvaWVEYGfJLA8ybtP+9L84+wl5b+sNcLMUPPgCEcyDhgmh8/PYIk6W1FsyZjXWIHZLjTLgc4s2MkGFGYpKMmTtuaG2ersLGVXIDNzS9xGt5mfVd0QNyOwdA2GbMIBh2zr8DsuAm4lLjm+6I4bx7AHfyxIYf/1+fzoE9vq+JlpBIKuLEOTbMiSBCttWEHZqDh0aPZN43v83xbDorHBR+vt387fUH0LC2SHbZtLrusgQ5OQjke5qqBm3ICC+4/uy/Z4OHHudcMAACAASURBVO7NbfyEJ9+qmLotGfan1bB3QE2UedgWR4CZCLi78Isjez1864Hs9u+vYxvnhTPnpV6riGK8YXJd1gJedlvU2zpC+MtNjSrEYS2vla74EplPUTstWIl6BfF94WAg7LpUgDspyEwIRRn989X3zh0ln8eaUZLxkw9COw3YmOTdZy+JfrorrvRPuRpkWfGeLaHeFThQ3SRK8/WPJ4/2nZ3djHKWdgqTpiUCRGAfJ0Bidx/fYFoeEfgpAuWc57y7ANdNX1Bx3fZYMDutZHp2ZIoCISqhqKLbqwQbHFxkeCXJq7kUtmWqpIBbHLIbh+s0ilNHkHw++EL5qKlJQkHYyxBbPClUHFQehOJYCLIqXHF68UVXDvpxf9hKzvPfn2fMLI+pI6KWJImaYtk1PFcHUVMcQLJxRHflz8cN9v/p+2sUB+Q+/Dr2/OZ6nGCwsE+sRQhU2ClI4rCcT0+U5qrP/3K4167W/DFGsyr4xMfe2PHe+kQkK6FkeGLUy7CaHEHJguZW4/QDC5/93STpCva9VsdLyvgZs5fVPhHnwXwoPjAVXjmCyYV3WdM8rmlBVXQwl3k+vrIifHwd2NwGgwqGb8WhqDD5TuyKpiBMxqAi7V9nDMPVe4r/p/a+vb+/nfOsWfPin+2MSsPTXIEsqd5LD2PiGbIguQn0ypEXHjsufHwR+/mezu29DpqfCBCBrk2AxG7X3j+Kngi0CQGRCf1gJ45/Ycbuh1fvSA2Ug92QMAG/3+dlFQ3LRtoxwBVA8+ngkqg1FZ/Eq3BtQPMylRwmM5EW/0P1QxGi2AR0WTRBiINxCQoPwOe6CGAXLj+l+KIpQ35c7AoR/t6c2PSKlH98GgrTfAAskVkWpQQMutnYcGC/0J+OHuR7+PsQRFb404XRf2zY7Z5uSGG/qspeNYCqAI5lwXaM5AHdAk/9aqR0+55qRT+p4Ic8/sb299cmsjLjcoaXkfXa3locfhjQ3XqcOr7wufuPghC71n/GMWdV/NdLtlp3xlhGhitJ3rU2N72626aSBBeMc6iyYKjBtkXW2oWkMC+763IGiYk2FuI9wYWmiHrXNEQfMuGHfECB8uzZI3Hl9+/bJg9EG01Sxnn2R/Pis3dFMVxkdsWLkliXK8QucyA5CZTmqguPHRc4oZCx6ja6LU1DBIgAEfhfBEjs0gNBBIjAvwksivIB0+fV/Xr28vrzG50crT4dgKxq3kfo4iC9aKxgwYKjcE+4wJK9Rgc+oSSZC1OSYDAg7trQdRUiZyrEocNTkEWTWFfzxgbtMvxqco87rttDGYPoIDZ/ufH4ml3pC9Is0yfcCCRT1LkCjFtOhpTYecSw7GtGdGfTf2gLP9vi3Pr1uuq70iwSTjuqLA7ghYIqHDMO2U3WHTIi/45je7B/7Gn7393IT376va2vb0rn+P4tdkVW1hRrTiHAGnHuod3+686J7Lbvz7NoC79szpqGhxrdULYtSeCK6FbnemKXQYZrm1AUyXsJ4K7s2YqJX8jipYEx7olCSwheTxgLji64LcoYxEuDgr656vTzx+KcTl/GsKjx06qE3D/NVYj0vHiGvhO7spvEAd18M48bqZ2b8yO11/TjSQSIABFoLQESu60lSNcTgX2MwCLO1Y2bcMrM+XW/XbvTHR63gjBEVk6WvfpSGw4ccWhNFJpyDl2WoJiAadpguk/01EWjyaHqDJLI/kocrisszWRIjgKVc2hmGX45qeSxOw/b8wG1lVF+0Mdf73w6ZmX0c5lPlS2L6TJzXTfZ2K8w9Obho/Vb8hiL/dAWbK7jJZ8vr3h2d5SNhy/Xn3K47JgJBHTXKM7V54zpF7p66E90h3t5Jb/0mRlbn9lpZCGlRmBKTeUdnth1U8hUGnDRMYW3XTfy/x5Q21LPh8/4uuGNOkfvbTBJ5d827XCE1OVNB9RE7apo5CFD85wKvA5jXpc5Di5aFIuTgkLsemYMDmCLA2oSJFtG72x14akTcExnPqC2Ns6Hzl4Ym1GbQneTa2CyyOzKnthVJBeKG8eQ4tAzpzcdUDP2sR8lWg4RIAKdhACJ3U6yERQGEehsBIRl1vQl6V8u25E6d3mZPVQ0oYDc5A4gBCtXmNcsQrgs+GzJ027CvUzUpoqDWJbtQpUYXMeE5BP/lmDbCnTRWMCtxUnDM6f95QTlgp+qOV240zpqTVny1ljSGWSnLEWB01jSI/fDUX3VR7oHWPmeuG2q5qPXVqRu3lIen5By3WAoIKcKsn3fDOge+vPQPLbop5j/fSH/3bMflt2blCJIwA9bUcBkwE25iGg2QvZOXHNa74t+9QO1x6KpwidbcPnaXcnbKxsae3JFZ5rqh2EBXGTEFQU20pBlGdwU4k9kyR1YwutYkUUBLwxb9soamloVu169smvZ0GU/8pTUtjOO9I/rzB//L63nh3++pOHtxqQc4arfs7OTFBUpm8OncuhuEsN6Z/zppP64m4kF0hcRIAJEoB0IkNhtB6g0JRHYlwjMr+e95m3H6cs3W2dtKo8fWF9veA4BjqrADAWQcgDN8UMStZheZhJNgpA7kIXVFHe8phUOZ+CO6nXQ4lYCB5c4ix+9IGPSj2Vm/5OhqN/dvRv9uIuMzDB29g1h/fcPhP0Y89panlHGMcBykRvQURNwsaH3TzTFEHNxztW7P8M/35lfd5Ej+2FCg8EkMJnBNUS73gS6Kbtx/Rl9TjyjlH3wQ/cXc3xVixN3VDRe2BBP9XUsxec6iqTAz1RVhcFTopSBcZN5tbiSR0tkzhlvSNr5hquHXEWHOFsnyhlEdpc7wqNWRUQyGk6boB/YpwUNNjr6ufyqgl+wYHX0uZipqJC1/yV2NdmB343ioANyqalER28M3Y8I7GcESOzuZxtOyyUCP5fASs4LyssxcH25feKqTXUnbqxs6FftQopaCpgrXBdyIBqEfSd2RQGql8nzPoa3hHgEg88TwIaTQqm/Do9fWDx0eDZb9XNjas/rtiV44W/fcz+cuyU9TGUSuKwgLQS7ELwug8+px6BILHrLOSWTDs1jS/YUSx3nmUYaWbY4Wya+/uMDe6aD4Vs/CJEwhw7RWlfZUoUrlqyru85gAckU3dtE3a/4jS08d10g5KadY4b5rh73E3XH7cloT3OLDnTvrsMjq7fFrjdcUfshxK7l1YCnhZMHM5DhNlhHji781Zhu7JW9FSfdlwgQgX2fAIndfX+PaYVEoM0JLErwwu3VGLW63Dh8V3169O5aa3C0EfnxBGDYgM0sGJzBUSPgig+2a8O1HchMhSxLsGAgYlfgjuN6X3n+aPZ0mwfYBhN+sZsf/NtpiY+3NvoCmmt5ol14IQiDXFmS4TOrMLGXs/qGUwuPHBpiu9vglv9riq9389PmLq56Pub4M2w1BFv4+wq7Y5F1doCgm8awAmnaaaM14bVrt/X9WzvfJs7zP1tgzNxRZ45ymc+r2eaOCVl8IiBsyHgKeVJ9w4kTik7om8HmtfZ+dD0RIAJE4McIkNilZ4MIEIFWEVjNeShdix619egRj6FbwkJhtWmHyhrZqNmrosc3sggcUbvrilpdQBG2DsyEZpTj+IG+9y8+o+jMwXvwum1VcK24+Kkl/OYnPo09Uu+GoTjC25fD9E6KyV7JQciswBkj/W/ce3zW+e3R6nZNivecM6/+k+qE0tdSw7CF+YXoPiYafDgcQZjo5ktsPWxC9pED/GxrK5baLpeuqOeHfbgo/laDqWRzWWtqnCHqtxUZolGyZCcwIMtYfPSE7OO7MVbVLkHQpESACBCBpn499EUEiAARaHsCH9fxgx98qWbmpgZ/mOtNB9s00XlY+A1INhSnFv0zE9U3nF16/DHNOCzW9hH++IybOc/8y5v173y0QT48JWd4Il3UGpuu7ZUSiENi+awGNx7b/dYLx7BH2iO21ZxrKxc7r2+qTJ9qsKAndh3uQhY+vLaDoOQg5EZT4wbnXTWxJ3uhPWJozZyfbOb3LdiYuCeBoPeXRvyxYVYakBgcSYfmxnFwaeivx/THLUx4rdEXESACRKCdCJDYbSewNC0R2N8JLOc8//E3jBlz16VGG0oGXFfymk84EkdS9AaTDWSzWpwypuDvJ0+SbxrzvaYMe5Pf6xv5SU9/sOm9rYlCGFIQiudzK8Su5XnjupaJfuEE7j4rd9KkQvZ5e8X66VZ+45L15p+jlqLawqfXayPM4ZoGfDKH302ge5b+5YRhGWf3DrHK9oqjpfNubOClX6yq+2RH1N8rrfi9xiTCj1lyLM9rmCs6dJ5wThsbPGlYNpvZ0vlpPBEgAkSgJQRI7LaEFo0lAkSgRQQemMP/8O78mrsa3DDSjgxdloXTAOIiy6sDshXFgHBi9wO/KDx5RCb7pkWTt9Ng0Wr4kRnRN99dVHWM4esJE6rXUEMYYzmuDb8uweckMarYnX//BRkn9GSsvp1CwdJaftDcZcmpVUmpyJR9nsuFLNo4p+LQJVEWYsPHE4nDxhbfPK7bnhtktFeM35+Xcy59tRN//nRh+S2Gng9X1rxDdarI7rqm5yMsazoCiG89b0LGxJIgq+io2Og+RIAI7J8ESOzun/tOqyYCHULgowo++qn3Gz5YujtdwPzZkGzX6xZmSzK4LIm2vchwduOyQ7s/eush0m2d4aDVG+v4mY9N3zF1ezIIpoVgujqY12YYCIhOcqkGlARSuOjowksvHsGebU+QwsVh5pc107bGlKOiohxAV71uaoqwc7NtaEwFM+oxoFCeN2ZY5Pw+fra9PeNpztyLavj4r9bZ7+2KIt/iCnwawFOAwmz4dAbTScI00xg3MO/xU/vhRvLXbQ5VGkMEiEBrCJDYbQ09upYIEIE9EtjKue/xt2OvfLi27rQYy4KiBrzmEroqIZa0IQcU6FYj+vpq6y8+ps/V5w5ir+1NpHOq+Mgn3tnxysq64IAki4CLAl1FQtptatmrciCH12FYuLHitkt6jx/+E00t2mIt32y3p8zd2PhQrRPMSrgqJEWC5HBo4qCa8N81TWRpjanhvcJ/PqK/74G92YmsjPPsr1Y6Ty7ZGj9bCmQ2OUdYgM+rczagCuHrJJERlqsPHZ5x8uhMtqAtGNEcRIAIEIE9ESCxS88HESAC7Upg6np+7lMzKp7fngjrScUPpiiQbXjuDKKQU7KTCJqVGN1drzj/yOIzju+9dwTQhjTv8/Bb0afnb0se1WBp0P3ZcC3AlQBbeN8aBnyqglyzHFeMDT14zdG5d7QruG8n38V53qcLk69sqrWOSnDRxU6FzL3KAM/TWJMBZkSR5zeqR/fPu2NiD/avjojr+/eo5Dy4cIN914ptDTcnnIDO5YAXp2M31TsL1atKFrjVgJEDi/52cl8vq+vsjVjpnkSACOxfBEjs7l/7TaslAh1OYB3n4efes5/9YGnlmVF/EcRBKzsBBH2A4QAycxBQTCjxchzUN7z4opO7XTCxg7uCiTrdp2elH3tzcf3FjYhAlTVYpgOJy3AUGYbGwd0UAjyJYZH05j+d2f3UQR3YDGNOGb/gmzU1f0vycCTl6lBUIC0aUYhTX+LgFwDVaURB0CkbPSD7soML2McdvdFfVPLLvlxW+ee4rWaFwjmIJ0zPD9jv05BMO/D7ZChOFCE5seuogwpPGRJkCzs6RrofESAC+ycBErv7577TqolAhxKYuZ1P/PtbW9/bbPXIqnWUpsNKoj+D+A0kiY5hLnwsjSy3Dof0C3906ZGZV4zK6pj6042c6y9/gfvenl97e9z2M4cpCGsyzHQSDpOhBAOoSlrI1E0UuWXupccOuPaS4ezJjgS4kfOMJYsTb2zdbR6bcIMQ9QBe0zVZZJwdKJo4/CcO/KVQnCmtG91Xv3JcHpvTUTF+tZufvmhD9NHqmNMDkt+r+WCQ4QgHDr+CZMqBT7ERQhRDSjL+cvwA/XbK6nbU7tB9iAARILFLzwARIALtToBzzp6a5/7h6U9331mNPEBVPGcBIXgtBxCfZesqoKYbkeXU4IjBWbMnj8++7cjiPbfhbW3g66M8953F7r2vftNwbR3PhmXZCOgKJCPpuR6Yjgum+5EyLYTcGkw+QPn02rO6ndePserW3rul1y/dxU+Yu3z3vxotf0HUDkIJyjAcDlljHkPhFiEzQLcS6B6Rtgwp8d91UA9MbU9RWcF5YN0WXLFse8MdNSk3T9HCsEWJhWlAUXVwSYVpulAVBtmqR4+QufWoMd1O7RNiK1q6fhpPBIgAEfi5BEjs/lxydB0RIAItIrAjwYv+MLV62pJd8oTdlh/w+2Fb8IpPQz7ANtKQZFE6kITiRjG6X/7KUw8O33VGET5ojxP731TxETNWpu5+68tNp8f13jClEGRZHKRyoTEGx7HgSC5gm8hROPpmmg2XHpt3weRSNqNFC2+jwZxz+ZPV6d+tr0zfsisu+7k/DMuxoAdUuCZgGMKdQQFzHWgsjWy/u2vUwPCfigN4qXcWa2ijMP49zc4k77GiHNcv39ZwZUPSDWmBEFxXuG0wKJqOtMXBFQYj7SDic5GrpaMjuvvuOKRUe6KtY6H5iAARIAJ7IkBil54PIkAEOozAx9v5kU+/u/35jbFQ93qeCVEyEPABTtyEJFmQfX4YQrmJEgezDr0yzIajhhY/d+Qw9fkDs9smG7g8ybsvXZk4/8tV5ZfO35HuL2X1QX2CgSsBMK/6Fd7BKu/4l8ygWw0o5HX8oiP73HzJePz33uz2VcF57pffNDyyo5H9ot5WJKb5kEgbCMgqfIoquvF6DRyEVZrrJBFQjVhpt/Cswd2Vfw7KxmzWBm2Z6zmPbCvDqRt3Nl6xvtYdZ8hB6bt2wPy7txdZgwEG8S4j/IAjiJpDe4T+eMIA6aG96RbRYQ863YgIEIFORYDEbqfaDgqGCOz7BKat5r94YvqmJ3Y7+eGkHITLJShu06F8C4rXFlc4fmlCdKZrkCkncEBhYNuBQ/P+Nb4fXjowgh0/J9O7lvOceWtxwleLozdu3BEdGbU1pDU/0kwGE56/UGA6ile+IMoBHAPwKYAvsQsXHl746CmH49eD20AstnaH10Z5/8Wb4q+uq4iOSsmZUNQgdMeGbFlgDoOs+GCK8hAOcMkFc+LI1q3dfQtDb/cr0J8blIMVjLF0S+MQLZR3VePgLWX21RW1DZMSphRwpTAsNHn/eofkJBeSJFiKBhwckijOTjdiZI/Q60cNk6/IZqyxpfel8USACBCB1hIgsdtagnQ9ESACLSIg6nf/tgD3vvDR+nsbWBbkYB5M04TlMOh+DWkbSBpAKNCUFeTpBGDWIaJaKM5gNQf0CH41qm/++wf0woJeIezMAuL/WZcq5hfH3nYDvloDhau2Y8jyTTUnbNiZOLq8XupZm9LhsAhknwbuHY6z4DIbms8PhwO23XRwLihxoH4XTpxQ9P65h+Di8RmstkULbcfBX+3ik1Ztr3umIqb2sYQ7g+tCF3LTZd6hMBMyXFETrQOOcLxwUvAhhQwpXVcQVNaW5Ebey8/WZmXnYXM2kPh+Xe+3DJVKIFJWg0HlNTimuiF5Yn2Sl8ZNJ+hwDUzW4TqiZAGen67gJgB63ebEvWHDSNZjaGn+nLE9cfGACNvajkhoaiJABIjAjxIgsUsPBxEgAh1OQNiRvf6R9cD7i3ddFUW2ZEs+z/nAEYesNOYdXDMtcajfgco4fJIN1UmDWTFIrgVVUxDSWENhxLcjHFRrI5mRilAYFZyDJxLIr4kmi2MJK7s+nu4WS7vFCUOCKelw1aCXibSdJp/fgOiMZgNcbfKtNSwOn8KgSSbUxq04aVje7NMOzr7moCK2rsMh/cQN51bxM+eu2PVwyg72sm0FLhRIsuYJdbEWcVBM8HQZIMki8+qC2UmojoGgyhHSpKpwwL9dkaU63afX+mRUcoaE6yBi2ygwLOQkTOQkk0aveNqK2FyCqyhwmASXCzXrQpVlmLYNy1U8GzRVlJ+ILK+Tgs6TKMxW508YlHHdwAhb3Nn4UTxEgAjsPwRI7O4/e00rJQKdioDorvbBElw5c0HDb9ZXxgvkzDyYruo5DCiKDMdx4UoSmBBPrg3mGtAZA5Nl2EwFd21obgwyTLicwxUKWaRqRStikdlkOhg0T0S7vMn1wWvEIIY0aTMgYcDv15EUxaUMCPg4nFgFuocs94jhxc+fPUb9/aAOskD7OZuzYDc/et0O47+2VcaHOYpob+xD2gBc24VfpMVFaYhwu2BeLwpIIvnriP4ONrhjgLm2V3agMAmSJEPhsvcSwAV78eIhC3bMG+PVdogGG9yFC5HB5Z7dWcow4UCD4lO8vXKNJLL8rlMcYR8OHxD8zaAwW/Vz1kbXEAEiQATaigCJ3bYiSfMQASLQYgLi4/KpK3DGtAXb/7pil9nd1AsALaPJpaHJqMETpkx0xhX/4XC4EvfqfMGF2DUhcppcpDMZ8wSvELZe5lHIMVcCExcLLSvOm4mObeJS14Vrp6EJhctEnbDqza2Z5SgNJxJnjSl44ORDs/7WFWpM1zbw0cs2m/dtqY4fE3N0VdKCni7lNofCmkSryMraYHCE2BW6VWR6BSKR+hX9fEX6FxJkwRiSl50V3GSJefW4IsPuujZcboNz16txVmUJzLIgyyoURfOcGMxUEiHNTQzonvnSkL7SA338HeOV3OIHjy4gAkRgvyJAYne/2m5aLBHonARmbudHTv+67v4FGxom1Ft+SFoEFtO9+lMhzoReFTpM/FskcD23hu9cE1wHokxXZBtdME+kNf3j9TYQfReaBJvrgnEOWYhi14VjpxHwqbCMNJhoJCGnMCDHKjtlXOE9541kz3dOUj8clbB1W7zVumv9roZfJVw1wJgO2+ZgnthvUrZMkmCxpvIG49tpvLIDcZzME7tNLwTev5nscbNtB4KsyOyKlwQhkLmA6dhNtF0HimggYachw0Z+RrChX4/MPw0oxd+LGEt2JYYUKxEgAvsuARK7++7e0sqIQJcisC7Biz5YYFz/2YqdF5elAvmmHIEr+5C2xCEr1zs1JknfiliRmRXy10tPNmUfvS/x76Ykr1ejajtpyHLTx/AiwwlH8Tp7yUK4SUA6bSISMJHNGs1xfcNvnnVIxoNtZXHW0fBFy+PN5c65y7buvrYyxg9gvmyf7frgCiErmk5w3oRL4rBFtlcIVab+rzC9F4nvXg5EN2JhYSbqfkUCWGR7vx0tRLHwz5AVDpUnEGHpRGGmsqB/ceTRUcWeL/J3O9LRGOh+RIAIEIH/Q4DELj0URIAIdCoCH1XwQ9+fm7h95Y66I+oTkt9mOlymgSs+2KJCV/jICuElS3C+LVH4t9D9biXiNxtzoUgiAynqU11IwkVXlDc4MjiXvENUuQETvXL5yskTch465gC8vS9kI8s4L15bhovWbm24qD7m9uGSX5GgeBlZ7x+R8RZqX9Q9C8Uqst4er6bsuSd2v/3LIF4yxIuCKIvwvilqRITIZQyKaLjhNpoF2eqqwUWhp4eU4I0s1vbNKzrVw0nBEAEi0CUJkNjtkttGQROBfZvARs4zNm7FYZ8vqrlgS2X0uB11ZmaKhWBp2Ui7GiyuQBZGvCLjCw7GxHEpUbPblNz1yhbAoSoc3EpBhQNdiDMz4Xlx5eVkpg8o0BccN8T30uAizN7XbLFELfQOE4NWrU9dWBezT6qJGiUJSw5a0GALVwpZaSoJ+Tb/+h23/xS73vedJhs2BRZkcUhQZMrhIKhrjRk+Z92w3plvFeZIr3QPsPJ9+4mk1REBItCVCZDY7cq7R7ETgX2cQBnn/vVlGLNorXH6+vK6yeUN9gF1SSDpqJ7LgqyIz91dzzHA9Yp0pX9nJSXGoboWGE/DL9kIay5yw77yPsX5Xw8eoL84uBvmjwqz6n0ZIedc2ppGj911OHBXrTOpJmYeUZ+we6Ytrjn82+ysB0CC+G/hsfBvjhC2bwySa0BhNoKalIoElfX52RmfdMvGZ93ysLCQ7dv89uVng9ZGBPYnAiR296fdprUSgS5KgHOubEqhW2UDCipqMbCsMn7wzprE0LqUm5WwkGkYRtiyrKD4LF5TlHRAVxI+hcc02LHi/My1vYuyF/TMx7LCDJTnZKImh7FoF0Xxs8PmnKvb0iiuiWFQTX18nGlYpUbCKTRsN8+0zLBpOiHOZEWWVFNWlLiiSY1+Va31a9LOrHBgfUE25mVp2JgbwO6f08HuZwdOFxIBIkAEWkmAxG4rAdLlRIAI7B0CQgAvA0LpNCJ2FJkpFxERiV9BPKChMcTQIIUR68fYd+YDeyfQTnxXwTAKZDQYiNgGchwXfk1DXJNQ6/ehMQJESdh24g2k0IgAEWgWARK7zcJEg4gAESACRIAIEAEiQAS6IgESu11x1yhmIkAEiAARIAJEgAgQgWYRILHbLEw0iAgQASJABIgAESACRKArEiCx2xV3jWImAkSACBABIkAEiAARaBYBErvNwkSDiAARIAJEgAgQASJABLoiARK7XXHXKGYiQASIABEgAkSACBCBZhEgsdssTDSICBABIkAEiAARIAJEoCsSILHbFXeNYiYCRIAIEAEiQASIABFoFgESu83CRIOIABEgAkSACBABIkAEuiIBErtdcdcoZiJABIgAESACRIAIEIFmESCx2yxMNIgIEAEiQASIABEgAkSgKxIgsdsVd41iJgJEgAgQASJABIgAEWgWARK7zcJEg4gAESACRIAIEAEiQAS6IgESu11x1yhmIkAEiAARIAJEgAgQgWYRILHbLEw0iAgQASJABIgAESACRKArEiCx2xV3jWImAkSACBABIkAEiAARaBYBErvNwkSDiAARIAJEgAgQASJABLoiARK7XXHXKGYiQASIABEgAkSACBCBZhEgsdssTDSICBABIkAEiAARIAJEoCsSILHbFXeNYiYCRIAIEAEiQASIABFoFgESu83CRIOIABEgAkSACBABIkAEuiIBErtdcdcoZiJABIgAESACEEIaMAAAIABJREFURIAIEIFmESCx2yxMNIgIEAEiQASIABEgAkSgKxIgsdsVd41iJgJEgAgQASJABIgAEWgWARK7zcJEg4gAESACRIAIEAEiQAS6IgESu11x1yhmIkAEiAARIAJEgAgQgWYRILHbLEw0iAgQASJABIgAESACRKArEiCx2xV3jWImAkSACBABIkAEiAARaBYBErvNwkSDiAARIAJEgAgQASJABLoiARK7XXHXKGYiQASIABEgAkSACBCBZhEgsdssTDSICBABIkAEiAARIAJEoCsSILHbFXeNYiYCRIAIEAEiQASIABFoFgESu83CRIOIABEgAkSACBABIkAEuiIBErtdcdcoZiJABIgAESACRIAIEIFmESCx2yxMNIgIEAEiQASIABEgAkSgKxIgsdsVd41iJgJEgAgQASJABIgAEWgWARK7zcJEg4gAESACRIAIEAEiQAS6IgESu11x1yhmIkAEiAARIAJEgAgQgWYRILHbLEw0iAgQASJABIgAESACRKArEiCx2xV3jWImAkSACBABIkAEiAARaBYBErvNwkSDiAARIAJEgAgQASJABLoiARK7XXHXKGYiQASIABEgAkSACBCBZhEgsdssTDSICBABIkAEiAARIAJEoCsSILHbFXeNYiYCRIAIEAEiQASIABFoFgESu83CRIOIABEgAkSACBABIkAEuiIBErtdcdcoZiJABIgAESACRIAIEIFmESCx2yxMNIgIEAEiQASIABEgAkSgKxIgsdsVd41iJgJEgAgQASJABIgAEWgWARK7zcJEg9qSAOdcZow5bTnnD821Y0flkA2bN43mtiMzRWaRcLBy9OgRHzPGrPa+N83ffALbtm0btXz5mkmQmOS6jEUioZ2HH3rwNMaY0fxZaCQR2DOB6urqojXrNx1iG7bmOA50XTcHDTpwRl4eixE7IkAE9m0CJHb37f3d66tr4DyrYuPWoTvKdpTGGhqzDdOMcMZ0n+5P+AP+6p4lPTYV5WevzcnJKWvrYGfP/vLqqdOm/d62bU2RZal3aem8yy+76JxIJFLf1vdq6/nq6+sj0aiZ7fPB+xlNA7wkP383YyzRknvFOS+oraoK+nQdzGSSZdlGUVF2ZWcS/J9+/sVVr7zy+sPpdNrvcNfp37f/witvuuaUooyMmpastSuPbWhoyGo0jCzffyyC6zpHOl3VrVu3Fu15V+bQnrEvXr78kDdenfqv2rq6bMflLCMzXHfn7XceW1AQ2dKe96W5iQAR2PsESOzu/T3YJyPYXF7ef9HXi89ZsWzFEdFYdEhjLB6xbVvhnMP7h8mQJCAU8NVHIpHtQ4cM+3D8gePf7t+7+0LGGG8LKO+++8ENU9986yHbcXQOF337ln51+803npKZmVnXFvO35xwfzfr8qk9mf3KLbVkSkyQl7A/GTzvtlBtHjBj6cXPvyzkPP/3M879fu379ZFmWXcex1aLCwnXnnXX6jSUlJZubO097j5v50eyrX37llUddMNUwDPTv33fhHbfeeHzGfiJ2OefslTem/WHZsuXncM5t07KYqiiQJNmefPzkR4445KBn23sP9of5Fy1bNenJJ556ORptLGRMRigcrHrg/nsOKigo6DQ/C/vDPtAaicDeIEBid29Q34fvyTn3f/75F6d/+sWXt29Yv36YLClgjAGS7K3a/bZ4gUsMQtOqsgzbNmHbNgoKCnYedujEp486/NDHs7KyGlqL6YOZH13/6utvPCRJks91Xd6zZ8mXt998z2mZmazNxO7y1auP+OrLeec7QsM7ltyrT691EyaPeSKf5cdbE/9b78247403Xr9H13UIAejXdPvqq648b+zYUdOaO299PY889+ITzy5euvQ0SZKQTCbRp3ev1dfdcO25Jd26rWruPO09bvqMWVdNfeudRyWJabFYDP369Vt0x63XH5eRkVHb3vfuDPNXVNSV/OPZf7y7bNnSEeFw2HsZlJiMVDqJQw899LVrr5xyCWMs1Rli/bkxlJfXdp8z55Pf1NTV+nx+P1MUNX74UYf/vbR79w0/d86WXrds1bpJTzzx5EvpVKob50xSFbnygT/ee3BBQQFldlsKk8YTgS5GgMRuF9uwzhxuY2Nj9jvvf/CbufPmX1tf1+BXVRX82ydMkhRommaqimYDjFuWpdiOqbquK1mWIb6HVCqFUDBgX3/d9SeOHjHko9au9f0PZt78+htvPOS4jiLmKikpWXDXr+8/MSODtZmI+mjW59c99vfHH4tEIkgbSfTv22/OnbffdnY4HK5qTfzT3pl+3zvvvnuPED7iy6fp1pQpl55/YAvEbl1dXeYLL73x/DeLvjmVySocy0DvXj1XXX35VeeVlHQesSsyu69NnfbfIvNvu0BJzx6L777thmP3F7H72Rdfn/o/L7/4mm3bummaEC8msqzCNNPoUdx989XXXnd6nx4FK1rzPO3ta3dU1g258ze3fWVbTqZ4pgOBQO1tt990+qD+/b/oqNiWLF995JNPPvVqIpHIcThYMOCv/t1v7zmopIQyux21B3QfIrC3CJDY3Vvk97H7cs4DL7z0yn3zFiy4vmp3lZadleNlJGVVsYt7dF/fu2fvObn5+WtyI1m1fn/AbozFM6urKnts2bJ5TGVV5YH1dfU5ruuIAlXnumuvO/nAsSNntBbR7NlzLp/2zlt3C0GtKIrSo6TH4isvvfQXbVnG8PEnc6557sUXHtV1XTGMNAYOOOCTy6+75oJurRS7U9/94N5333nnXvER97di154y5dJzDxw76s3mcqmt5RnPv/L0C4sWNoldyzZQWtJr1VWXX3Fuz56Fq5s7T3uPE2L31TemPmaapuxCQu/evRffdesdx7blS0l7r6E187/0+rT/njFj5vVNLzYSFEWB67oQh6j8us+47LJLf3XwgaNea8099va127fvGnz/A3/40kibWeKTnkAoWH3VlVeeMXzwAV92VGyr12+e+MLzLzzZ0NAQFs9ZRsgfvfvO20/Oysra1lEx0H2IABHYOwRI7O4d7vvcXd+e8eEt77797p8Mw9DER++xxijy8vLqJh0x6fERQ4a91r9/ry2MMfP7CxfZ4IqqumEffjjz4tWrVp/s2nbmTTfecNLQoYM+aC2kWCyWV93QUCjqKGzLYgFVTRYXF29uSyeIGbM+vfbFl157hHOuCTE5ctiwT6Zcc2Xrxe7b0+9+9733f8c5l5rErioyu+e1VOy+8MpTz3+9cPFpsiz/f7F77RXn9CwsXNNavm11vRC7r7z+xuOWZUlChJT26b3ojlvuOG5/ELvi+X/ksac/XL12zViR0c3IjJjZWdk7d5Xv7O1y2yvvOf74Y/920fnn3NqV3SmEM8of//zgV42NMS+zm5WVVXv1VVecPmxQx2V2OeehTTt2lPh8YQWmJV4onJKSbht/6PdSWz3bNA8RIAKdgwCJ3c6xD106ijUbtx745FP/eKNiZ1kPn88HIawUSam74Pzzbzni8INeElrzpxbIOQ9+MXfumTM+mHH3KaeecuNB48dP/6lrOsP3Z8z67NrnX3zpEUVRNPER9NDBAz+9/LqrzisMh6tbE9/Ut2fc/e577973H5lda8qUi1tUxvBtZvf5bxYuahK7loXevUpWXTOlc2V2Z3z06VWvT33zb6ZpSg5nIrO76K5br90vanZXrtxw9H8/8fdX4slkrsjm9u3bf8nQIUPem/XRx7eZphn0/l9p70WXXnnxOT27cG2pKGO4/75756bSZob4OcnMjNTfdON1pw7q36fDyhha8/NI1xIBItC1CZDY7dr7t9ejFwfSHn3imefnL/jmbEWRwB3vBJpzzpln/fbUk499sKUBLlu2bGKPHj3qcnJyOk3mcU9r+PCzedf845lnHg0Fgko6nUS/A/p/eu0NV7eJ2H37vfd/7x1Wgitqds0pUy6+oGU1uzzz2Zf/8fw3ixafKsSubRro06tk9dVTrjinM5UxzJj1+VVTp057PJ1Oy6Jmt1fv3ovvvu1Okdnd563Hpr03456p0966V1V1SYjAQw45/MVjjjrqL0889eTLu3fvGqxKMnSfmrjikkvPGjt22MyW/jx1lvHbd9UOvuvOO+dKipYpypuCgWD9rTffdOqg/iUkdjvLJlEcRGAfJkBidx/e3I5Y2pI1G4568sl/vFpfV58rDpnBcTFo8MDPLr/msvPzQ6HKjohhb95j5mfzrnjmX8/9TQJTXNfG8OFDZ11z2Y1n5uSwaGvieuOdD+95510vs+tN49dV8/LLWid2xUHA0l691lwz5fJzOtMBtVmzPr/qlddffzxlmJ7YLS0tXfzb2+6YHA6zf2fHv81wB6PRqMbE5/nhsJkLJNuyJKU1+/VzrhVeyv94/qVXFi1eOlnTfMKFwT39zLN+c8bxk/7yyN+ee3Xhwm/OksEhyhlOO/XU+84546Tf/Zz7NOcazrleVwddUaKKJEmy44TszEyIsiPBuNVWgGVlVX3v/cP9C9OmHRFiNzs7u+6mG645YVC/3guaE19XG8M5F5bJeiwWU4EwwmGIRjYGYyzd3msRTXuqq+H3+WI6Y0yybduKRCLx5nzC1tLYxDobGuCT5Zgifi5tO2SlIjALAaszeXm3dF00ft8jQGJ339vTDluR+KX6wktvPjhn7rxb0uk0ExZiPlVLnnf+uTcef/Sh/+yIQOo4z9y5at1g1e/3WZblil+4sAEuy5zD9v5IC89Sx3Ekn4JoaWnpUsaY25LYKioqBuysrO5vOw40SXJtW8zLGGSNL1mx+qQvvvpyim1aEjwv3z6rjzzqqAfCPrVBHIyDojBdVuCYJnMZmCbrcGAjEs4s69u35+Ifi+MHxG768ssu/kVLanbr6v53ZtcTuz17rb3m8svP/jGxK+qcN27cOFwcuLMsi0uSlB46dOhixthPWqkJQVpVVdW7rKysbzAY9OpNFUWpHTBgwIo9/eETYvfl1157PG1a3gE1IXbvuPlqUcZQIw4+rly3aeym9WsP27Wron9jLJXvcgfhUEZVdnbWphFDBs8tKir4Oicnp1UvFy15Htpq7Pr1m8c+8c9/vl1RWVUsKSpysrN3X3LxlAvHDO3z8QefLLjhpZde/CscmwmxO2L4iDmXX3LByW25zupqHq6p2Ty0srp62M6y8iHVtbV5iWQi4ji2z+fXE36/b3dJSc/13fK7rSjt1X1pXl7erj2tPRqN5mzatm0kcxC0JZlz2/Y+6BEvJNW1Vb2nT5/xX7FEyicO3oXDmcljjjzq/p4lRSv/PadwI4Tr/U0STn7efzIWHTty6NfNFYmidn7tpk1DTMPIlGTdBWyoUJgFm6vwTFnESwUXvydUVbVKS3sKX+826ajIOVe2lJWN2LBuw+iy7eUj4slUXjqVynFcB6qu1ubl5Fb26lOyrGfPnktLS0qWt1R8ej8LK1eOcV03w3Ecj1NJyYBFeXlBb1+qqqpC1XV149Zv2HTYtq3lfRzHyrEsS/P7A3XF3Ys2DBwwYM6Qgf2+aq2Nnfg0b926dSPLyytGbdm+c1A8leyWSiQzAFfSNb0+HAzWZORE6kLBYFmvXiWrc4uLV+9PDWLa6vcDzdO2BEjsti3P/Wq2+vr6Xn99/NlpK1atHu0PNPV+6tm9eMWVV19xbq+i3LUdAWPtpm0HvfDc80/HYrHuhmHauu5lyIS1GZdVz+NXiAUmcab27dP760su/uU5LfXwfee96XfN+viT2+qjjUooFILwUxPzC+9gy2G6ZTuqrmowzLQw20Ug4DPEX3lZZsy1HSYrksRtV/zp5q4rDpxxaeLEQ1689JJfXvRjjETN7ndlDGKMruupKy69+BcTxo14q7lchdh97uWnn/t60ZLTFBGrZaBP75J110y58qwfE7srV645+rnnn/tnIpHIchyH5+XmlU+Zcsn5ffr0+UnrK6Eh3ps+/aYZH8y8Q5IkVdQIDxs27MOLf3XhdeE91DB/9NGnV736xtTHDcuWISno1avXostvuOJoP/NlvfXGa7dv3Lj+9MqdFbmQJUlRVaQtSyBE0K9zRZZqx44e+fEhBx/2+KBB/bpUllB0jvufl19/NJ42NFFm0rdv3y+uvebaiwqz/NvWbNs56s9/fPAzy7QyHNdCbnZW1TXXXXvawL695jV3/39snMji/r/2zgMsimT729U9eYYBlIwgURQwrDnnnFER8xqQLMG4Obrx7ppAFHMkGQiKObvumrOYUAHJOQ3DhA7fcxq817t/whDWu35b3MdH71JdVf1WdfevTp0658aNGyNu3Ljj+SzlRZ8KhcJUrVbz4IAct1aktYhAJBII+YhlECPTk1ZYW1s96dKlS1zXTj2irayMMmur+9mzZwP37N2/Iys3zxruB7GwqmSRUChm1Wo1oVSpRHy+kPPpV6k0SF9fT8PSWgoWifBDsFy2QAL+UfPDs7K2euLl4zXN2tT0hS73nV1c3DZq795dKSkvupMkScPOCI8nZLVaDSsUilhKS3H3SBI8Ho9PFn771adjDA0NU3Wpu74yLzMyOl08f8n33r17kyoqKixZBnFuKcAU/K65cwwCHqJomjY0NMzq06d3woDe/SNsbS11fk/m5eXZbwgNj83Pz3OhaZbgCQWUX4Dv7O6dOiWlZeV3PZoYH/zg4cOxapWmNU3TfGDP0gwi+Tzub5lcVtynT6/DY0cMX92mTZsmZax88uRFv4uXzvsnP3o0TKFSm7IMyVNrqOp75BPc/QJzgkUsySdoA7l+sWEr/ScdO3e8MrB37y1Nbbe544OvxwSw2MVzoMkEbt59OHLrzn1RCoXSmPtAsgwa2K/vniW+C311tcQ0ufGaC+8nPxu+Zev22Ly8HCN40cJ2MHxk+DwhohH77zBOBMMix3a2t1cEB4xqbOixmEMJ3x0/dvxThbKSgAN4Wi2NKIbh2gLtKpKIUVWlEoklIu6jUllZgfRlelzcXQFYdWktoigGiUQCLrSUWl2FBg8ecjAowMujIbHLIIL7kMhksipPzwVzB3Tv1CixuxvE7s1bUyB5B3yEzMxMnoQsDfSoK6nEzQePx20OD49VqTR6INxbGRhmr1q+fIKtbZu7uozV4cRjn8fFx3/DgIkWMaiTa8fjQQHei/T09PLquj4x6bjfkSPHNlapNaSWJpC9o/31+XMWhByKi/3iafLjcSyiEYlY7oAdwSMRH7gzDPdHwCMQpdUgE1Ozl7PmzA7p1/2D9+JgI1jHNm7eFXHl2rUPQYzA1v74saPDF83xCAGLHyQEWRf604mUlyl93ohQ9ylTl7lNGrtOl3Goq0yeQmEWHxv/5fWrfyzQarVSWLCBpRVYggiEPzDukGEMvBfAvgq++AqFAhZcaOzoMWHz584Iqq3+5ORnwyO2bInOKywwgaQYMHc5X3Etw9lrwdpfVaXmxJdEIkFlZWWIT8InqFrsgm/6G7cdAlUL3jZmZq9XrFg62tLS8qku952XV+qwLmx94stXL12hv/CjVmuQQFD9bzgACfG/1WotkkkEFau//6q7talpii5111Xm5oNnY6NjotbkZec4w70AT+624J44jgRSazVc7GSCx+NYq7UUcnJ0SJ7l4R74QccOF3Rp/3VensOGX0OTcvLzO0AGSsgivnxZ0CyRUJQZGxu7+dWr1B7wjEDoOrjHKgj9yCX0IREBvv98PkIMg7p163Zw8fxZvo19D56/dMUjITFxQ1FRkTnDQrUg5MFUzgWM4eYK/MBYk+x//oZ5JJGKKv18vTx6du3c7JCSurDCZTCBPxPAYhfPiSYTOH3usu/emEOhKrVGwCMJJOTz0JiRIz6eM8Pt5yZX2sgLHz190X9/TNT2wryCNiASIHmFRqNhxSIpo1SrxBqK1oOPC6Ruc3K0v74i2G9cY1/yiUdPLLv4228hZWVlQqFQzCkCFhEMSxCsWkPLKioq5GKhCMH2OkPRlL6+XpmIL2AZluKBkQrSIlMUCAjEMixL8kiS6NmrV8zCeTN967rdg/FJX8QfOfYtweMjLUXDx6vK02vx3GG9Gid290Zt23X91q0pCM4NEgyysrJ8EhjkX4/YTR4bHh4Ro1Jp9EH0GBkYZi5dvnRSOx3F7qGEYx8fjk9czbCwZ8ygLq4dkxb5e3rWF3f41LmLfvsjYzaqVVpSKJEikVia1qmjy4M7d+5M0qqqkEDI0xjqy/ONjY1T+QK+prisolVxcZGDUlllgBiq2ppE8JCVlVXK9OnT/Hp1cT3XyGn0zouDKFuzLvREWk52O4GABwtF9Ydz5/qOGtp/95vO7IqM/v7M6bOfggCEOdyzZ6+k5UF+MwmCqGxKh59mZbWPi034NvlR8nRKo+I8fqBusViIZDJ5hUwmSZfLDYr4Ap5GU6URV1SWmxcWFpuTJJJqtTSvqqoSDRs+KjLA68O5tbWfkpLSd1/MgU35efk2iCVYluBBXnBWKBTSFGKEJcUlrViC5MQgtGtoaFjO4xFqgmVALZGIYAiSyyYOsokTu6yVhcXzGfNmf+hoba2TZTcnJ8d2d1TM3hfPU7qr1GpKLBYTGppmBXwRrE/5xaVl+iC6aYpBMqmo4ttvP+2mq9W4tnu+9TBlVHRM7Oa01Ff28FaQSURcchwLMzMlX8BP05Pr5zEMQ1Bayry0tMy6oLhUJhAJEVi4IWlIW0uLVI/p0xb17NrpYkNjCmJ3/dqNR7Py8p0JeLwIVuE+ZfKXr9PSx1y58vsooYiPDAwMSmFhyReKFEplpUmVUmlSoVBI3liXgSy4F82cPuPr6VNGf9NQm29+f+vew1HR0dE7MrOyrWABA88bvAbletIyfbn8tYG+YYGQL1bSLCKVKpV+eUmZTWlFeWuWpiRKpYIn05NUhgQvmdG1BUJK6tpnXA4TeJsAFrt4PjSJAMR/3Rt16IfjZ86v0lI0IRIKkEwiVM6a7u47fEj/fU2qtAkXFbGsftbTF64sQ0tY+LQS3FYoommWvn7n3ozLl694MgwjBLHb3sH+2vIQv/GNFbv5CoV5WWGZJUFQBEICzpNQq6W4r/K1W/dmHz9xYgmBkBAsuB3atb8xzX3ap3KZuAT8hKEvAgEi4HgKpy4ECFFVFCE2kBa2Nas7c9Ph+GOfHz6StFoL25AED+npy1WLFi6Y27+bs85JJQpYVr5t7aa9D5MfudFaMMEwyN7W6ol/gE9DYjdapdIYNEXsHjyS9FFc3JFvwfCtq9g9feGy7969keFaDU2KpDJODMEQVlZW8izNTDNHDh+yqWuXzqdkJoa5IprWVDGM/osXqc7Xb95ccO/W7QkQhriisooTUH369Dk2Y870xXampn/rw5E3bj+cGrZxc5SGpkRgrTZu3SpnWYj/GHtr63+7i1y/ddctYuu2fSqVSg/uzcDQoPCjpStG2Ntb3W/sowIuLTEJ+zdcOH9pPvA1kMuQSqVCrQ0NMrt2/eBA1249z1iZm6cgxFdIJAylVvOECm2ZQVlRmeONmzdGPHnydGJmZoZ9r559969cFjCvtvYhjm1qaqq9FiExny9mkJZCGnBk5fPZ9MysdrExB3ZUVVVx4dSkevKKaVPcVtjY29wia54T7lmpqRicaAmECD4iVPb2Vs90jYULPrvPXr3qTFPIAKqCmIfgqauiKE166uvex0+c/FypVBrA7oy+nrjs628/79FUsZtZVGS1NWJn1INHyQOlYhG3ICERQ3Xu2OnMoP4Ddjk6tr0nkZiUIaRAFRXq1s9fvux08bcrnslPH4+EJTBYYBWlJWjQwH5XFsyd5dGQT3SN2E3KysvvgFgegnWDbRvLB+lpqV3lcnn5wEEDDnZo73TY2Nw4VSyRqLRqVi89PdU2OfnRwt8u/z4ZzlgI+CJu3K2srdKD/PyG2dg0nCoZfLsPxu3YdvnylRngWw6rBkPD1srOHV2jBg7oc7iVvFVK69YyhUYjU5EkIimqSlpYXmRUWlrW7tGDh0OePn48vLikyHLhh/PnDhz4foSUbOzzhcv//Qlgsfv3H6O/ZQ8hhuue/Zu23biX7AEfTwGPRHK5Xp7P4oVzu3V2Oft36PTRE+eDog8cXEuziAdit52jw9UVQT7jDQ0NS1qqf8cvXvXbuWtnqIDH54Plq6OLy2l/z4+mWFoSyua08UbscpYYmoH9UNS5c6eT5iYmKQSi+IxWTfD5fO6kHRiuwXoMyppmEBwqg88urdJqxK9epY/Jzs62rl4AaJGDbdvHAQHeM+p2Y+Asu00Wu4cTj686FJ+wujFi9+TpC75RsQfCYXFAcWf6+JzLgnUbi/SZHtODenR1OVpbRICCggLLA/FJX9y5c9tToVQJ4Do+n6/wmOn+2fhhQ0Kbw/+vvBYMl/ui49YeP34yhODzOAtfz+7dTn20LHDa21ZbEDfr1mw4lpeX174mnTYzf/684HEjh29sbP8OHT2xLCHhyPcUxYjBkkxpNMjBwe76/HmzvnS0s7tYn5hkWVbw6OnLnidOHF0lEssKg/29Fze2/YyMMscvvvvyGqTqBVGor29Y/MlHq8Y52Zlfb2xdTS1/5/HzQeEbt8RVViqM4Lky1JeWffbFR93rW3TW11bCkVOfHUyI/w527ymNFvFJRA8aMDBy0rRJX1i2bv26tmszM4usjp059c3Zc+cXwQIGLMHw99gxo76Z6e72TX2RL/4sdsExVkAwSF9PVj5m9Kiv+vbuvsPExKTiz+3m5FSYJByL/+bmzZt+FeWVCFyxGIZhP5w312v0iAE7GuIJfrrhERGxJWWlViDn4WDf4MFDQqfMcV/dmiDK6rse1jrPUlNdMlLTh7VzcLqkqztUQ33Cv8cEGksAi93GEsPlOQJwan9DWMS+xymvRlMMxIJlUevWhqkhQYFTneys7v0dMB05fi4k5uChdfBxhQ+Ko4P9HyuDfSe0pNhNOHk2YM/efaF6Uhmp0aqQk4Pj+ZUhSzz09fWLmsPgjdgFtwyKoREDZms4bINnt6wEAAAgAElEQVRYJBIQSFWl5HwoaVTtc8kduuF8HqsPicBBL7AKgwBUqTUIxJJWo4akEo99vBbPcGxr/qi2/t188D8TuxtpmuZpKM4CjuRSsWr8+AlfTJk4Yk19AiAjP79deNjmyIysnJ6wPQuM2ndod25VUMBseTNTNjdn/Oq7NreiwjT0l9Ck9LTXPUk+Adve7MwZ079wd5vw/dvXQVindWER+67fuO4uleohWEz17Nnj4LJA/zmNiSCQlVXQ/qe1a5Py8vMdOR9aikLmJqYpvr7ec13b29/Q9T5hcVFaqmjbrgnhwlKzCzus/vaby7SWNWFJzhOocNnykKld2tu/s3TB95NfDNuwIeyAWq020jIsEgvJ0u9//KZnUyy7eXl5Zms3bLr84lWqk0gi4Xxjra3b3PH0WjjLwcrqeX1MU17nOezfuycmJSWlBzyfFRUVkIzmiW+Q/1jLVq3S67r2bTcGsOxyB/k0KmbsmBFbxoyavdLcvG73lrS0bOeIbdsPv3yV5gzPiEQiQ0MG949YNH/mkobC950799vCvZH7w7U0I9HSLLK0tMxe6Ok15YP21jrPHbinmiAYzQ5jp+t8xeUwgbcJYLGL50OTCBQUVFqGhq8/8PxVen+wbMDhtDYWZs9XBC91s3xHkRga6nhcwomguMSE9RAIAV7w7Rwdfl8R5DOxJcXu2d+u+e/YtWs9y1ACEBEdOzif8w7yn9ncUDuH4pI+Szh69Ds4sAUHergoBFWVHGeJCP6t5A6hUCyJ3iw2QCSCmfeN2KXhkAjLfWQ4YazRqJGtdZvHvj7eDYndKJVKY1jjxpCxdPnSybr67NZYdr+Ds2PgxvBBx05HF/otWlyfz+7pc1d89+zbu5FhGJ5AJEFKpRLZ2djeXLpkyXRLy7o//m/GP+pg/KrjJ09/o1aruZAgcrm8eElgwIxuLk5/ix2GP8/Te8nPBqxfG3YOwkKxBHdwsSI4MND9g07Op/9c9kjSyZDoAwd+JQiI7UEgU+PWzz5ascrd3Lx1rYuV2p6J2MOJn8clHl3NzQuE4NCYYt6smUtGjxi8p6FnqKV+n51d2OHzb7+5rFJqTEDg8YSCgpClQdPepdi99/TF0LD1obFqldaEIUhO7H6z+osmid3fr92cFxYWvkcikxJligok4gvoWbNmBkwaO2qLLszij5/yS4hLDFWpVFw8NLlMqpk7d+7iIQP71OkCxh1QWxd+JCsnzwWWvSB2TQz1sry8F7p3cXGpNxIJWFi37tgXeuny737VBx55yMXF8USAz6J5DS3M444eW3nixJkfKisr+bCItrKyfrj8o6CRZvUcOtWFAS6DCbxLAljsvkva/x+1lZ1dYhMaviEx7XVGF3gBwkEhGxvr+8uDlrqbmhrUeZgEfOpevy6TMRKNiKUokYwn5auRuoaMCBEaDQhTVi4XFjU2RNif8R49cTYo9sDBf4tdRwf7KyuDfSe1pNiNTzruFxl9cL1IwBOCqHR1cT7n6e8zuz5xp8s0eCN2GcRHNMtwESZEIgEjFYtohlKTNfFICZYUgdgleNyha5JlaRpcg1mG4NE0wzICoUhYWVkJfsacT6GNleXfTuyePHfZNzIyaqNWq+WJJJzPLjNkQP/1ngtmrdQlJvLDFy/6RWzaHllWVmYLUQ1EIhE9cdyYT2dMm/wvXVi/6zKxBxNXxycc/ZyEk/m0Fjk5Od4M9A92MzGRZf+5L8nJL4aFRYTHFBaXmoB1XiTgKefMme09YvCASF36De5GGzb9dPJZysu+nE8pSSInJ6fzKwJXTjcwIIp1qaMlyqRlZzv/sPqnS+WKShMQ7TKpPH/p0pBpru1trrRE/brU8ejRi6HrNobGwq4URGuR6YnKvvz6cxC7jY7GsGP3vu0nT572hMNmwLWtlfXzFUuXj6/v3fd2H1PS013DN0YcKSwstocxUSkr0ahRIzd4Lpi7tK6djP8jdlkKdf/ANWnl0iAPXWLnHjt9ftmuHXvXQCQMlVqLnNrb3wn09Xc3N68/9FrSqTOBhw8n/qJUKkXwrjc2Nk0NDgoZ72T7bsJL6jK2uAwm0BABLHYbIoR/XyuB3Nxcu1/XhZ/Mzs11ghcgQ2mQnV3bW8H+wR71vTxTUtK6Hj9x/Ie8/CJzkkdqaZZL0MCCVoS4kOoqDU/fwIAe0Kf3lqFD+/77ZHpThiHx2Ongg4cOr/uPZdfut5XB/m6NPaBWX9sQSWDP/uh1BMuKIKRYl06dz3oF+s5prtg9nJD0aXzi0e9h21AgEoMVl+7e9YNd7RwcbmrVSr5UIkJqSo0Y8NpjwFpHENV2u2ofXoZhGAitefHyb/Ny8/M6UVot59fb1rrNYx+vBTMc27atz43hnVp2j5085xuXkLgRDqRBBjUDA7li1szpfiMG9d+vy7hDMoO1oRGxT54/Hw5WQxC8gwcO2LXEZ9FiXcSyLm20VBnImha6aceJ5OQnfUC80pSGHTx0wGZfz4UBtbWRVVRkHbZh44G09Mw+4IIAIaT69++zxddzAWw/w/mren8ep6T22b59R+yrtPS2hoaGqKKinHL3mPbVLLdJPzR0bUv+PiU93eXnH369pFSpjEHsSqV6eUsCfKZ3cW3/Dt0YkodtjtgZW15ebkwgSMPMK/tm9VeNFrtlZWWt127YfCgl5flQbleLIFDPHt1jQ5b4zYfkfrpwg9By23Zu3HX77l03oViKVEoF6tOzZ+KcWR96m5vL82ur43VeqcOGdWsTs3LyXCHkIYFoZvyYET9+ONvjc13avHD56oKdO3dvh/hn8I4wtzB+viQoaLKdpXG9Yd1u3n0wedOmLXtZhPSVlSok0ZNrpk6e9smkcQPW/92eL1044DL/TAJY7P4zx73Zd11j2T2SkZXdGWJX0pCwwN7u3pIgv+n1+cA9fJIyZPuWLQfyCgpNwKLBF4qQQgn+pxLOQkJrtFwMTrdJ4z+dNmX8j83paI3YXcvQiISYu44O9pdXhfhNaUmxe+z0Bd+9+yM3CHg8IRw06ujiesYn2H9ec7f43ohdYAvhmkQigWLxwoUfDuz9QbyuTCBSxa6N2/bcuHXL7a2kEo8DvHzrTBd850Hy2NDwiLfFbqNCj4Ebw8G4+O9YlhBAKKYurh0bdGM4ee6Kb2Tk/o0Uw3Af4datDbP9fbzmdHJu12A4pjcs1m/eGnXtj6uzSL6Q80l1sLO59MM3X4wjiOYdFNSVta7lHjx4PmjdxtA4mmIhuxXikUjt4+O1cGC/ntG11QHbz9v3xISfPnvO682Cxta27a3lQf5TjIxqT+7wdj1nL12Zv29/5EaNluYiOoiF/PKAwMBZPTu7vNN4p+npOS7f/fjDRaVSZQL90JMb5AYH+093be/wziy7d+4nD4/Yuj0GxC4s0KViIbgx9GqsZTc1O7tD6LqwY7l5BfY8HsFFN5g6Zcq3sz2mfqXrPIBDf3ujYn86feb8Mjj0xdJaZNvW+r6ft88cGxuL5NrFLhd6LDEzO9cV4lTweYj2WjjHd+igAdt1afe3P27O2rN77w6lSiOpEbtpgUGBkxyszf+Txa6Wil5lZHQOD9t6MCMr00ksknJnBPRbtc7u36fPpoF9eyaI2pqnmTcxHJ4u/cZlMIGWIIDFbktQ/AfW8cZnN+Xlq/4ED9wzKWRl3ebp0qWBUyyN67YUPHr0dOjmiIiYvIJCU9gChGQLEGgdgr6DVQ7CCUDggHHjx3w2Y+qEZsXrrRG7axga8UDstnO0u7Qy2H9qS4rdE2cv+ezeGxkqIHlCOKDW0bnjae9g73ktZNn9joZgvtVit9zb0/PD/j07J+o63XJZVhYVvm339Ru33OGjDAsSOzubx/5efn+Z2D2YkPQRxNl9I3Y7u7g2GGf39NkrPvujIzdpaRrCSCALC7PnAf7+U9rZWDzW9V637dn/r3Nnzy0n+UISRKSNteWDFZ9+NLK546Br+7qWO3L8zIqDB+N/pmmWhDHR15NlLAkJGu/sYF2n4Dhx4YrnoYNx4N8phedDpicp8lw0f07v7h+caqjdhKTjHx2OS1itpVkBWIZb6ctfBgb5TWtvb9/o8GUNtVXf7zmx+9P3F5SVatMasZsTHOzv8a7F7pYt22PKKkDsCpFUzC/+ZvUXvRt7QO3Zy9c9163fcLykpMQY3lkMQ6E5c2b7TBg9YmtjGMUlJK2ISzz6C+zewPvT0tL8tZ+fl4eTnV2tESpqDqgdyczOdYFkIHySoPy8Fswe2K/3QV3avXL1xoydu/ftVFVppLCfZmlu8jooyGfi2+Hu6lhwkfHxx749nJD4GSwkeXyIE8xlp6SkUr0cC3OTu+2cnO5YW1k+aW1i8tjZwTpFVwu3Lv3GZTCBliCAxW5LUPwH1sFFY9i4df+9R49HCcWQOYxCpsZGL4ODQ6baW5vVmVoW3BjiExN+LiktMyZ4pJpL7UuzsoyMrA4QD1fI416i7NSpbp9OnTT6p+agPXrsVFDsobi1FIN4XDQGR/uLq4L9pv2lYtfF9ZR3kM+HzRVZ8fFHPzl8JOl7ELvAQCQSVXgt9pzXGLGbz7J6kWFbd964dXM6CB1IF2xna5vs7+07s650wc217MYmJH0UH58Ill2dk0rAgiEmJnYTRVGklqaRnZ3dw2Bf/wmWlrWHb6ptTkQfTvz8SGLiVwRPwAexa2lu+viTFSETzM3Nm50Ktjlz8O1rwX92d+TmPbdv3XdTVycKQV1cXY/4egXMb9WKKK2rnYcvX/fYsmnbgezcLDshXwAhrtD4MWO+nDVjyuqG+rYnOhYSU3ykpVkeCBQrS7O7S4ICZjTWmtlQOw39HqIBfP/zDxcrldViV65nkB0c7D/jfyx2i75Z/UWfxopd7oDhuo3HVSqVHFLkwkFM78WecwcP6KuTH/UbVqfOXPTbH3soTKVR8+DgqXFrw1x/P6/ZHTvUnlGtNrEb6O81rW/Pbkca4g+/rxG7O1RVGhmIXXNzk9chOohduBaSdezZF7v98ZPHwyurVNzcBVcQiBbzVnISpUQiKRZKhPk2dm1vdOnywWk7W6v7bU1N0xuK+KBL/3EZTKA5BLDYbQ69f/C11XF2I3Zcu3VnGl8oIkDsyqTirOWBwXOcne0u1YUGtmWzsorN+XyeAIQuI2To3NwC16jImIjs7FwbfnWGJXbK1MmfTHcb1yzL7jsSu96790aG/duy26Ji98j3LMMjIP2mUCRS+Hh5zuvXo3OCrtPu/4pdLbKztX7k7+03668SuzWW3SaJXa1WS2ooCrVv73A3yCdkrJlZ3SmG/8wgPunk8ugDsT8I+BKhhtIiEyOjlI9WBbvZWOhuHdaVa1PLpaSldQvfGBGXn19iQzFciDh65KihEcNHjFzDF9BaUk2Q8EwgcU0CEpBRrJgpKy4xiTl4ICwlJaU/hPiDH5cOTqcCvBfMrO8QJyQR2Lkvau35S5cC1RqKgAVPO9u2v/sHL5lTX4irpt5ffddxYvenHy9WVqlMWYZAcjmIXd93LnbBjaG0XGEMIk0q5hd+s/qLvo0Wuw9TRq1Zuy6eZVkpDBeks/b39Z0xoG/3A41hd/rC5cWR0YfClSq1EA6YyuWyAj9vz/ndOrueqK2e/4jdbBdEwqKHoJYG+k7r2a1Lo8SuUqWRgTHZwsz0dUiQd4OW3Td9ycjIcDx15uKK5MePp2RlZZnCWQJVlQbGkssaB25cMn05544GC2s9Pb0qI+PWz0eNGRHR2dFxn7m5eZMy/zWGKS6LCdRFAItdPDeaRAA+pLv2RP986uJvIQRBcJYJgYBX6ue1yLdvr+6xjak0JT3HJTQ0NDE7K8tRIpbBpYy7+5RP3SaMeh/Ers+ufZGhfJInpKp9dlvQsnvkO5bhkSB2RSJRpfeihfP6NcJnFzIf7Y/euoOz7JICpKXUyNa27cMAb9/ZdYnd2/eTx4Rt4pJKvAk91iifXRC7cfFHvmMRwYft3a4dOx9b6L9oUX2W7hrLbrhGo+GBZbedk8O9Zf5Lx5mYyHJ0nUcJSadWRB2I+Y7PE4u01bsMT1esWDGlocM3utbfEuVOnDrvHRkTu5FmCYGAzwX2R3IDvVSj1q0yhXwSUZQGQiUTkE6aRQRBswwBaVn5QhGdlZndsbSsRJ+htBA6DJkYtcoO9g+c6uRkXWdSBshyuGt/zK/nL14OVmnUJFznYNv2aqDPktkWFq3SWuKedK3j/4pdw5ygoIDpHTvY/K5rHc0tV+OzG1tarjACsSsSCwu/W/1Zo8Xu3YfPR/66bj2IXRkndlkaLWkhseu72Gte9w+ca3VPqU3sBvr7Tuvbs8liNz04KGBiQz67b3PPyGAl5ZUv+965e3dIxuuM7sWl5a4FBfkm4GID2dmAB5cOmqyWFuqqSmRmZlbZo0fXvR5TJn3ekrtqzZ0P+Pp/FgEsdv9Z492id3vi1Hn/yEMJv6jUGimfRyIBD2mnuk1aNWXCmPWNaehVRl7nsLANh3Ny8hyFAjBrMbTb5ImfTZ3UPMtuwolTQYdiEtZQiOH/VW4Mx85e8tmzbx8ndsFnt5NLx1M+gb4t5Mbw32LXx3Phh317fRCnK1tO7MZs3XHt5u0aNwYtJ3aXeHnNqusQTLPFbvzRT+ISjn7bFLELoccgFamtXdtHfn5BE+0aIciiY+O/jj925FM+TywAy66ludmDjz5eNqGNkVGGrrz+ynKQIGLz9l1hV65cXQzh5CAFCCT9gGxmao0KCfk87pAS5AkAX14GztrD4UTIoMfQSFDjJ0lpNQgO/gl4BDtn5owlY0cP21Rfv/fFHv765Kkzn2lpig9b7m3MLe6H+Hl7WDWQ+KClWVSL3Z8vVXIH1MCyq/8/FLtKI4LkIYlEULD628/6Ndqy++zlgHVrwjg3BhgLcGPw8Vo0d2gj3RhOnD3vHxkdH6bWaiDyLTIyMsj19V48s7Nzu1p3xpordi9dveGxa/e+nVVqjQyORliYm6avCgyYaN3AAbW65kJFBWuSlZ9hU1pc6JiVm9fh1YuXH7xKTetZXqaA8HICOH0pl8pQfn4+kkhFlLvH1OVuY0f/bTMbtvScx/X9vQhgsfv3Go/3qjcPHjwbu3HHrr3gf8uDrEgsg/r37bM5wHt+kC5hkd7cLCd2N4Yeys3JaQcWF9jenTJpwmdT3Zp3QK0WsXthVbCfe0taF46dveCzp8ay+1eKXaFIoPBZ5PlhYy27+6K3b79+67YHJKbgfHZtbB4s8Vo8+68Qu5AhKSbuyJcJiUc/JwgeHyxeH7h2atCye/rsJZ/90TGQQY0PYtfcwjTF19tvWn2Htv78oGzduWf9mQsXgvg8MQHi0MbK6ubnq4JHt2RM5eY8nGlpac5bd+2Lef06szOkRIYU0Hw+xGilEMPSCCy2IHxZmuYst7DVD2IBngeVRo1AnIkEQsTQVE1qaAZ90LnzgeUh/vPqS/V79MTZZQcOx32vobRigmSRoZ48MzgowM3Z0fF2c+6nsdeC2P3u558vKSurxa5Mrp8T8r+w7G7ZGVNaoTAGnmKJqOC7bz9ptNjlDqiFbk4qLi42BbEL83zu7FkBk8aOqHfh8WdmB+KOfByfdOpHLgMiHBizNE339fbyaG9fe2ay2sRukL+fex8dD63WInbTVgUGTGqq2P3z/YBbR2ZmQZsbd+5M+uPq9YWv0zNcEMMSAiGPK+rgYJfsuWD+dFtbyyeNnT+4PCbQXAJY7DaX4D/4+oyM/HZrw7ccysnN7cwiBlEaNXJ1bv+Hb4DXrLpyw9eGC0LbhIZuisvOznWAD71QyKcnjpv4ufvU8S1xQG0NxSDOsuvkaH9+RbDf9L9E7PIIISR+6OzictIr0P9DC7m8oDlT43D80U/ijyR9xzJEjRuDoMJ7kef8xord/dHbt129fXvGmwNqtjZt7wd6edUZ3ujOg8cjQsM3x6hUGiOCpZGhoWHO8uXLJjraWDYojliWFUXFJvyQeCwphCThGBWDOrq6Ji328/RsyI0hKioaMqjxwY2htZFhnp+X95wuru3P6cIQRPb68C0xV69e9+AJBJx7gJ29w7Efv/p4an1CUJe6W6rM7zfvzNyxfccWpVKlD+HRCIJHGxkZpRA8sqKVoT5ZWlJEyGVSQqPWgDkXMTQcYBMjLUMhoUjCVmnUjFKpsqwoK7egaS23XWyor5f1wzff9TUyktZpvT5/5arHvsjIraoqjQHNgKAWVAYFBs7r/UEnnUPYtQSDt8UujQgk19PPCQgKmN71Hbox3L//dFj4lu0xpRUVJpxlVyzIX736s/6Ntey+yipov3HDxiO5ublOsCaB+NpT3Sb9Mm+m+ypdWUFynd37otaeuvBbAJdsnWGQo5319cVe3vPt25g8q62earEbWhONgfPZpYOC/Kb16apbhBYQuzt379uhUqv0GIYEn920lUEtJ3bf7vOz1OwOCXHxax49eDwOEQx3iI0gkcLHc9Gifv166BQ9QleWuBwmoAsBLHZ1oYTL1EoAYkXu2hu79tylK/5qdRUJ8XH5JCpYvMjTq3+frjqHyALLbvjmLfEZ6an2XCpRAtEzp3t8Pn78yGaJ3aTjZwIPHI5bo1arBXB62NHB7lzIEt/pLWntO3X+N+9tO3aGSUQCISQz6Ojqet7Pa+FcExMTnf1Na4N7OP4YuAN8jxCqjsYgFpQvXuS5oLFid0/M9m03bv1H7DrYtL3vX4/YffD4+aCILVuii4pKLEEgCwSCki8+/myCo2ObPxp6DCC5w9ZdkRH37j5w1zI0t73bsWPHJK+GxO6FSz4xsQc2VioUfEhrLBAIqqZOnhQyaexonUI5QRi8DeEbo1++ShlUczKcHj586EbPD2fXmY2qoXtp6d9v2x2z7tKlCyEgxKGP+gYGL5cvWzrDoa1Fch5CPDOEUAFChMl/N/z2+1l79tIf8/bsiwplGEYM1lHEMtT8ubM8x4wcvLeu/r569apzaMS2uJzsHAeCz4MT9Oyo0aP/tXDWtI9b+h7rqw8Wxqt/+vGKokJpqmVYpG9gmLdkid/Mrs52OsdSbm5/b99PHrZt2+7oMkWlMUKIlIqEeV99+0n/tmZmLxtTdwnLGob/69foRw+Sx5B8AXdpJxfnY/PnLfWwtNQtrjNEs1m3IXz/g2cvRgmEYqRWqdDAfj1j58+a7tO6deuyusRu6LqwoxnZuc5wQI0kER20xHdqX90PqHls+2+xm7oiMGBSXf77jWFSW9mHT170i4jYtr+0rMQOFmd8Pl89w336F+PHDvuluXXj6zGBxhLAYrexxHD5/yJw9fb9iTt27t1TVVXVCrbJeQSBevfuvTfYf7GfrgH9X2UUd/517S/xhYX59jKRGLZ1qTGjRn0+a8bUZh1QO5J0JvBg3OFf1Wq1kE8SrIOD47nlIZ94GBoSJS01jKcvXJ67Y9feHTyCEIK4s7a2vrckyN+juaGdDsaf+CQhIfHfYlcsEpR7ejZB7EZv337j9m0PEK5gebe3tbnn77V4bl1uDM9eZfQKDwuLKSkrt4OYmkKhUOm5aNGcQf16NBgF4unTV5137Nm7PyMjqxNYvPh8Ejk7Ozcodo+cveATExUVRtO0AA7SgQVy2OAhW70XzoMsYdqGxup+ctqwzRGb9pSXlVmBK4mBgVw5afy4kMkTx21r6Np38fv8fIX5ph3b4h49etRXwCO4GKXO7dsf+WRVyPTGWJ5TXr92CA/bcionr8CB4EFkNxb179NzzxLfhZAprtZsauAr/MO/fjmS/PjpSJZFqEqtRe2cOtz28fWd4tjm3fkzFxUVWa385OvrGg1lyUCuP4IsW+y1YNGwvt119kFv7ljduvdo6ObN26IqlEoTguDxZGJR3o+rP+1v1kixC/3YFxkddvL0mSWQ3AFC3ZmZmmUuDQwYb29vXWfYxbf7/+zZs16btu2Mzy0stUREddrocSNH/bxw3vQ6FyFg2QWx+zon1xlcYpsidsGyq1Sp9GqiMaSuCPSZ1LaObIrN5V1ayrZaE/pTfErKi8GwyJNIRJrhw4au+XD2jE+bWze+HhNoLAEsdhtLDJf/LwLFxazB1j2bom/duDFWX18fKblsaILiRYsWBg7u1ztKF1wgdteHrovLyspwEHIHR0TUmNGjvvBwd2uWZTfx+JklBw4cXANbhiRJsva2NmeXBX8yoyXF7s27yZMjtm6JVFWpZPDRMzQ0yA4OCpri2t7+hi73XleZlhC7EB5uV+T2bTdv3eR8dimNtkGxm5dX6rB2w/rIzOzs3iB2BQIBNWrk6B8+nN1wdqjE42f8EhISf9WoKSkk8QBfRl0su0dPn/ONjj4QCodaIM6aWlOFbG1tnixYsGC2q5Pdvfo4ggvDruiEn86ePLkUdhrAP1BfX/48IMB79rv2S62rn7cePR0asXlbYmlpqbxG7NLjx4z5aqaHGyxmdP6B6AprQiOir16/6QFhn2itBuIJP12xKmRifVvxJ86e9YyKio0gSR5fpaEQny/SDBs54kfPWVO+1rnxZhasqKgw/eybHy+WFpc5gxsDRbOaObOnL500ekij/Fyb0417954O3RixJbJKozZFiOQJBLy8b7/9tNGWXejD3bsPxq3ZsOEwSwrEarUWSaVSNH7c2C9nTBnXYOxjzrf9UNyXR44e+4pCPIIvECGxSKDwmv/hvH69u9a5qGwhsbtdqVLJ34XYfZVdYrMtIjw+JSWlKyx85XJ51ehRo753d5vQqHnfnDHH12ICbwhgsYvnQrMJ3Hr4ZNTm8M2RCkW5MVgQwXe1bdu2zz2mT/ft0+ODCw01kJye47Jr647E3OwMR8TQYE1sEbEbf/TkksNx8b/SNC1CCLH29vZnV4a0rNh9/Di1z/qwsANKVaU1bNXxeDyt22S3b6ZOGt2sF/rBxGOfJMTVuDEQDBILRY227HKxkCO3bLt+606N2AXLrl29ll1YvOzZv3nL9Zu3ZwiFQi4VaseOHX9bOHf+LGtr44eE1+wAABZsSURBVKy6xhKsjlH7D0QmP3rSG1wRwLILlv5OXVyTvHy86vXZPXbuim9MdEwoRVECkuVizHLZmYYOG7xm4VyPL+qz7t5LftVr5+5duwpy81wg3imfT7Iuzi4xn6wM8SL+JilMY+OTvkiIT/gWMgUSLAsH0QoC/JbM79mt9niq9T0v8Yknlxw4FBeGeNWZu6RCQaWn5/wPB/TtVaeFtKCgwHLDxoiEl6mvevL5IqTWapFYLC1csGCh77D+3Q439Hy++f3Lly+dysrKOnTrplsSg7frZVlW8vMvG6Ju37vnBql6IdpE544djy3xmjvbyMioXNc+NKccLDo2hm2OVKlUpojk8UQCfh747DbWjQH6UFpa2urXdWGnXqRl9oR7oSgNMjMxfb3E38fD1an2DGhv+v7w6cse+/bvP5z+OqMtTyBE4P7UydXlil+gj3t9acZrfHaPZubmNdmyu2vXnu1Vao2cYiCphKlOll1oV0zIKk1N9XIbw//3a3embduxY6tGo2kNB/mEQmGpl9di/349u9WaGrsxdeOymEBjCWCx21hiuPz/IQAWpwNxiasPHjq0XCKRiEiSRGq1BpmYmLycOHHCT+1sOyTZ2ZnW+qLMKlJaXzx/ft7ZMyc/qqqq0ueTcD6Hpaa7T/vKbdK4H5qDO+nMZb/o6Ji1FEWJEc0wTh0czwb6fDTN1JRQNKfet6/NVyjMt4Rti3nw4OFgEIfge2diYpQ6c+bsj7t2bndOLpeXNSYyxZu6ObEbn/gd+BbCfxMJhOWLFy9ulM/u22L3zQG1hsQutHXkxJmlsbEHf+HxeDwQRiRJqkYOH755xJhhv7Y1Mcn+M7vnaWnOJ46fXn3t2g03Pk/Ig+xgED4L3DpcXTokLfarX+yePHfFNyoyOlSt1nIpbYEj7BCYmBgVTXab9JXzkL47rQmi6s/tgq931P6Y71+lvhqv0WgIcH/Qk0qyFy6cH9Cvd8NuFy01B+qrB0TeD7+sT7x//8FIsVjMbXmbmhrd+/TrL8bUJ2zqqvPBk5TBGzduiiurqGwN0RsImmKHDB60btGCuSsJguBybdf2c/7SFY+omJjNCkVVaxLSciMS6evrZ7pPnfhdB4fOh6ys9IvqurakpMTwxYvUQadOn/pI38DgcdASf6+msDuSdPrTyJiY1Yjkk5B1UavWqCdNHPtzn369dtpZWOQ0xqWjKe3fT342MDxiR2xJSbEFQXA7SLlrfviph7GxtM5FXH3tnP/tj0Xbd+8PYxEp5SIqIAY5t3e6NG2K24pOHRxu1Xbtw6evexw5lrDu2tUbAyQyKeIRJISSU82ZNTNk/KihW+pr743YzXjLjSE40K9RPrs7d+7ertJoObFraW76almgz+T63Bg4K3TMge9TXrwa5NjBKb5Hl27n2rWzfUEQdb9D4Xtw//HzfnGH4te9ePWyByx+VSolsmpj9dA/0NfDztLyaVPGD1+DCTSHABa7zaGHr/03gZyKCpOE2EM/3b59e0ZJSYmMzwefMhJB+sh2jo7X7du1u2LUyjBdLJRW8PkEUVmlbFVSXG5+98H94dk52X01VSoZbHuzEHtUyNfMmeHx8ejRI9fVhRh8ES9f/n0cRVEG4KKgAlEmgKALJMtDPEQRLPP0ydNRN27cnFm9Pc4ypqamj4YOHrRFKBFV8DjjYXUqXoRopNUyBJ9PMvbt7O86WFs/bMzQJp44szI2+tDXPD4hFfCESKEoR8bGxgU2NraXzExM0vRbGRQKCL4K2oMMWdDJNm0sn3Tr5nIK/lNtbUE0hrjEo99BWfi9WCgoX7zYu0li99rN2x7gJwpJL+zAZ9fbB6IxPK7rHp89e9UrfOu22IyMDFs9fX1UVlaGDOTyql69ex+3tbY6ZWFhni2VySqKi4oMs3NyXJKfPJ364P6DbmZmZtnmbWwKnj192g0iBoDg7ejS4egiPy/P+qJTHDt9mbPs0jQr4PH4iMcjaaFISOfl5giNWrcq7N271+GOHTucMTcxSydEIq2iuNzwZWpap7t378xKTU/vw7AUCdYxsVhIDR44aNvihZzw+1tka0pJSe2zYWN4XGFxiQVMN+DSt3fvvUuD/Oc3Zo69KVtcXNV2fdiGyCdPnw8QS4RcyDJ7W5vfA5csc6/P8gauPFEHDn114cKlpeUVlRJYVIDTp0QiKXXp4HTWyan9BQsz0+dyA8NSmVCkUVFKaUWFslVBQYHjvbt3+2a+Th9SUFBgMXBA/x0BAf6Lm9L356kZvcM3hUe9Ts+0l8kNOMs0wdJKRwf7P6ysrB7p68vzxRJJBUnyENLSiGUpQqInLerRtevx+jLFQV8gyc3Dhw/7FxeXOVAUxZ0D5Al4CI5JkohkGUTQWVlZrlf+uOanUqkM4IAfSaLSqZMnfSvVE+eR4EjMQ4hgCZJhKHDpJViKIk0tTJ917dix1sQXZWVlrbdHHQj9/dqtWSSLSLFIgFTKStS+ffvkLh1d9re1trttZtGqQFlFEcoqtfmrtNSut2/fnvvixUtnsVjKLerKSgrR8KGDY2a5u/k0ZOFOz8uz37B2Y1JmdvabA2pMcKDflMYcUKsWu2o5TbPIwsLs5bJAP7eGxO7W3bvXnjtzPkgkEmnMzczTLdtYXrO3t79rZmqW1krfIEesL1EIkRCVKioMiotKTF++Su3z4NED99fp6Y5wj5WVFUgmkync3ad+P3ncmF9w6uCmPD34muYSwGK3uQTx9f8mkFFY2CYpLuHb23due5SVVeiBH1uVSs2FSeLxBODXViUUCqvAF7SyqkoOURL4JMkd2AEhAC9FfT0509nV9diUKRM+c3BwqFN05uUpzMLCfjn5OiOrPcEnaYaCNAawCQ6fHUjfQyKlsopPEOB2KuBTFMWChVUiEmjACkiwiIFSfJGA0Gq13B+pVKKePHnSV27jxzYq8Hl2donNnv17wx4+vD+OJPk8qLxafImRQqGEtJkI7hn+wFcYFgGDBg3cF+C7aH5dYvdQ3LGPExLjv38jdiUiUZnXYq8Fvevx6fvzVISkEvuit2y/cfMmJ3bBvUQXsQvCKDI2/ptz58+uUGkoPkSyAHcGLlsUTbMGBvJSmUxWBVmTKisrDSoqKggzU/PykaNH/0tDIcmJ48dXaTQqAXDo0sm1YbF74oLPwUOHQ7VarZBHClh9ffmjbt27X7p+49q80rJiWMxAOLoyuVyvQCyRabVq2qC8XGFeUVFGisCarq6CucV06uhyZuKUacEd7NvUGrrpf/GoHj16Mjj20KE1LEHywPon4JHq+fPne44YOiCyKf0Bv+Td+2L/dfrs2WCI1AGxrQ3kerleixfM69at29n66szJqTA5cebYirv37vhnZmbq6ekbcuMKc1IkErFyfXmBWCQqJxGr1Wi0IrVaZVBaUtxaLBZz60JY9IwdOWqPn5/Xgib2nXcg7sjyc+fPf1lSUiaDeSUSCTgrPsxNoVDIwlhTlBbUK/x/oq1Vm4eLfb2nOVhbp9TXJoS92xi+ZfOdO3dmMQzDUBRNCMQiiFdM0DRNEDwS5i9RM5/JmqgdGoahlAIRj0QUQ5DcewORDMOQPJIgaZrmDRsyeOvC+fMgS6SmtvafZeZ1iYyM2vDsydPB4MoAsZAVCgUyNW4N/S+SyuQlGrWa1NKscWlpqb5Kw4V/Q0KBCCkqylGv7l0uesycGuiowyGxGrF7NDO7Ol0wDyFqaZDf1F7duxzVZTyuQOixf4tdGlmaW7wICfR1s7GxSa7HqEDu3he9/uLFS4FqLqEJLNggLJ6AFQtFpa1bGZbwBUKFRkMRsDPHMIxRZZVSD9IHQ3Se6kUvT9WrR89DHtMmrTAzM8vTpa+4DCbQ0gSw2G1pov/w+srLy43P//b7vMuXLgdkZ2fb8fgCzjIJlpQ3YZfAqsRAbEmWBcsOlxGKpmnG1MT49YB+/fcOHdw/oqHQXQqFwuyzz768mFNQ0IETyySPqw+25+BvhkGURCJhKYqCDzUPxCxs+zIUxQXth4xFWq0WsrHCR44bNZIkq9zcJn3uPnni2sYOY3p6jsvhI/HLUp6lTCwtK2mFWIJfY8nlxDyIX7ByQCIBEPX9+vXfuzTIt07rHhdnNyERxC73jDZF7IIbw97IiG3Xb96qEbsq5Ghre8/H27deyy60l5lZZBUbF/vrjRu33AnODFjtSyuAqA6ccNdw9wXb8gYGBoVDhg4PGzt84PoL1+74x0TF/AhMAWsnF+cTnv5eC+qLs3vqzEW/mNiDG8rKKgSwQHBq1+7qvIXz51+4cMHvj9+vLFKplAb/GQ8S3Lq5MQaeNAUiia9ycmp3cpbHrE/s7P4+W6QgwNZtCEu4fOX3MTI9OddnfT152ierPppQVzQMXebduYt/zIqKitylVCpFJKr2E584YfwX06c3HL0km2WlN46eXHD1xrUlaWlp7XgCMZ9iuEivXNMwtjCukL4YBKgAMrvBc0VRjFQqLZw8ceKayRPH/UuXftZWBubkpWsnF1y+eNk7Ly/PiYvAweNxbcL7AYQU9zyyDDe3rC0tkpeGrHSztjZ90ZDY/eXXddtv374zFxbZICqhHqbmfcATVNcPD/yb9xBBsHTN4pPHUBquPMxx+G+QJAdYDB08aLuv9+KA+lwsnmbkdU48dOjTR48fusGYa6pU3DuGq4uiEUTOgH/DuwmErkZDwUK4snPnjifcJk/8up2NRZ1i8+17BjeGDWtDj2Vk57YHNwySRNqlgT7TenXvrpPY/f33azN37NmzXa3SyICzuaXFy6VLfCfXJ3ah/djD8V+dPHVmZUVFhVQgEHDvozebYrSW4v4tFFanv4ZU3TCW1WmDteAqU9ijZ7f9U6a7/2yq1zif36bOMXwdJlAbASx28bz4Swg8TknpdufWvfl3794bUl5ebqNUVUlIbn+SJDnLKuKBNYkSiQUKiUSU7eLscnrwkCGRHRza1urr9udOZmZmGu3euy8mKyfPEbQtJyxrYtIi0LoECf6LYM2t1rHojcsC/F8a4pxXf9xZGvpBqDUaUiwWq8eNGv3LmFFDtzcFCsuy/MePnw16/Dh5yMv0151KSkosq1QqQ4JFYkgJyol+OAZNsEzfPv0PL5g3Y1ld7Zw6dd7/aNLRFdB3EOz6Bvql06e5r+jZs+sZXfvGsqze1p17frp18/Z4gUgI4oVsZ2uXPHv29CBra+t6xQO0kadQmB05ELfyWUqKR2ZmpilBECL4WIMI4azkEkmliYnxgwkTJ27p37NbFAzBkRPn/U+eOLVSrVaTYjGJXJxdzk+e7bHCSr9un9BLl67MOXI06avKSqVQyyDW1bnDnZkefvMsLBB9OP64z6PHD3xSUlJsIb6sQCgiKVANCNFisbjKUF8vfeCgAZFDB/aPaMn4yboyrq9cSUmJ7a9rNsSWlJeZIZZAKrWK7NOjxwV3d7egumKp6tJuSkq6a/TB6B3p6a/bSEViLaVVo569e58c7jbpMxtDQ53C6mVk5DteuXZl4Y3b9yaUllfYVlUqwLWBRxAEyY0vS7MCgYCWiEWwG5PXzsnpt8EDB8V06djhfFN80P98X89SUzs8f/ZqREpKSreyslLbsrIyY7VaLUMIciWgamHKsiB2n81eON/bzsIirQGxK9i9N+qXq1evuknEYkql0ZJ8CAFQs1jkwp0hUPQQgI17VXD/hja4dHWQvxk0HAzUmx8W8QYP6Bs5Y4bHZw3dc34+q3f7wYXZf/xxdXFmRoaTVqvVQwjxCIZF8MhzQprHp/h8vrKNpfXz/gMGbu81vG+0EUHofDgvu6TEZuvGiD15RaWOGo2aEgv5am+vxX5dXDuc12XeXL9+e8Khw4d/LSkvkwiFQrJ161YvgwP8vE1MTJ7Xd312cXHbF89f9nv2NKX369dp3QsLC9spq6r0GJoGvzE+pPkG8V0tcmmGJEnKyMhIYW5m9tuI4aP2dP/A+ZguIQR1uQdcBhNoKgEsdptKDl/XIAHYgi8sVJrnFGR+8Pp1plNxSbFRlaqqFWwtSmVShZ5Ur6CtXdsHNubGD42NjfPqO2BTW2PgM6fm8YR1deTN16zGObf2ua5ECEmra2AUCsbMzEyha3zgBj6+0nKExEqFAhQEj6iqIpBUiuB/CkUlQ5JVShMTk4o6+86y4vz8SgNChgjonkLBMmZmeqWNPcTDsqw8P79SKpPJiEpUyYppWquvr19Sl/tEbf159Sqj85MXL/rm5+c5qNUquUAgVJkYG+eampg8dGnvcF3/LSELLhC5CoUB9/VTgiVLq9LB31KUm5urL5fLSVAfFEVp3r4ms6jIKvXZs4E5ufkdKsoVRjTNMK0MWxW1NjJ67Ny5w3WLVq0yGnM/DU7cFioAfqQVFRWtVCqSL5XKkFJZiXg8mdLISHeBU1dX0ktLWxlBaAWEWIVCwYI/ZUOca6srt6LCNCez0CU7K71zYVGxmaKyUp/VaoVSmUQll+sXWFmYP7aysH5gZWWS/lcIFmBUiJBUVFEhVIKzAVGtSt/8iBlGK5fLi3UZ36KiIn2KEklkMoSUSkRwzNF/u27/R+FWt/DGb594s1D+EySiqqqyvuf0z0whsUpubq5ranpm94K8XHOtltGnaIoVi8UKU0vLHNs2trfMzQ2Sm5rFEca9NY8nUNb4/5vp6QGbWmMs/7lv4AKTm5trCM+ZEiGihi28C+o82PjnOoqLiw0Ky8rs8guKnRTlCpOikmITtVJlpKW1Qj5fqJbpSUuMjY1SrK1sHjrZtUlpiXdpCz2OuJp/OAEsdv/hE+Bd337Ntjx8Y3R+wb7rPuL26iYACxg8dv9/zxAQoPgQUcuM8Rs3JF3Eesu0+L+pBb8X/jfccau6E8BiV3dWuCQmgAlgApgAJoAJYAKYwHtGAIvd92zAcHcxAUwAE8AEMAFMABPABHQngMWu7qxwSUwAE8AEMAFMABPABDCB94wAFrvv2YDh7mICmAAmgAlgApgAJoAJ6E4Ai13dWeGSmAAmgAlgApgAJoAJYALvGQEsdt+zAcPdxQQwAUwAE8AEMAFMABPQnQAWu7qzwiUxAUwAE8AEMAFMABPABN4zAljsvmcDhruLCWACmAAmgAlgApgAJqA7ASx2dWeFS2ICmAAmgAlgApgAJoAJvGcEsNh9zwYMdxcTwAQwAUwAE8AEMAFMQHcCWOzqzgqXxAQwAUwAE8AEMAFMABN4zwhgsfueDRjuLiaACWACmAAmgAlgApiA7gSw2NWdFS6JCWACmAAmgAlgApgAJvCeEcBi9z0bMNxdTAATwAQwAUwAE8AEMAHdCWCxqzsrXBITwAQwAUwAE8AEMAFM4D0jgMXuezZguLuYACaACWACmAAmgAlgAroTwGJXd1a4JCaACWACmAAmgAlgApjAe0YAi933bMBwdzEBTAATwAQwAUwAE8AEdCeAxa7urHBJTAATwAQwAUwAE8AEMIH3jAAWu+/ZgOHuYgKYACaACWACmAAmgAnoTgCLXd1Z4ZKYACaACWACmAAmgAlgAu8ZASx237MBw93FBDABTAATwAQwAUwAE9CdABa7urPCJTEBTAATwAQwAUwAE8AE3jMCWOy+ZwOGu4sJYAKYACaACWACmAAmoDsBLHZ1Z4VLYgKYACaACWACmAAmgAm8ZwSw2H3PBgx3FxPABDABTAATwAQwAUxAdwL/D8PIj4xNuM8wAAAAAElFTkSuQmCC;clipPath=inset(1.63% 22% 2.94% 19%);" parent="1" vertex="1">
          <mxGeometry x="-608.3100000000002" y="965.9999999999999" width="113.62" height="93.72" as="geometry" />
        </mxCell>
        <mxCell id="yl-EDWdLTb7qI4WnAejd-149" value="" style="shape=image;verticalLabelPosition=bottom;labelBackgroundColor=default;verticalAlign=top;aspect=fixed;imageAspect=0;image=https://cdn-icons-png.flaticon.com/512/4974/4974463.png;" parent="1" vertex="1">
          <mxGeometry x="-245" y="883" width="65" height="65" as="geometry" />
        </mxCell>
        <mxCell id="yl-EDWdLTb7qI4WnAejd-151" value="Source Code Repo" style="edgeStyle=orthogonalEdgeStyle;html=1;endArrow=none;elbow=vertical;startArrow=block;startFill=1;strokeColor=#000000;rounded=0;exitX=1;exitY=0.5;exitDx=0;exitDy=0;entryX=0;entryY=0.5;entryDx=0;entryDy=0;labelPosition=center;verticalLabelPosition=top;align=center;verticalAlign=bottom;labelBackgroundColor=none;" parent="1" target="yl-EDWdLTb7qI4WnAejd-149" edge="1">
          <mxGeometry x="-0.4487" y="1" width="100" relative="1" as="geometry">
            <mxPoint x="-386.23000000000025" y="1016.5" as="sourcePoint" />
            <mxPoint x="-235" y="816.24" as="targetPoint" />
            <Array as="points">
              <mxPoint x="-245" y="1016" />
            </Array>
            <mxPoint as="offset" />
          </mxGeometry>
        </mxCell>
        <mxCell id="yl-EDWdLTb7qI4WnAejd-29" value="&lt;font style=&quot;font-size: 10px;&quot;&gt;&lt;font style=&quot;font-size: 10px;&quot;&gt;EC2 instance contents (&lt;/font&gt;&lt;font style=&quot;font-size: 10px;&quot;&gt;worker1&lt;/font&gt;&lt;font style=&quot;font-size: 10px;&quot;&gt;)&lt;/font&gt;&lt;/font&gt;" style="points=[[0,0],[0.25,0],[0.5,0],[0.75,0],[1,0],[1,0.25],[1,0.5],[1,0.75],[1,1],[0.75,1],[0.5,1],[0.25,1],[0,1],[0,0.75],[0,0.5],[0,0.25]];outlineConnect=0;gradientColor=none;html=1;whiteSpace=wrap;fontSize=12;fontStyle=0;container=0;pointerEvents=0;collapsible=0;recursiveResize=0;shape=mxgraph.aws4.group;grIcon=mxgraph.aws4.group_ec2_instance_contents;strokeColor=#D86613;fillColor=none;verticalAlign=top;align=left;spacingLeft=30;fontColor=#D86613;dashed=0;" parent="1" vertex="1">
          <mxGeometry x="-1049" y="289" width="186" height="183" as="geometry" />
        </mxCell>
        <mxCell id="w0LMFPjHoHR6KnU9Sa33-2" value="&lt;font style=&quot;font-size: 10px;&quot;&gt;&lt;font style=&quot;font-size: 10px;&quot;&gt;EC2 instance contents (&lt;/font&gt;&lt;font style=&quot;font-size: 10px;&quot;&gt;worker3&lt;/font&gt;&lt;font style=&quot;font-size: 10px;&quot;&gt;)&lt;/font&gt;&lt;/font&gt;" style="points=[[0,0],[0.25,0],[0.5,0],[0.75,0],[1,0],[1,0.25],[1,0.5],[1,0.75],[1,1],[0.75,1],[0.5,1],[0.25,1],[0,1],[0,0.75],[0,0.5],[0,0.25]];outlineConnect=0;gradientColor=none;html=1;whiteSpace=wrap;fontSize=12;fontStyle=0;container=0;pointerEvents=0;collapsible=0;recursiveResize=0;shape=mxgraph.aws4.group;grIcon=mxgraph.aws4.group_ec2_instance_contents;strokeColor=#D86613;fillColor=none;verticalAlign=top;align=left;spacingLeft=30;fontColor=#D86613;dashed=0;" parent="1" vertex="1">
          <mxGeometry x="-570" y="288" width="290" height="185" as="geometry" />
        </mxCell>
        <mxCell id="w0LMFPjHoHR6KnU9Sa33-8" value="Pull Request" style="edgeStyle=orthogonalEdgeStyle;html=1;endArrow=none;elbow=vertical;startArrow=block;startFill=1;strokeColor=#000000;rounded=0;labelPosition=center;verticalLabelPosition=top;align=center;verticalAlign=bottom;labelBackgroundColor=none;" parent="1" edge="1">
          <mxGeometry width="100" relative="1" as="geometry">
            <mxPoint x="-521" y="1011" as="sourcePoint" />
            <mxPoint x="-451" y="1011" as="targetPoint" />
          </mxGeometry>
        </mxCell>
        <mxCell id="w0LMFPjHoHR6KnU9Sa33-9" value="&lt;font color=&quot;#ed7100&quot; style=&quot;font-size: 10px;&quot;&gt;AWS ECR&lt;/font&gt;" style="sketch=0;points=[[0,0,0],[0.25,0,0],[0.5,0,0],[0.75,0,0],[1,0,0],[0,1,0],[0.25,1,0],[0.5,1,0],[0.75,1,0],[1,1,0],[0,0.25,0],[0,0.5,0],[0,0.75,0],[1,0.25,0],[1,0.5,0],[1,0.75,0]];outlineConnect=0;fontColor=#232F3E;fillColor=#ED7100;strokeColor=#ffffff;dashed=0;verticalLabelPosition=middle;verticalAlign=middle;align=right;html=1;fontSize=12;fontStyle=0;aspect=fixed;shape=mxgraph.aws4.resourceIcon;resIcon=mxgraph.aws4.ecr;labelPosition=left;" parent="1" vertex="1">
          <mxGeometry x="-575" y="764" width="46" height="46" as="geometry" />
        </mxCell>
        <mxCell id="HAtJTmiLCUxBZ5le2n7W-51" style="edgeStyle=orthogonalEdgeStyle;rounded=0;orthogonalLoop=1;jettySize=auto;html=1;exitX=0;exitY=0.5;exitDx=0;exitDy=0;" parent="1" source="w0LMFPjHoHR6KnU9Sa33-13" target="yl-EDWdLTb7qI4WnAejd-95" edge="1">
          <mxGeometry relative="1" as="geometry">
            <Array as="points">
              <mxPoint x="-496" y="381" />
            </Array>
          </mxGeometry>
        </mxCell>
        <mxCell id="w0LMFPjHoHR6KnU9Sa33-13" value="" style="shape=image;verticalLabelPosition=bottom;labelBackgroundColor=default;verticalAlign=top;imageAspect=0;image=https://www.opsmx.com/wp-content/uploads/2022/07/Argo-1-e1630327305635-1.png;clipPath=inset(0% 25.33% 0% 27.33%);" parent="1" vertex="1">
          <mxGeometry x="-484.92999999999995" y="348.00000000000006" width="50" height="66" as="geometry" />
        </mxCell>
        <mxCell id="w0LMFPjHoHR6KnU9Sa33-14" value="" style="edgeStyle=orthogonalEdgeStyle;html=1;endArrow=none;elbow=vertical;startArrow=block;startFill=1;strokeColor=#000000;rounded=0;exitX=0.5;exitY=1;exitDx=0;exitDy=0;exitPerimeter=0;labelBackgroundColor=none;" parent="1" source="w0LMFPjHoHR6KnU9Sa33-9" target="yl-EDWdLTb7qI4WnAejd-148" edge="1">
          <mxGeometry width="100" relative="1" as="geometry">
            <mxPoint x="-670" y="520" as="sourcePoint" />
            <mxPoint x="-570" y="520" as="targetPoint" />
          </mxGeometry>
        </mxCell>
        <mxCell id="w0LMFPjHoHR6KnU9Sa33-19" value="Deployment Repo (Gitops Repo)" style="edgeStyle=orthogonalEdgeStyle;html=1;endArrow=none;elbow=vertical;startArrow=block;startFill=1;strokeColor=#000000;rounded=0;exitX=1;exitY=0.5;exitDx=0;exitDy=0;entryX=0;entryY=0.5;entryDx=0;entryDy=0;labelBackgroundColor=none;labelPosition=center;verticalLabelPosition=top;align=center;verticalAlign=bottom;" parent="1" source="RvDOAOYHqPrXsHDZ0j0p-52" target="yl-EDWdLTb7qI4WnAejd-149" edge="1">
          <mxGeometry x="-0.0154" y="1" width="100" relative="1" as="geometry">
            <mxPoint x="-432.1099999999999" y="915.5" as="sourcePoint" />
            <mxPoint x="-360" y="805" as="targetPoint" />
            <mxPoint as="offset" />
          </mxGeometry>
        </mxCell>
        <mxCell id="w0LMFPjHoHR6KnU9Sa33-21" value="" style="shape=image;verticalLabelPosition=bottom;labelBackgroundColor=default;verticalAlign=top;aspect=fixed;imageAspect=0;image=https://devocean.sk.com/thumnail/2022/11/30/5f89e217f648da151a30faa91b041aa6271fe3987c355219c8a29ef79e77942f.png;clipPath=inset(12.67% 13% 12.67% 12.67%);" parent="1" vertex="1">
          <mxGeometry x="-330" y="846.5" width="49.27" height="49.5" as="geometry" />
        </mxCell>
        <mxCell id="w0LMFPjHoHR6KnU9Sa33-27" value="Image&lt;br&gt;pull" style="edgeStyle=orthogonalEdgeStyle;html=1;endArrow=none;elbow=vertical;startArrow=block;startFill=1;strokeColor=#000000;rounded=0;entryX=0.5;entryY=0;entryDx=0;entryDy=0;entryPerimeter=0;labelPosition=right;verticalLabelPosition=middle;align=center;verticalAlign=middle;labelBackgroundColor=none;" parent="1" target="w0LMFPjHoHR6KnU9Sa33-9" edge="1" source="yl-EDWdLTb7qI4WnAejd-95">
          <mxGeometry x="-0.1356" y="16" width="100" relative="1" as="geometry">
            <mxPoint x="-586" y="422.75" as="sourcePoint" />
            <mxPoint x="-528.4299999999998" y="723" as="targetPoint" />
            <Array as="points">
              <mxPoint x="-552" y="423" />
              <mxPoint x="-552" y="766" />
            </Array>
            <mxPoint as="offset" />
          </mxGeometry>
        </mxCell>
        <mxCell id="w0LMFPjHoHR6KnU9Sa33-28" value="" style="shape=image;verticalLabelPosition=bottom;labelBackgroundColor=default;verticalAlign=top;aspect=fixed;imageAspect=0;image=https://upload.wikimedia.org/wikipedia/commons/thumb/a/a1/Grafana_logo.svg/1200px-Grafana_logo.svg.png;" parent="1" vertex="1">
          <mxGeometry x="-430" y="326.05" width="52.87" height="53.95" as="geometry" />
        </mxCell>
        <mxCell id="w0LMFPjHoHR6KnU9Sa33-31" value="" style="shape=image;verticalLabelPosition=bottom;labelBackgroundColor=default;verticalAlign=top;aspect=fixed;imageAspect=0;image=https://upload.wikimedia.org/wikipedia/commons/thumb/3/38/Prometheus_software_logo.svg/2066px-Prometheus_software_logo.svg.png;" parent="1" vertex="1">
          <mxGeometry x="-366.24" y="326.05" width="51.37" height="50.94" as="geometry" />
        </mxCell>
        <mxCell id="JGEoNA1iqnus2F3_3emS-1" value="" style="shape=image;verticalLabelPosition=bottom;labelBackgroundColor=default;verticalAlign=top;aspect=fixed;imageAspect=0;image=https://www.redhat.com/rhdc/managed-files/helm.svg;" parent="1" vertex="1">
          <mxGeometry x="-392.84" y="851" width="40.5" height="40.5" as="geometry" />
        </mxCell>
        <mxCell id="RvDOAOYHqPrXsHDZ0j0p-31" style="edgeStyle=orthogonalEdgeStyle;rounded=0;orthogonalLoop=1;jettySize=auto;html=1;exitX=0.5;exitY=1;exitDx=0;exitDy=0;" parent="1" edge="1">
          <mxGeometry relative="1" as="geometry">
            <mxPoint x="-484" y="720" as="sourcePoint" />
            <mxPoint x="-484" y="720" as="targetPoint" />
          </mxGeometry>
        </mxCell>
        <mxCell id="RvDOAOYHqPrXsHDZ0j0p-51" value="" style="shape=image;verticalLabelPosition=bottom;labelBackgroundColor=default;verticalAlign=top;aspect=fixed;imageAspect=0;image=https://git-scm.com/images/logos/downloads/Git-Icon-1788C.png;" parent="1" vertex="1">
          <mxGeometry x="-444" y="988.78" width="54.22" height="54.22" as="geometry" />
        </mxCell>
        <mxCell id="RvDOAOYHqPrXsHDZ0j0p-52" value="" style="shape=image;verticalLabelPosition=bottom;labelBackgroundColor=default;verticalAlign=top;aspect=fixed;imageAspect=0;image=https://git-scm.com/images/logos/downloads/Git-Icon-1788C.png;" parent="1" vertex="1">
          <mxGeometry x="-486.75999999999993" y="888.39" width="54.22" height="54.22" as="geometry" />
        </mxCell>
        <mxCell id="RvDOAOYHqPrXsHDZ0j0p-54" value="&lt;font style=&quot;font-size: 10px;&quot;&gt;&lt;font style=&quot;font-size: 10px;&quot;&gt;EC2 instance contents (&lt;/font&gt;&lt;font style=&quot;font-size: 10px;&quot;&gt;worker5&lt;/font&gt;&lt;font style=&quot;font-size: 10px;&quot;&gt;)&lt;/font&gt;&lt;/font&gt;" style="points=[[0,0],[0.25,0],[0.5,0],[0.75,0],[1,0],[1,0.25],[1,0.5],[1,0.75],[1,1],[0.75,1],[0.5,1],[0.25,1],[0,1],[0,0.75],[0,0.5],[0,0.25]];outlineConnect=0;gradientColor=none;html=1;whiteSpace=wrap;fontSize=12;fontStyle=0;container=0;pointerEvents=0;collapsible=0;recursiveResize=0;shape=mxgraph.aws4.group;grIcon=mxgraph.aws4.group_ec2_instance_contents;strokeColor=#D86613;fillColor=none;verticalAlign=top;align=left;spacingLeft=30;fontColor=#D86613;dashed=0;" parent="1" vertex="1">
          <mxGeometry x="-782" y="536.67" width="186" height="176.33" as="geometry" />
        </mxCell>
        <mxCell id="HAtJTmiLCUxBZ5le2n7W-20" value="&lt;span style=&quot;font-size: 10px;&quot;&gt;Auto Scaling&lt;br&gt;group&lt;/span&gt;" style="points=[[0,0],[0.25,0],[0.5,0],[0.75,0],[1,0],[1,0.25],[1,0.5],[1,0.75],[1,1],[0.75,1],[0.5,1],[0.25,1],[0,1],[0,0.75],[0,0.5],[0,0.25]];outlineConnect=0;gradientColor=none;html=1;whiteSpace=wrap;fontSize=12;fontStyle=0;container=1;pointerEvents=0;collapsible=0;recursiveResize=0;shape=mxgraph.aws4.groupCenter;grIcon=mxgraph.aws4.group_auto_scaling_group;grStroke=1;strokeColor=#D86613;fillColor=none;verticalAlign=middle;align=center;fontColor=#D86613;dashed=1;spacingTop=25;labelPosition=center;verticalLabelPosition=middle;" parent="1" vertex="1">
          <mxGeometry x="-1062" y="533" width="480" height="187" as="geometry" />
        </mxCell>
        <mxCell id="HAtJTmiLCUxBZ5le2n7W-31" value="" style="group" parent="1" vertex="1" connectable="0">
          <mxGeometry x="-757" y="598" width="61" height="74" as="geometry" />
        </mxCell>
        <mxCell id="HAtJTmiLCUxBZ5le2n7W-32" value="" style="rounded=0;whiteSpace=wrap;html=1;fillColor=none;strokeColor=#ec801b;" parent="HAtJTmiLCUxBZ5le2n7W-31" vertex="1">
          <mxGeometry width="60" height="70" as="geometry" />
        </mxCell>
        <mxCell id="HAtJTmiLCUxBZ5le2n7W-33" value="" style="sketch=0;outlineConnect=0;fontColor=#232F3E;gradientColor=none;fillColor=#ED7100;strokeColor=none;dashed=0;verticalLabelPosition=bottom;verticalAlign=top;align=center;html=1;fontSize=12;fontStyle=0;aspect=fixed;pointerEvents=1;shape=mxgraph.aws4.container_1;" parent="HAtJTmiLCUxBZ5le2n7W-31" vertex="1">
          <mxGeometry width="18.58" height="12" as="geometry" />
        </mxCell>
        <mxCell id="HAtJTmiLCUxBZ5le2n7W-34" value="" style="dashed=0;outlineConnect=0;html=1;align=center;labelPosition=center;verticalLabelPosition=bottom;verticalAlign=top;shape=mxgraph.weblogos.mongodb" parent="HAtJTmiLCUxBZ5le2n7W-31" vertex="1">
          <mxGeometry x="15" y="12" width="30" height="40" as="geometry" />
        </mxCell>
        <mxCell id="HAtJTmiLCUxBZ5le2n7W-35" value="Slave" style="text;strokeColor=none;align=center;fillColor=none;html=1;verticalAlign=middle;whiteSpace=wrap;rounded=0;" parent="HAtJTmiLCUxBZ5le2n7W-31" vertex="1">
          <mxGeometry x="1" y="44" width="60" height="30" as="geometry" />
        </mxCell>
        <mxCell id="HAtJTmiLCUxBZ5le2n7W-45" value="" style="sketch=0;outlineConnect=0;fontColor=#232F3E;gradientColor=none;fillColor=#8C4FFF;strokeColor=none;dashed=0;verticalLabelPosition=bottom;verticalAlign=top;align=center;html=1;fontSize=12;fontStyle=0;aspect=fixed;pointerEvents=1;shape=mxgraph.aws4.network_load_balancer;" parent="1" vertex="1">
          <mxGeometry x="-838.35" y="485.5" width="29.5" height="29.5" as="geometry" />
        </mxCell>
        <mxCell id="HAtJTmiLCUxBZ5le2n7W-47" value="NLB" style="text;strokeColor=none;align=center;fillColor=none;html=1;verticalAlign=middle;whiteSpace=wrap;rounded=0;" parent="1" vertex="1">
          <mxGeometry x="-852.6" y="506.5" width="60" height="30" as="geometry" />
        </mxCell>
        <mxCell id="w0LMFPjHoHR6KnU9Sa33-1" value="&lt;span style=&quot;font-size: 10px;&quot;&gt;Auto Scaling&lt;br&gt;group&lt;/span&gt;" style="points=[[0,0],[0.25,0],[0.5,0],[0.75,0],[1,0],[1,0.25],[1,0.5],[1,0.75],[1,1],[0.75,1],[0.5,1],[0.25,1],[0,1],[0,0.75],[0,0.5],[0,0.25]];outlineConnect=0;gradientColor=none;html=1;whiteSpace=wrap;fontSize=12;fontStyle=0;container=1;pointerEvents=0;collapsible=0;recursiveResize=0;shape=mxgraph.aws4.groupCenter;grIcon=mxgraph.aws4.group_auto_scaling_group;grStroke=1;strokeColor=#D86613;fillColor=none;verticalAlign=middle;align=center;fontColor=#D86613;dashed=1;spacingTop=25;labelPosition=center;verticalLabelPosition=middle;" parent="1" vertex="1">
          <mxGeometry x="-1063" y="286" width="483" height="194" as="geometry" />
        </mxCell>
        <mxCell id="HAtJTmiLCUxBZ5le2n7W-54" value="" style="group;strokeColor=none;" parent="1" vertex="1" connectable="0">
          <mxGeometry x="-1053" y="537" width="191" height="178" as="geometry" />
        </mxCell>
        <mxCell id="yl-EDWdLTb7qI4WnAejd-121" value="" style="group" parent="HAtJTmiLCUxBZ5le2n7W-54" vertex="1" connectable="0">
          <mxGeometry x="22.629032258064516" y="24.453114754098348" width="59.03225806451613" height="68.08743169398907" as="geometry" />
        </mxCell>
        <mxCell id="yl-EDWdLTb7qI4WnAejd-122" value="" style="rounded=0;whiteSpace=wrap;html=1;fillColor=none;strokeColor=#ec801b;" parent="yl-EDWdLTb7qI4WnAejd-121" vertex="1">
          <mxGeometry width="59.03225806451613" height="68.08743169398907" as="geometry" />
        </mxCell>
        <mxCell id="yl-EDWdLTb7qI4WnAejd-123" value="" style="sketch=0;outlineConnect=0;fontColor=#232F3E;gradientColor=none;fillColor=#ED7100;strokeColor=none;dashed=0;verticalLabelPosition=bottom;verticalAlign=top;align=center;html=1;fontSize=12;fontStyle=0;aspect=fixed;pointerEvents=1;shape=mxgraph.aws4.container_1;" parent="yl-EDWdLTb7qI4WnAejd-121" vertex="1">
          <mxGeometry width="18.072349726775958" height="11.672131147540984" as="geometry" />
        </mxCell>
        <mxCell id="yl-EDWdLTb7qI4WnAejd-124" value="" style="dashed=0;outlineConnect=0;html=1;align=center;labelPosition=center;verticalLabelPosition=bottom;verticalAlign=top;shape=mxgraph.weblogos.mongodb" parent="yl-EDWdLTb7qI4WnAejd-121" vertex="1">
          <mxGeometry x="14.758064516129032" y="8.754098360655739" width="29.516129032258064" height="38.907103825136616" as="geometry" />
        </mxCell>
        <mxCell id="RvDOAOYHqPrXsHDZ0j0p-25" value="Master" style="text;strokeColor=none;align=center;fillColor=none;html=1;verticalAlign=middle;whiteSpace=wrap;rounded=0;" parent="yl-EDWdLTb7qI4WnAejd-121" vertex="1">
          <mxGeometry y="38.77092896174864" width="59.03225806451613" height="32.234535519125686" as="geometry" />
        </mxCell>
        <mxCell id="RvDOAOYHqPrXsHDZ0j0p-53" value="&lt;font style=&quot;font-size: 10px;&quot;&gt;&lt;font style=&quot;font-size: 10px;&quot;&gt;EC2 instance contents (&lt;/font&gt;&lt;font style=&quot;font-size: 10px;&quot;&gt;worker4&lt;/font&gt;&lt;font style=&quot;font-size: 10px;&quot;&gt;)&lt;/font&gt;&lt;/font&gt;" style="points=[[0,0],[0.25,0],[0.5,0],[0.75,0],[1,0],[1,0.25],[1,0.5],[1,0.75],[1,1],[0.75,1],[0.5,1],[0.25,1],[0,1],[0,0.75],[0,0.5],[0,0.25]];outlineConnect=0;gradientColor=none;html=1;whiteSpace=wrap;fontSize=12;fontStyle=0;container=0;pointerEvents=0;collapsible=0;recursiveResize=0;shape=mxgraph.aws4.group;grIcon=mxgraph.aws4.group_ec2_instance_contents;strokeColor=#D86613;fillColor=none;verticalAlign=top;align=left;spacingLeft=30;fontColor=#D86613;dashed=0;" parent="HAtJTmiLCUxBZ5le2n7W-54" vertex="1">
          <mxGeometry x="1" width="190" height="176" as="geometry" />
        </mxCell>
        <mxCell id="HAtJTmiLCUxBZ5le2n7W-9" value="" style="group" parent="HAtJTmiLCUxBZ5le2n7W-54" vertex="1" connectable="0">
          <mxGeometry x="101.33870967741936" y="24.316939890710383" width="59.03225806451613" height="71.97814207650273" as="geometry" />
        </mxCell>
        <mxCell id="yl-EDWdLTb7qI4WnAejd-84" value="" style="rounded=0;whiteSpace=wrap;html=1;fillColor=none;strokeColor=#ec801b;" parent="HAtJTmiLCUxBZ5le2n7W-9" vertex="1">
          <mxGeometry width="59.03225806451613" height="68.08743169398907" as="geometry" />
        </mxCell>
        <mxCell id="yl-EDWdLTb7qI4WnAejd-85" value="" style="sketch=0;outlineConnect=0;fontColor=#232F3E;gradientColor=none;fillColor=#ED7100;strokeColor=none;dashed=0;verticalLabelPosition=bottom;verticalAlign=top;align=center;html=1;fontSize=12;fontStyle=0;aspect=fixed;pointerEvents=1;shape=mxgraph.aws4.container_1;" parent="HAtJTmiLCUxBZ5le2n7W-9" vertex="1">
          <mxGeometry width="18.072349726775958" height="11.672131147540984" as="geometry" />
        </mxCell>
        <mxCell id="yl-EDWdLTb7qI4WnAejd-86" value="" style="image;aspect=fixed;html=1;points=[];align=center;fontSize=12;image=img/lib/azure2/databases/Azure_Database_MariaDB_Server.svg;" parent="HAtJTmiLCUxBZ5le2n7W-9" vertex="1">
          <mxGeometry x="14.758064516129032" y="10.699453551912569" width="29.180327868852462" height="38.907103825136616" as="geometry" />
        </mxCell>
        <mxCell id="RvDOAOYHqPrXsHDZ0j0p-26" value="Master" style="text;strokeColor=none;align=center;fillColor=none;html=1;verticalAlign=middle;whiteSpace=wrap;rounded=0;" parent="HAtJTmiLCUxBZ5le2n7W-9" vertex="1">
          <mxGeometry y="42.797814207650276" width="59.03225806451613" height="29.180327868852462" as="geometry" />
        </mxCell>
        <mxCell id="HAtJTmiLCUxBZ5le2n7W-13" value="" style="group" parent="HAtJTmiLCUxBZ5le2n7W-54" vertex="1" connectable="0">
          <mxGeometry x="22.825806451612948" y="101.1584699453552" width="60.016129032258064" height="71.97814207650273" as="geometry" />
        </mxCell>
        <mxCell id="yl-EDWdLTb7qI4WnAejd-70" value="" style="rounded=0;whiteSpace=wrap;html=1;fillColor=none;strokeColor=#ec801b;" parent="HAtJTmiLCUxBZ5le2n7W-13" vertex="1">
          <mxGeometry width="59.03225806451613" height="68.08743169398907" as="geometry" />
        </mxCell>
        <mxCell id="yl-EDWdLTb7qI4WnAejd-71" value="" style="sketch=0;outlineConnect=0;fontColor=#232F3E;gradientColor=none;fillColor=#ED7100;strokeColor=none;dashed=0;verticalLabelPosition=bottom;verticalAlign=top;align=center;html=1;fontSize=12;fontStyle=0;aspect=fixed;pointerEvents=1;shape=mxgraph.aws4.container_1;" parent="HAtJTmiLCUxBZ5le2n7W-13" vertex="1">
          <mxGeometry width="18.072349726775958" height="11.672131147540984" as="geometry" />
        </mxCell>
        <mxCell id="yl-EDWdLTb7qI4WnAejd-73" value="" style="dashed=0;outlineConnect=0;html=1;align=center;labelPosition=center;verticalLabelPosition=bottom;verticalAlign=top;shape=mxgraph.weblogos.mongodb" parent="HAtJTmiLCUxBZ5le2n7W-13" vertex="1">
          <mxGeometry x="14.758064516129032" y="11.672131147540984" width="29.516129032258064" height="38.907103825136616" as="geometry" />
        </mxCell>
        <mxCell id="RvDOAOYHqPrXsHDZ0j0p-27" value="Slave" style="text;strokeColor=none;align=center;fillColor=none;html=1;verticalAlign=middle;whiteSpace=wrap;rounded=0;" parent="HAtJTmiLCUxBZ5le2n7W-13" vertex="1">
          <mxGeometry x="0.9838709677419355" y="42.797814207650276" width="59.03225806451613" height="29.180327868852462" as="geometry" />
        </mxCell>
        <mxCell id="HAtJTmiLCUxBZ5le2n7W-14" value="" style="group" parent="HAtJTmiLCUxBZ5le2n7W-54" vertex="1" connectable="0">
          <mxGeometry x="101.33870967741936" y="101.1584699453552" width="59.03225806451613" height="71.97814207650273" as="geometry" />
        </mxCell>
        <mxCell id="HAtJTmiLCUxBZ5le2n7W-15" value="" style="rounded=0;whiteSpace=wrap;html=1;fillColor=none;strokeColor=#ec801b;" parent="HAtJTmiLCUxBZ5le2n7W-14" vertex="1">
          <mxGeometry width="59.03225806451613" height="68.08743169398907" as="geometry" />
        </mxCell>
        <mxCell id="HAtJTmiLCUxBZ5le2n7W-16" value="" style="sketch=0;outlineConnect=0;fontColor=#232F3E;gradientColor=none;fillColor=#ED7100;strokeColor=none;dashed=0;verticalLabelPosition=bottom;verticalAlign=top;align=center;html=1;fontSize=12;fontStyle=0;aspect=fixed;pointerEvents=1;shape=mxgraph.aws4.container_1;" parent="HAtJTmiLCUxBZ5le2n7W-14" vertex="1">
          <mxGeometry width="18.072349726775958" height="11.672131147540984" as="geometry" />
        </mxCell>
        <mxCell id="HAtJTmiLCUxBZ5le2n7W-17" value="" style="image;aspect=fixed;html=1;points=[];align=center;fontSize=12;image=img/lib/azure2/databases/Azure_Database_MariaDB_Server.svg;" parent="HAtJTmiLCUxBZ5le2n7W-14" vertex="1">
          <mxGeometry x="14.758064516129032" y="10.699453551912569" width="29.180327868852462" height="38.907103825136616" as="geometry" />
        </mxCell>
        <mxCell id="HAtJTmiLCUxBZ5le2n7W-19" value="Slave" style="text;strokeColor=none;align=center;fillColor=none;html=1;verticalAlign=middle;whiteSpace=wrap;rounded=0;" parent="HAtJTmiLCUxBZ5le2n7W-14" vertex="1">
          <mxGeometry y="42.797814207650276" width="59.03225806451613" height="29.180327868852462" as="geometry" />
        </mxCell>
        <mxCell id="HAtJTmiLCUxBZ5le2n7W-57" value="VPC EndPoint" style="text;strokeColor=none;align=center;fillColor=none;html=1;verticalAlign=middle;whiteSpace=wrap;rounded=0;" parent="1" vertex="1">
          <mxGeometry x="-554.9300000000001" y="651" width="60" height="30" as="geometry" />
        </mxCell>
        <mxCell id="HAtJTmiLCUxBZ5le2n7W-37" value="" style="rounded=0;whiteSpace=wrap;html=1;fillColor=none;strokeColor=#ec801b;" parent="1" vertex="1">
          <mxGeometry x="-677.2" y="598" width="60" height="70" as="geometry" />
        </mxCell>
        <mxCell id="HAtJTmiLCUxBZ5le2n7W-38" value="" style="sketch=0;outlineConnect=0;fontColor=#232F3E;gradientColor=none;fillColor=#ED7100;strokeColor=none;dashed=0;verticalLabelPosition=bottom;verticalAlign=top;align=center;html=1;fontSize=12;fontStyle=0;aspect=fixed;pointerEvents=1;shape=mxgraph.aws4.container_1;" parent="1" vertex="1">
          <mxGeometry x="-677.2" y="598" width="18.58" height="12" as="geometry" />
        </mxCell>
        <mxCell id="HAtJTmiLCUxBZ5le2n7W-39" value="" style="image;aspect=fixed;html=1;points=[];align=center;fontSize=12;image=img/lib/azure2/databases/Azure_Database_MariaDB_Server.svg;" parent="1" vertex="1">
          <mxGeometry x="-660" y="610" width="27.8" height="37.07" as="geometry" />
        </mxCell>
        <mxCell id="HAtJTmiLCUxBZ5le2n7W-40" value="Slave" style="text;strokeColor=none;align=center;fillColor=none;html=1;verticalAlign=middle;whiteSpace=wrap;rounded=0;" parent="1" vertex="1">
          <mxGeometry x="-677.2" y="643" width="60" height="30" as="geometry" />
        </mxCell>
        <mxCell id="DPr1eYjGlx0VMEfDLy8i-3" value="AWS&lt;br&gt;OpenSearch Service&amp;nbsp;" style="sketch=0;points=[[0,0,0],[0.25,0,0],[0.5,0,0],[0.75,0,0],[1,0,0],[0,1,0],[0.25,1,0],[0.5,1,0],[0.75,1,0],[1,1,0],[0,0.25,0],[0,0.5,0],[0,0.75,0],[1,0.25,0],[1,0.5,0],[1,0.75,0]];outlineConnect=0;fontColor=#232F3E;fillColor=#8C4FFF;strokeColor=#ffffff;dashed=0;verticalLabelPosition=bottom;verticalAlign=top;align=center;html=1;fontSize=12;fontStyle=0;aspect=fixed;shape=mxgraph.aws4.resourceIcon;resIcon=mxgraph.aws4.elasticsearch_service;" vertex="1" parent="1">
          <mxGeometry x="-406.81" y="130" width="50" height="50" as="geometry" />
        </mxCell>
        <mxCell id="DPr1eYjGlx0VMEfDLy8i-4" value="Amazon MKS" style="sketch=0;points=[[0,0,0],[0.25,0,0],[0.5,0,0],[0.75,0,0],[1,0,0],[0,1,0],[0.25,1,0],[0.5,1,0],[0.75,1,0],[1,1,0],[0,0.25,0],[0,0.5,0],[0,0.75,0],[1,0.25,0],[1,0.5,0],[1,0.75,0]];outlineConnect=0;fontColor=#232F3E;fillColor=#8C4FFF;strokeColor=#ffffff;dashed=0;verticalLabelPosition=bottom;verticalAlign=top;align=center;html=1;fontSize=12;fontStyle=0;aspect=fixed;shape=mxgraph.aws4.resourceIcon;resIcon=mxgraph.aws4.managed_streaming_for_kafka;" vertex="1" parent="1">
          <mxGeometry x="-554.93" y="132" width="50" height="50" as="geometry" />
        </mxCell>
        <mxCell id="DPr1eYjGlx0VMEfDLy8i-8" style="edgeStyle=orthogonalEdgeStyle;rounded=0;orthogonalLoop=1;jettySize=auto;html=1;exitX=0.5;exitY=0;exitDx=0;exitDy=0;entryX=0.5;entryY=1;entryDx=0;entryDy=0;" edge="1" parent="1" source="RvDOAOYHqPrXsHDZ0j0p-52" target="w0LMFPjHoHR6KnU9Sa33-13">
          <mxGeometry relative="1" as="geometry">
            <mxPoint x="-877" y="921" as="sourcePoint" />
            <mxPoint x="-877" y="743" as="targetPoint" />
          </mxGeometry>
        </mxCell>
        <mxCell id="DPr1eYjGlx0VMEfDLy8i-9" value="Ingress-controller-managed Load Balancer" style="sketch=0;points=[[0,0,0],[0.25,0,0],[0.5,0,0],[0.75,0,0],[1,0,0],[0,1,0],[0.25,1,0],[0.5,1,0],[0.75,1,0],[1,1,0],[0,0.25,0],[0,0.5,0],[0,0.75,0],[1,0.25,0],[1,0.5,0],[1,0.75,0]];outlineConnect=0;fontColor=#232F3E;fillColor=#8C4FFF;strokeColor=#ffffff;dashed=0;verticalLabelPosition=middle;verticalAlign=middle;align=left;html=1;fontSize=12;fontStyle=0;aspect=fixed;shape=mxgraph.aws4.resourceIcon;resIcon=mxgraph.aws4.elastic_load_balancing;labelPosition=right;" vertex="1" parent="1">
          <mxGeometry x="-650" y="-148" width="50" height="50" as="geometry" />
        </mxCell>
        <mxCell id="DPr1eYjGlx0VMEfDLy8i-22" value="" style="group" vertex="1" connectable="0" parent="1">
          <mxGeometry x="-1043.3" y="350" width="77.29999999999995" height="78" as="geometry" />
        </mxCell>
        <mxCell id="yl-EDWdLTb7qI4WnAejd-37" value="" style="group;fillColor=#ffe6cc;strokeColor=#d79b00;" parent="DPr1eYjGlx0VMEfDLy8i-22" vertex="1" connectable="0">
          <mxGeometry width="37" height="37" as="geometry" />
        </mxCell>
        <mxCell id="yl-EDWdLTb7qI4WnAejd-32" value="" style="sketch=0;outlineConnect=0;fontColor=#232F3E;gradientColor=none;fillColor=#ED7100;strokeColor=none;dashed=0;verticalLabelPosition=bottom;verticalAlign=top;align=center;html=1;fontSize=12;fontStyle=0;aspect=fixed;pointerEvents=1;shape=mxgraph.aws4.container_1;" parent="yl-EDWdLTb7qI4WnAejd-37" vertex="1">
          <mxGeometry width="11.457666666666666" height="7.4" as="geometry" />
        </mxCell>
        <mxCell id="yl-EDWdLTb7qI4WnAejd-34" value="" style="rounded=0;whiteSpace=wrap;html=1;fillColor=none;strokeColor=#ec7e18;labelBorderColor=default;" parent="yl-EDWdLTb7qI4WnAejd-37" vertex="1">
          <mxGeometry width="37" height="37" as="geometry" />
        </mxCell>
        <mxCell id="RvDOAOYHqPrXsHDZ0j0p-10" value="" style="image;aspect=fixed;html=1;points=[];align=center;fontSize=12;image=img/lib/azure2/compute/Azure_Spring_Cloud.svg;clipPath=inset(14.71% 14.71% 20.59% 20.59% round 50%);" parent="yl-EDWdLTb7qI4WnAejd-37" vertex="1">
          <mxGeometry x="7.708333333333334" y="7.708333333333334" width="21.583333333333336" height="21.583333333333336" as="geometry" />
        </mxCell>
        <mxCell id="DPr1eYjGlx0VMEfDLy8i-10" value="" style="group;fillColor=#fff2cc;strokeColor=#d6b656;" vertex="1" connectable="0" parent="DPr1eYjGlx0VMEfDLy8i-22">
          <mxGeometry x="40.299999999999955" width="37" height="37" as="geometry" />
        </mxCell>
        <mxCell id="DPr1eYjGlx0VMEfDLy8i-11" value="" style="sketch=0;outlineConnect=0;fontColor=#232F3E;gradientColor=none;fillColor=#ED7100;strokeColor=none;dashed=0;verticalLabelPosition=bottom;verticalAlign=top;align=center;html=1;fontSize=12;fontStyle=0;aspect=fixed;pointerEvents=1;shape=mxgraph.aws4.container_1;" vertex="1" parent="DPr1eYjGlx0VMEfDLy8i-10">
          <mxGeometry width="11.457666666666666" height="7.4" as="geometry" />
        </mxCell>
        <mxCell id="DPr1eYjGlx0VMEfDLy8i-12" value="" style="rounded=0;whiteSpace=wrap;html=1;fillColor=none;strokeColor=#8a4300;labelBorderColor=default;" vertex="1" parent="DPr1eYjGlx0VMEfDLy8i-10">
          <mxGeometry width="37" height="37" as="geometry" />
        </mxCell>
        <mxCell id="DPr1eYjGlx0VMEfDLy8i-13" value="" style="image;aspect=fixed;points=[];align=center;fontSize=12;image=img/lib/azure2/compute/Azure_Spring_Cloud.svg;clipPath=inset(14.71% 14.71% 20.59% 20.59% round 50%);labelBackgroundColor=none;labelBorderColor=none;html=1;fontColor=none;noLabel=1;" vertex="1" parent="DPr1eYjGlx0VMEfDLy8i-10">
          <mxGeometry x="7.708333333333334" y="7.708333333333334" width="21.583333333333336" height="21.583333333333336" as="geometry" />
        </mxCell>
        <mxCell id="DPr1eYjGlx0VMEfDLy8i-14" value="" style="group;strokeColor=#6c8ebf;strokeWidth=1;fillColor=#dae8fc;" vertex="1" connectable="0" parent="DPr1eYjGlx0VMEfDLy8i-22">
          <mxGeometry x="0.2999999999999545" y="41" width="37" height="37" as="geometry" />
        </mxCell>
        <mxCell id="DPr1eYjGlx0VMEfDLy8i-15" value="" style="sketch=0;outlineConnect=0;fontColor=#232F3E;gradientColor=none;fillColor=#ED7100;strokeColor=none;dashed=0;verticalLabelPosition=bottom;verticalAlign=top;align=center;html=1;fontSize=12;fontStyle=0;aspect=fixed;pointerEvents=1;shape=mxgraph.aws4.container_1;" vertex="1" parent="DPr1eYjGlx0VMEfDLy8i-14">
          <mxGeometry width="11.457666666666666" height="7.4" as="geometry" />
        </mxCell>
        <mxCell id="DPr1eYjGlx0VMEfDLy8i-16" value="" style="rounded=0;whiteSpace=wrap;html=1;fillColor=none;strokeColor=#0066CC;labelBorderColor=default;" vertex="1" parent="DPr1eYjGlx0VMEfDLy8i-14">
          <mxGeometry width="37" height="37" as="geometry" />
        </mxCell>
        <mxCell id="DPr1eYjGlx0VMEfDLy8i-17" value="" style="image;aspect=fixed;html=1;points=[];align=center;fontSize=12;image=img/lib/azure2/compute/Azure_Spring_Cloud.svg;clipPath=inset(14.71% 14.71% 20.59% 20.59% round 50%);" vertex="1" parent="DPr1eYjGlx0VMEfDLy8i-14">
          <mxGeometry x="7.708333333333334" y="7.708333333333334" width="21.583333333333336" height="21.583333333333336" as="geometry" />
        </mxCell>
        <mxCell id="DPr1eYjGlx0VMEfDLy8i-18" value="" style="group;fillColor=#d5e8d4;strokeColor=#82b366;" vertex="1" connectable="0" parent="DPr1eYjGlx0VMEfDLy8i-22">
          <mxGeometry x="40.299999999999955" y="41" width="37" height="37" as="geometry" />
        </mxCell>
        <mxCell id="DPr1eYjGlx0VMEfDLy8i-19" value="" style="sketch=0;outlineConnect=0;fontColor=#232F3E;gradientColor=none;fillColor=#ED7100;strokeColor=none;dashed=0;verticalLabelPosition=bottom;verticalAlign=top;align=center;html=1;fontSize=12;fontStyle=0;aspect=fixed;pointerEvents=1;shape=mxgraph.aws4.container_1;" vertex="1" parent="DPr1eYjGlx0VMEfDLy8i-18">
          <mxGeometry width="11.457666666666666" height="7.4" as="geometry" />
        </mxCell>
        <mxCell id="DPr1eYjGlx0VMEfDLy8i-20" value="" style="rounded=0;whiteSpace=wrap;html=1;fillColor=none;strokeColor=#009900;labelBorderColor=default;" vertex="1" parent="DPr1eYjGlx0VMEfDLy8i-18">
          <mxGeometry width="37" height="37" as="geometry" />
        </mxCell>
        <mxCell id="DPr1eYjGlx0VMEfDLy8i-21" value="" style="image;aspect=fixed;html=1;points=[];align=center;fontSize=12;image=img/lib/azure2/compute/Azure_Spring_Cloud.svg;clipPath=inset(14.71% 14.71% 20.59% 20.59% round 50%);" vertex="1" parent="DPr1eYjGlx0VMEfDLy8i-18">
          <mxGeometry x="7.708333333333334" y="7.708333333333334" width="21.583333333333336" height="21.583333333333336" as="geometry" />
        </mxCell>
        <mxCell id="DPr1eYjGlx0VMEfDLy8i-23" value="" style="group" vertex="1" connectable="0" parent="1">
          <mxGeometry x="-950" y="350" width="77.29999999999995" height="78" as="geometry" />
        </mxCell>
        <mxCell id="DPr1eYjGlx0VMEfDLy8i-24" value="" style="group;fillColor=#ffe6cc;strokeColor=#d79b00;" vertex="1" connectable="0" parent="DPr1eYjGlx0VMEfDLy8i-23">
          <mxGeometry width="37" height="37" as="geometry" />
        </mxCell>
        <mxCell id="DPr1eYjGlx0VMEfDLy8i-25" value="" style="sketch=0;outlineConnect=0;fontColor=#232F3E;gradientColor=none;fillColor=#ED7100;strokeColor=none;dashed=0;verticalLabelPosition=bottom;verticalAlign=top;align=center;html=1;fontSize=12;fontStyle=0;aspect=fixed;pointerEvents=1;shape=mxgraph.aws4.container_1;" vertex="1" parent="DPr1eYjGlx0VMEfDLy8i-24">
          <mxGeometry width="11.457666666666666" height="7.4" as="geometry" />
        </mxCell>
        <mxCell id="DPr1eYjGlx0VMEfDLy8i-26" value="" style="rounded=0;whiteSpace=wrap;html=1;fillColor=none;strokeColor=#ec7e18;labelBorderColor=default;" vertex="1" parent="DPr1eYjGlx0VMEfDLy8i-24">
          <mxGeometry width="37" height="37" as="geometry" />
        </mxCell>
        <mxCell id="DPr1eYjGlx0VMEfDLy8i-27" value="" style="image;aspect=fixed;html=1;points=[];align=center;fontSize=12;image=img/lib/azure2/compute/Azure_Spring_Cloud.svg;clipPath=inset(14.71% 14.71% 20.59% 20.59% round 50%);" vertex="1" parent="DPr1eYjGlx0VMEfDLy8i-24">
          <mxGeometry x="7.708333333333334" y="7.708333333333334" width="21.583333333333336" height="21.583333333333336" as="geometry" />
        </mxCell>
        <mxCell id="DPr1eYjGlx0VMEfDLy8i-28" value="" style="group;fillColor=#fff2cc;strokeColor=#d6b656;" vertex="1" connectable="0" parent="DPr1eYjGlx0VMEfDLy8i-23">
          <mxGeometry x="40.299999999999955" width="37" height="37" as="geometry" />
        </mxCell>
        <mxCell id="DPr1eYjGlx0VMEfDLy8i-29" value="" style="sketch=0;outlineConnect=0;fontColor=#232F3E;gradientColor=none;fillColor=#ED7100;strokeColor=none;dashed=0;verticalLabelPosition=bottom;verticalAlign=top;align=center;html=1;fontSize=12;fontStyle=0;aspect=fixed;pointerEvents=1;shape=mxgraph.aws4.container_1;" vertex="1" parent="DPr1eYjGlx0VMEfDLy8i-28">
          <mxGeometry width="11.457666666666666" height="7.4" as="geometry" />
        </mxCell>
        <mxCell id="DPr1eYjGlx0VMEfDLy8i-30" value="" style="rounded=0;whiteSpace=wrap;html=1;fillColor=none;strokeColor=#8a4300;labelBorderColor=default;" vertex="1" parent="DPr1eYjGlx0VMEfDLy8i-28">
          <mxGeometry width="37" height="37" as="geometry" />
        </mxCell>
        <mxCell id="DPr1eYjGlx0VMEfDLy8i-31" value="" style="image;aspect=fixed;points=[];align=center;fontSize=12;image=img/lib/azure2/compute/Azure_Spring_Cloud.svg;clipPath=inset(14.71% 14.71% 20.59% 20.59% round 50%);labelBackgroundColor=none;labelBorderColor=none;html=1;fontColor=none;noLabel=1;" vertex="1" parent="DPr1eYjGlx0VMEfDLy8i-28">
          <mxGeometry x="7.708333333333334" y="7.708333333333334" width="21.583333333333336" height="21.583333333333336" as="geometry" />
        </mxCell>
        <mxCell id="DPr1eYjGlx0VMEfDLy8i-32" value="" style="group;strokeColor=#6c8ebf;strokeWidth=1;fillColor=#dae8fc;" vertex="1" connectable="0" parent="DPr1eYjGlx0VMEfDLy8i-23">
          <mxGeometry x="0.2999999999999545" y="41" width="37" height="37" as="geometry" />
        </mxCell>
        <mxCell id="DPr1eYjGlx0VMEfDLy8i-33" value="" style="sketch=0;outlineConnect=0;fontColor=#232F3E;gradientColor=none;fillColor=#ED7100;strokeColor=none;dashed=0;verticalLabelPosition=bottom;verticalAlign=top;align=center;html=1;fontSize=12;fontStyle=0;aspect=fixed;pointerEvents=1;shape=mxgraph.aws4.container_1;" vertex="1" parent="DPr1eYjGlx0VMEfDLy8i-32">
          <mxGeometry width="11.457666666666666" height="7.4" as="geometry" />
        </mxCell>
        <mxCell id="DPr1eYjGlx0VMEfDLy8i-34" value="" style="rounded=0;whiteSpace=wrap;html=1;fillColor=none;strokeColor=#0066CC;labelBorderColor=default;" vertex="1" parent="DPr1eYjGlx0VMEfDLy8i-32">
          <mxGeometry width="37" height="37" as="geometry" />
        </mxCell>
        <mxCell id="DPr1eYjGlx0VMEfDLy8i-35" value="" style="image;aspect=fixed;html=1;points=[];align=center;fontSize=12;image=img/lib/azure2/compute/Azure_Spring_Cloud.svg;clipPath=inset(14.71% 14.71% 20.59% 20.59% round 50%);" vertex="1" parent="DPr1eYjGlx0VMEfDLy8i-32">
          <mxGeometry x="7.708333333333334" y="7.708333333333334" width="21.583333333333336" height="21.583333333333336" as="geometry" />
        </mxCell>
        <mxCell id="DPr1eYjGlx0VMEfDLy8i-36" value="" style="group;fillColor=#d5e8d4;strokeColor=#82b366;" vertex="1" connectable="0" parent="DPr1eYjGlx0VMEfDLy8i-23">
          <mxGeometry x="40.299999999999955" y="41" width="37" height="37" as="geometry" />
        </mxCell>
        <mxCell id="DPr1eYjGlx0VMEfDLy8i-37" value="" style="sketch=0;outlineConnect=0;fontColor=#232F3E;gradientColor=none;fillColor=#ED7100;strokeColor=none;dashed=0;verticalLabelPosition=bottom;verticalAlign=top;align=center;html=1;fontSize=12;fontStyle=0;aspect=fixed;pointerEvents=1;shape=mxgraph.aws4.container_1;" vertex="1" parent="DPr1eYjGlx0VMEfDLy8i-36">
          <mxGeometry width="11.457666666666666" height="7.4" as="geometry" />
        </mxCell>
        <mxCell id="DPr1eYjGlx0VMEfDLy8i-38" value="" style="rounded=0;whiteSpace=wrap;html=1;fillColor=none;strokeColor=#009900;labelBorderColor=default;" vertex="1" parent="DPr1eYjGlx0VMEfDLy8i-36">
          <mxGeometry width="37" height="37" as="geometry" />
        </mxCell>
        <mxCell id="DPr1eYjGlx0VMEfDLy8i-39" value="" style="image;aspect=fixed;html=1;points=[];align=center;fontSize=12;image=img/lib/azure2/compute/Azure_Spring_Cloud.svg;clipPath=inset(14.71% 14.71% 20.59% 20.59% round 50%);" vertex="1" parent="DPr1eYjGlx0VMEfDLy8i-36">
          <mxGeometry x="7.708333333333334" y="7.708333333333334" width="21.583333333333336" height="21.583333333333336" as="geometry" />
        </mxCell>
        <mxCell id="DPr1eYjGlx0VMEfDLy8i-40" value="" style="group" vertex="1" connectable="0" parent="1">
          <mxGeometry x="-680" y="350" width="77.29999999999995" height="78" as="geometry" />
        </mxCell>
        <mxCell id="DPr1eYjGlx0VMEfDLy8i-41" value="" style="group;fillColor=#ffe6cc;strokeColor=#d79b00;" vertex="1" connectable="0" parent="DPr1eYjGlx0VMEfDLy8i-40">
          <mxGeometry width="37" height="37" as="geometry" />
        </mxCell>
        <mxCell id="DPr1eYjGlx0VMEfDLy8i-42" value="" style="sketch=0;outlineConnect=0;fontColor=#232F3E;gradientColor=none;fillColor=#ED7100;strokeColor=none;dashed=0;verticalLabelPosition=bottom;verticalAlign=top;align=center;html=1;fontSize=12;fontStyle=0;aspect=fixed;pointerEvents=1;shape=mxgraph.aws4.container_1;" vertex="1" parent="DPr1eYjGlx0VMEfDLy8i-41">
          <mxGeometry width="11.457666666666666" height="7.4" as="geometry" />
        </mxCell>
        <mxCell id="DPr1eYjGlx0VMEfDLy8i-43" value="" style="rounded=0;whiteSpace=wrap;html=1;fillColor=none;strokeColor=#ec7e18;labelBorderColor=default;" vertex="1" parent="DPr1eYjGlx0VMEfDLy8i-41">
          <mxGeometry width="37" height="37" as="geometry" />
        </mxCell>
        <mxCell id="DPr1eYjGlx0VMEfDLy8i-44" value="" style="image;aspect=fixed;html=1;points=[];align=center;fontSize=12;image=img/lib/azure2/compute/Azure_Spring_Cloud.svg;clipPath=inset(14.71% 14.71% 20.59% 20.59% round 50%);" vertex="1" parent="DPr1eYjGlx0VMEfDLy8i-41">
          <mxGeometry x="7.708333333333334" y="7.708333333333334" width="21.583333333333336" height="21.583333333333336" as="geometry" />
        </mxCell>
        <mxCell id="DPr1eYjGlx0VMEfDLy8i-45" value="" style="group;fillColor=#fff2cc;strokeColor=#d6b656;" vertex="1" connectable="0" parent="DPr1eYjGlx0VMEfDLy8i-40">
          <mxGeometry x="40.299999999999955" width="37" height="37" as="geometry" />
        </mxCell>
        <mxCell id="DPr1eYjGlx0VMEfDLy8i-46" value="" style="sketch=0;outlineConnect=0;fontColor=#232F3E;gradientColor=none;fillColor=#ED7100;strokeColor=none;dashed=0;verticalLabelPosition=bottom;verticalAlign=top;align=center;html=1;fontSize=12;fontStyle=0;aspect=fixed;pointerEvents=1;shape=mxgraph.aws4.container_1;" vertex="1" parent="DPr1eYjGlx0VMEfDLy8i-45">
          <mxGeometry width="11.457666666666666" height="7.4" as="geometry" />
        </mxCell>
        <mxCell id="DPr1eYjGlx0VMEfDLy8i-47" value="" style="rounded=0;whiteSpace=wrap;html=1;fillColor=none;strokeColor=#8a4300;labelBorderColor=default;" vertex="1" parent="DPr1eYjGlx0VMEfDLy8i-45">
          <mxGeometry width="37" height="37" as="geometry" />
        </mxCell>
        <mxCell id="DPr1eYjGlx0VMEfDLy8i-48" value="" style="image;aspect=fixed;points=[];align=center;fontSize=12;image=img/lib/azure2/compute/Azure_Spring_Cloud.svg;clipPath=inset(14.71% 14.71% 20.59% 20.59% round 50%);labelBackgroundColor=none;labelBorderColor=none;html=1;fontColor=none;noLabel=1;" vertex="1" parent="DPr1eYjGlx0VMEfDLy8i-45">
          <mxGeometry x="7.708333333333334" y="7.708333333333334" width="21.583333333333336" height="21.583333333333336" as="geometry" />
        </mxCell>
        <mxCell id="DPr1eYjGlx0VMEfDLy8i-49" value="" style="group;strokeColor=#6c8ebf;strokeWidth=1;fillColor=#dae8fc;" vertex="1" connectable="0" parent="DPr1eYjGlx0VMEfDLy8i-40">
          <mxGeometry x="0.2999999999999545" y="41" width="37" height="37" as="geometry" />
        </mxCell>
        <mxCell id="DPr1eYjGlx0VMEfDLy8i-50" value="" style="sketch=0;outlineConnect=0;fontColor=#232F3E;gradientColor=none;fillColor=#ED7100;strokeColor=none;dashed=0;verticalLabelPosition=bottom;verticalAlign=top;align=center;html=1;fontSize=12;fontStyle=0;aspect=fixed;pointerEvents=1;shape=mxgraph.aws4.container_1;" vertex="1" parent="DPr1eYjGlx0VMEfDLy8i-49">
          <mxGeometry width="11.457666666666666" height="7.4" as="geometry" />
        </mxCell>
        <mxCell id="DPr1eYjGlx0VMEfDLy8i-51" value="" style="rounded=0;whiteSpace=wrap;html=1;fillColor=none;strokeColor=#0066CC;labelBorderColor=default;" vertex="1" parent="DPr1eYjGlx0VMEfDLy8i-49">
          <mxGeometry width="37" height="37" as="geometry" />
        </mxCell>
        <mxCell id="DPr1eYjGlx0VMEfDLy8i-52" value="" style="image;aspect=fixed;html=1;points=[];align=center;fontSize=12;image=img/lib/azure2/compute/Azure_Spring_Cloud.svg;clipPath=inset(14.71% 14.71% 20.59% 20.59% round 50%);" vertex="1" parent="DPr1eYjGlx0VMEfDLy8i-49">
          <mxGeometry x="7.708333333333334" y="7.708333333333334" width="21.583333333333336" height="21.583333333333336" as="geometry" />
        </mxCell>
        <mxCell id="DPr1eYjGlx0VMEfDLy8i-53" value="" style="group;fillColor=#d5e8d4;strokeColor=#82b366;" vertex="1" connectable="0" parent="DPr1eYjGlx0VMEfDLy8i-40">
          <mxGeometry x="40.299999999999955" y="41" width="37" height="37" as="geometry" />
        </mxCell>
        <mxCell id="DPr1eYjGlx0VMEfDLy8i-54" value="" style="sketch=0;outlineConnect=0;fontColor=#232F3E;gradientColor=none;fillColor=#ED7100;strokeColor=none;dashed=0;verticalLabelPosition=bottom;verticalAlign=top;align=center;html=1;fontSize=12;fontStyle=0;aspect=fixed;pointerEvents=1;shape=mxgraph.aws4.container_1;" vertex="1" parent="DPr1eYjGlx0VMEfDLy8i-53">
          <mxGeometry width="11.457666666666666" height="7.4" as="geometry" />
        </mxCell>
        <mxCell id="DPr1eYjGlx0VMEfDLy8i-55" value="" style="rounded=0;whiteSpace=wrap;html=1;fillColor=none;strokeColor=#009900;labelBorderColor=default;" vertex="1" parent="DPr1eYjGlx0VMEfDLy8i-53">
          <mxGeometry width="37" height="37" as="geometry" />
        </mxCell>
        <mxCell id="DPr1eYjGlx0VMEfDLy8i-56" value="" style="image;aspect=fixed;html=1;points=[];align=center;fontSize=12;image=img/lib/azure2/compute/Azure_Spring_Cloud.svg;clipPath=inset(14.71% 14.71% 20.59% 20.59% round 50%);" vertex="1" parent="DPr1eYjGlx0VMEfDLy8i-53">
          <mxGeometry x="7.708333333333334" y="7.708333333333334" width="21.583333333333336" height="21.583333333333336" as="geometry" />
        </mxCell>
        <mxCell id="DPr1eYjGlx0VMEfDLy8i-57" value="" style="group" vertex="1" connectable="0" parent="1">
          <mxGeometry x="-770" y="350" width="77.29999999999995" height="78" as="geometry" />
        </mxCell>
        <mxCell id="DPr1eYjGlx0VMEfDLy8i-58" value="" style="group;fillColor=#ffe6cc;strokeColor=#d79b00;" vertex="1" connectable="0" parent="DPr1eYjGlx0VMEfDLy8i-57">
          <mxGeometry width="37" height="37" as="geometry" />
        </mxCell>
        <mxCell id="DPr1eYjGlx0VMEfDLy8i-59" value="" style="sketch=0;outlineConnect=0;fontColor=#232F3E;gradientColor=none;fillColor=#ED7100;strokeColor=none;dashed=0;verticalLabelPosition=bottom;verticalAlign=top;align=center;html=1;fontSize=12;fontStyle=0;aspect=fixed;pointerEvents=1;shape=mxgraph.aws4.container_1;" vertex="1" parent="DPr1eYjGlx0VMEfDLy8i-58">
          <mxGeometry width="11.457666666666666" height="7.4" as="geometry" />
        </mxCell>
        <mxCell id="DPr1eYjGlx0VMEfDLy8i-60" value="" style="rounded=0;whiteSpace=wrap;html=1;fillColor=none;strokeColor=#ec7e18;labelBorderColor=default;" vertex="1" parent="DPr1eYjGlx0VMEfDLy8i-58">
          <mxGeometry width="37" height="37" as="geometry" />
        </mxCell>
        <mxCell id="DPr1eYjGlx0VMEfDLy8i-61" value="" style="image;aspect=fixed;html=1;points=[];align=center;fontSize=12;image=img/lib/azure2/compute/Azure_Spring_Cloud.svg;clipPath=inset(14.71% 14.71% 20.59% 20.59% round 50%);" vertex="1" parent="DPr1eYjGlx0VMEfDLy8i-58">
          <mxGeometry x="7.708333333333334" y="7.708333333333334" width="21.583333333333336" height="21.583333333333336" as="geometry" />
        </mxCell>
        <mxCell id="DPr1eYjGlx0VMEfDLy8i-62" value="" style="group;fillColor=#fff2cc;strokeColor=#d6b656;" vertex="1" connectable="0" parent="DPr1eYjGlx0VMEfDLy8i-57">
          <mxGeometry x="40.299999999999955" width="37" height="37" as="geometry" />
        </mxCell>
        <mxCell id="DPr1eYjGlx0VMEfDLy8i-63" value="" style="sketch=0;outlineConnect=0;fontColor=#232F3E;gradientColor=none;fillColor=#ED7100;strokeColor=none;dashed=0;verticalLabelPosition=bottom;verticalAlign=top;align=center;html=1;fontSize=12;fontStyle=0;aspect=fixed;pointerEvents=1;shape=mxgraph.aws4.container_1;" vertex="1" parent="DPr1eYjGlx0VMEfDLy8i-62">
          <mxGeometry width="11.457666666666666" height="7.4" as="geometry" />
        </mxCell>
        <mxCell id="DPr1eYjGlx0VMEfDLy8i-64" value="" style="rounded=0;whiteSpace=wrap;html=1;fillColor=none;strokeColor=#8a4300;labelBorderColor=default;" vertex="1" parent="DPr1eYjGlx0VMEfDLy8i-62">
          <mxGeometry width="37" height="37" as="geometry" />
        </mxCell>
        <mxCell id="DPr1eYjGlx0VMEfDLy8i-65" value="" style="image;aspect=fixed;points=[];align=center;fontSize=12;image=img/lib/azure2/compute/Azure_Spring_Cloud.svg;clipPath=inset(14.71% 14.71% 20.59% 20.59% round 50%);labelBackgroundColor=none;labelBorderColor=none;html=1;fontColor=none;noLabel=1;" vertex="1" parent="DPr1eYjGlx0VMEfDLy8i-62">
          <mxGeometry x="7.708333333333334" y="7.708333333333334" width="21.583333333333336" height="21.583333333333336" as="geometry" />
        </mxCell>
        <mxCell id="DPr1eYjGlx0VMEfDLy8i-66" value="" style="group;strokeColor=#6c8ebf;strokeWidth=1;fillColor=#dae8fc;" vertex="1" connectable="0" parent="DPr1eYjGlx0VMEfDLy8i-57">
          <mxGeometry x="0.2999999999999545" y="41" width="37" height="37" as="geometry" />
        </mxCell>
        <mxCell id="DPr1eYjGlx0VMEfDLy8i-67" value="" style="sketch=0;outlineConnect=0;fontColor=#232F3E;gradientColor=none;fillColor=#ED7100;strokeColor=none;dashed=0;verticalLabelPosition=bottom;verticalAlign=top;align=center;html=1;fontSize=12;fontStyle=0;aspect=fixed;pointerEvents=1;shape=mxgraph.aws4.container_1;" vertex="1" parent="DPr1eYjGlx0VMEfDLy8i-66">
          <mxGeometry width="11.457666666666666" height="7.4" as="geometry" />
        </mxCell>
        <mxCell id="DPr1eYjGlx0VMEfDLy8i-68" value="" style="rounded=0;whiteSpace=wrap;html=1;fillColor=none;strokeColor=#0066CC;labelBorderColor=default;" vertex="1" parent="DPr1eYjGlx0VMEfDLy8i-66">
          <mxGeometry width="37" height="37" as="geometry" />
        </mxCell>
        <mxCell id="DPr1eYjGlx0VMEfDLy8i-69" value="" style="image;aspect=fixed;html=1;points=[];align=center;fontSize=12;image=img/lib/azure2/compute/Azure_Spring_Cloud.svg;clipPath=inset(14.71% 14.71% 20.59% 20.59% round 50%);" vertex="1" parent="DPr1eYjGlx0VMEfDLy8i-66">
          <mxGeometry x="7.708333333333334" y="7.708333333333334" width="21.583333333333336" height="21.583333333333336" as="geometry" />
        </mxCell>
        <mxCell id="DPr1eYjGlx0VMEfDLy8i-70" value="" style="group;fillColor=#d5e8d4;strokeColor=#82b366;" vertex="1" connectable="0" parent="DPr1eYjGlx0VMEfDLy8i-57">
          <mxGeometry x="40.299999999999955" y="41" width="37" height="37" as="geometry" />
        </mxCell>
        <mxCell id="DPr1eYjGlx0VMEfDLy8i-71" value="" style="sketch=0;outlineConnect=0;fontColor=#232F3E;gradientColor=none;fillColor=#ED7100;strokeColor=none;dashed=0;verticalLabelPosition=bottom;verticalAlign=top;align=center;html=1;fontSize=12;fontStyle=0;aspect=fixed;pointerEvents=1;shape=mxgraph.aws4.container_1;" vertex="1" parent="DPr1eYjGlx0VMEfDLy8i-70">
          <mxGeometry width="11.457666666666666" height="7.4" as="geometry" />
        </mxCell>
        <mxCell id="DPr1eYjGlx0VMEfDLy8i-72" value="" style="rounded=0;whiteSpace=wrap;html=1;fillColor=none;strokeColor=#009900;labelBorderColor=default;" vertex="1" parent="DPr1eYjGlx0VMEfDLy8i-70">
          <mxGeometry width="37" height="37" as="geometry" />
        </mxCell>
        <mxCell id="DPr1eYjGlx0VMEfDLy8i-73" value="" style="image;aspect=fixed;html=1;points=[];align=center;fontSize=12;image=img/lib/azure2/compute/Azure_Spring_Cloud.svg;clipPath=inset(14.71% 14.71% 20.59% 20.59% round 50%);" vertex="1" parent="DPr1eYjGlx0VMEfDLy8i-70">
          <mxGeometry x="7.708333333333334" y="7.708333333333334" width="21.583333333333336" height="21.583333333333336" as="geometry" />
        </mxCell>
        <mxCell id="DPr1eYjGlx0VMEfDLy8i-74" value="" style="sketch=0;outlineConnect=0;fontColor=#232F3E;gradientColor=none;fillColor=#8C4FFF;strokeColor=none;dashed=0;verticalLabelPosition=bottom;verticalAlign=top;align=center;html=1;fontSize=12;fontStyle=0;aspect=fixed;pointerEvents=1;shape=mxgraph.aws4.nat_gateway;" vertex="1" parent="1">
          <mxGeometry x="-986" width="50" height="50" as="geometry" />
        </mxCell>
      </root>
    </mxGraphModel>
  </diagram>
</mxfile>
